<?xml version="1.0" encoding="utf-8"?>
<!-- Generator: Adobe Illustrator 15.0.0, SVG Export Plug-In . SVG Version: 6.00 Build 0)  -->
<!DOCTYPE svg PUBLIC "-//W3C//DTD SVG 1.1//EN" "http://www.w3.org/Graphics/SVG/1.1/DTD/svg11.dtd">
<svg version="1.1" id="Layer_1" xmlns="http://www.w3.org/2000/svg" xmlns:xlink="http://www.w3.org/1999/xlink" x="0px" y="0px"
	 width="1131.02px" height="283.465px" viewBox="0 0 1131.02 283.465" enable-background="new 0 0 1131.02 283.465"
	 xml:space="preserve">
<g>
	<path fill="#f50057" d="M127.097,111.488c0,1.559,1.105,3.472,2.455,4.252l78.171,45.132c1.351,0.78,3.56,2.055,4.91,2.835
		l30.697,17.723c1.35,0.779,2.455,0.142,2.455-1.418v-35.444c0-1.56-1.105-3.472-2.455-4.252l-113.778-65.69
		c-1.35-0.779-2.455-0.141-2.455,1.418V111.488z"/>
	<path fill="#f50057" d="M129.551,6.101c-1.35-0.78-3.56-0.78-4.91,0L10.863,71.791c-1.35,0.779-2.455,2.693-2.455,4.252v131.379
		c0,1.56,1.105,3.474,2.455,4.252l113.778,65.69c1.35,0.778,3.56,0.778,4.91,0l78.172-45.132c1.35-0.78,3.559-2.057,4.909-2.835
		l30.697-17.724c1.35-0.778,1.35-2.055,0-2.835L129.551,143.15c-1.35-0.78-3.564-0.789-4.921-0.02l-31.311,17.76
		c-1.356,0.77-1.36,2.034-0.008,2.811l78.707,45.199c1.352,0.776,1.353,2.05,0.003,2.829l-42.47,24.52c-1.35,0.78-3.56,0.78-4.91,0
		l-78.171-45.132c-1.351-0.78-2.455-2.693-2.455-4.252V96.6c0-1.559,1.104-3.472,2.455-4.252l78.171-45.132
		c1.35-0.78,3.56-0.78,4.91,0l78.172,45.132c1.35,0.78,3.559,2.055,4.909,2.835l30.697,17.722c1.35,0.78,2.455,0.142,2.455-1.417
		V76.043c0-1.559-1.105-3.473-2.455-4.252L129.551,6.101z"/>
	<path fill="#f50057" d="M405.405,211.264c-6.781,0-11.637-1.4-14.57-4.205c-2.935-2.804-4.533-6.289-4.793-10.463
		c-1.437,4.433-4.467,8.311-9.094,11.637c-4.631,3.325-11.314,4.987-20.048,4.987c-5.084,0-10.041-1.012-14.864-3.031
		c-4.825-2.022-9.128-5.38-12.91-10.073c-3.782-4.695-6.815-10.954-9.094-18.777c-2.281-7.823-3.422-17.534-3.422-29.143
		c0-4.431,0.26-9.549,0.781-15.353c0.521-5.799,1.596-11.734,3.229-17.797c1.628-6.064,3.975-11.995,7.04-17.799
		c3.062-5.8,7.106-10.984,12.127-15.549c5.018-4.563,11.179-8.245,18.481-11.051c7.302-2.802,16.039-4.204,26.21-4.204
		c6.651,0,12.616,0.718,17.896,2.15c5.281,1.437,9.78,3.456,13.496,6.064c3.716,2.61,6.582,5.803,8.604,9.583
		c2.022,3.784,3.033,8.019,3.033,12.713c0,7.564-2.48,13.27-7.432,17.115c-4.957,3.846-11.931,5.769-20.929,5.769
		c-2.869,0-4.595-0.226-5.182-0.684c-0.588-0.455-0.948-1.4-1.075-2.837c-0.264-2.346-0.426-4.694-0.49-7.04
		c-0.068-2.348-0.391-4.499-0.979-6.455c-0.585-1.956-1.598-3.52-3.03-4.694c-1.437-1.174-3.716-1.76-6.845-1.76
		c-6.391,0-11.475,1.827-15.257,5.476c-3.782,3.652-6.649,8.086-8.605,13.301c-1.956,5.216-3.197,10.594-3.716,16.135
		c-0.523,5.544-0.783,10.204-0.783,13.985c0,6.259,0.392,11.509,1.173,15.743c0.783,4.238,1.924,7.694,3.424,10.365
		c1.496,2.675,3.29,4.567,5.378,5.674c2.084,1.109,4.499,1.662,7.236,1.662c4.955,0,9.126-1.043,12.519-3.131
		c3.388-2.083,5.407-5.867,6.063-11.343l1.173-10.952c0.391-3.782,0.91-6.876,1.564-9.291c0.651-2.411,2.215-3.618,4.695-3.618
		h10.756c3.258,0,5.9,0.36,7.921,1.076c2.02,0.717,3.587,1.891,4.695,3.521c1.107,1.632,1.858,3.75,2.25,6.356
		c0.392,2.609,0.585,5.804,0.585,9.584c0,2.609-0.098,6.063-0.291,10.364c-0.196,4.303-0.46,8.675-0.783,13.105
		c-0.328,4.434-0.686,8.508-1.075,12.223c-0.392,3.719-0.72,6.294-0.979,7.728c-0.262,1.173-0.588,1.956-0.977,2.346
		c-0.392,0.392-1.175,0.588-2.348,0.588H405.405z"/>
	<path fill="#f50057" d="M464.081,211.263c-7.431,0-12.682-1.466-15.742-4.4c-3.067-2.934-4.597-7.267-4.597-13.007
		c0-1.563,0.098-4.205,0.294-7.921c0.195-3.716,0.487-8.117,0.878-13.202c0.392-5.086,0.813-10.659,1.273-16.723
		c0.456-6.063,0.943-12.224,1.467-18.482c1.042-13.169,1.789-23.862,2.249-32.076c0.455-8.215,0.813-14.669,1.075-19.363
		c0.391-5.868,0.783-9.614,1.175-11.247c0.389-1.629,1.236-2.444,2.541-2.444c4.041,0,8.181-0.098,12.42-0.294
		c4.235-0.196,8.313-0.421,12.225-0.684c3.912-0.26,7.594-0.49,11.05-0.685c3.454-0.195,6.553-0.293,9.29-0.293
		c8.342,0,15.515,1.045,21.514,3.128c5.995,2.088,10.857,5.022,14.573,8.802c3.715,3.784,6.452,8.346,8.212,13.691
		c1.76,5.348,2.642,11.345,2.642,17.994c0,10.17-2.022,19.235-6.064,27.187c-4.044,7.956-10.496,14.019-19.363,18.19l16.43,23.471
		c2.997,4.434,5.281,7.855,6.845,10.267c1.564,2.416,2.347,4.205,2.347,5.38c0,0.913-0.555,2.184-1.662,3.814
		c-1.109,1.63-2.739,3.261-4.891,4.889c-2.151,1.632-4.761,3.033-7.823,4.205c-3.065,1.173-6.487,1.76-10.267,1.76
		c-4.175,0-7.794-1.368-10.856-4.106c-3.065-2.737-5.804-6.357-8.215-10.854c-2.414-4.5-4.497-9.682-6.257-15.549
		c-1.76-5.868-3.425-11.995-4.989-18.386c-4.692-0.261-8.54-0.716-11.539-1.369c-0.392,5.737-0.783,11.216-1.173,16.428
		c-0.391,5.216-0.719,9.877-0.979,13.985c-0.262,4.106-0.521,7.5-0.781,10.171c-0.264,2.673-0.391,4.271-0.391,4.793
		c-0.133,1.045-0.392,1.792-0.784,2.247c-0.391,0.46-1.172,0.685-2.347,0.685H464.081z M495.767,99.78
		c-1.564,0-3.324,0.097-5.28,0.293c-1.956,0.195-4.044,0.424-6.259,0.685c-0.262,4.565-0.556,10.008-0.879,16.331
		c-0.328,6.325-0.754,13.073-1.273,20.243c4.563,1.045,8.538,1.564,11.931,1.564c4.039,0,7.334-0.782,9.877-2.346
		c2.543-1.566,4.529-3.487,5.966-5.77c1.432-2.28,2.377-4.724,2.834-7.335c0.456-2.607,0.686-4.953,0.686-7.041
		c0-5.344-1.305-9.452-3.912-12.322C506.849,101.216,502.286,99.78,495.767,99.78"/>
	<path fill="#f50057" d="M633.652,70.246c9.518,0,17.666,1.339,24.449,4.01c6.778,2.674,12.32,6.586,16.624,11.735
		c4.303,5.153,7.432,11.411,9.388,18.775c1.955,7.368,2.935,15.745,2.935,25.134c0,5.216-0.362,10.888-1.076,17.015
		c-0.718,6.13-2.022,12.291-3.912,18.484s-4.468,12.158-7.726,17.895c-3.261,5.74-7.467,10.824-12.614,15.257
		c-5.153,4.434-11.314,7.988-18.484,10.658c-7.172,2.671-15.646,4.01-25.426,4.01c-10.825,0-19.787-1.632-26.894-4.888
		c-7.107-3.259-12.779-7.66-17.015-13.204c-4.24-5.54-7.236-12.093-8.996-19.657c-1.76-7.559-2.642-15.646-2.642-24.251
		c0-10.171,1.173-20.112,3.521-29.828c2.348-9.712,6.288-18.351,11.833-25.914c5.539-7.561,12.876-13.657,22.004-18.288
		C608.747,72.563,620.091,70.246,633.652,70.246 M629.545,100.562c-4.565,0-8.508,0.815-11.833,2.444
		c-3.324,1.633-6.131,3.814-8.409,6.552c-2.283,2.739-4.107,5.804-5.477,9.193c-1.37,3.393-2.444,6.88-3.228,10.464
		c-0.781,3.588-1.306,7.041-1.565,10.366c-0.261,3.325-0.391,6.293-0.391,8.9c0,11.865,1.988,20.535,5.965,26.012
		c3.976,5.476,9.616,8.215,16.92,8.215c5.995,0,10.884-1.924,14.668-5.769c3.78-3.847,6.749-8.476,8.898-13.888
		c2.151-5.41,3.62-11.018,4.4-16.82c0.784-5.8,1.176-10.725,1.176-14.768c0-9.516-1.633-17.046-4.892-22.59
		C642.519,103.333,637.106,100.562,629.545,100.562"/>
	<path fill="#f50057" d="M751.787,182.121c2.739-9.126,5.087-17.146,7.042-24.058c1.956-6.908,3.912-14.015,5.868-21.317
		c1.956-7.301,4.039-15.516,6.257-24.645c2.216-9.126,5.019-20.469,8.411-34.032c0.651-2.475,1.4-4.073,2.25-4.791
		c0.848-0.715,2.769-1.076,5.77-1.076c1.303,0,3.355,0.098,6.162,0.294c2.8,0.194,5.637,0.782,8.506,1.76
		c2.867,0.978,5.41,2.413,7.628,4.302c2.215,1.892,3.326,4.597,3.326,8.117c0,3.13-0.882,7.921-2.642,14.375
		c-1.76,6.455-4.01,13.789-6.746,22.004c-2.738,8.214-5.771,16.79-9.097,25.719c-3.324,8.933-6.619,17.378-9.877,25.328
		c-3.26,7.955-6.228,14.933-8.898,20.928c-2.675,6-4.663,10.171-5.966,12.518c-1.436,2.479-3.979,3.716-7.627,3.716h-20.538
		c-3.261,0-5.966-0.616-8.114-1.857c-2.152-1.238-3.946-2.901-5.381-4.986c-1.437-2.086-2.609-4.465-3.52-7.141
		c-0.913-2.67-1.697-5.378-2.348-8.117c-4.434-18.513-8.247-34.584-11.441-48.211c-3.197-13.624-5.836-25.035-7.922-34.228
		c-2.085-9.192-3.652-16.264-4.692-21.221c-1.046-4.953-1.566-8.019-1.566-9.192c0-1.433,1.043-2.509,3.131-3.227
		c2.083-0.715,5.603-1.076,10.56-1.076c5.214,0,9.488,0.523,12.812,1.564c3.324,1.047,5.995,2.513,8.02,4.402
		c2.02,1.892,3.521,4.107,4.496,6.649c0.98,2.544,1.665,5.315,2.054,8.313c0.393,2.218,0.784,4.859,1.176,7.921
		c0.392,3.065,1.074,7.726,2.054,13.984c0.977,6.26,2.312,14.704,4.01,25.329C746.635,150.798,748.918,164.78,751.787,182.121"/>
	<path fill="#f50057" d="M843.904,211.264c-7.302,0-12.516-1.433-15.646-4.304c-3.128-2.867-4.693-6.975-4.693-12.32
		c0-2.607,0.196-7.072,0.588-13.399c0.389-6.323,0.911-13.525,1.564-21.611c0.65-8.085,1.302-16.626,1.956-25.623
		c0.65-8.996,1.302-17.471,1.956-25.425c0.65-7.952,1.172-14.93,1.563-20.928c0.392-5.996,0.587-10.103,0.587-12.322
		c0-1.956,1.041-2.934,3.129-2.934h68.848c0.78,0,1.496,0.195,2.151,0.587c0.649,0.391,0.977,1.109,0.977,2.151l-0.783,11.54
		c-0.262,3.912-1.336,7.074-3.227,9.485c-1.892,2.415-5.77,3.62-11.638,3.62h-26.99l-1.956,27.576h27.774
		c0.781,0,1.496,0.196,2.152,0.588c0.647,0.39,0.976,1.109,0.976,2.15l-0.781,11.541c-0.264,3.912-1.338,7.074-3.228,9.486
		c-1.893,2.413-5.771,3.618-11.638,3.618H860.53l-2.151,29.142h43.028c0.781,0,1.499,0.23,2.152,0.686
		c0.651,0.458,0.977,1.143,0.977,2.054l-0.78,11.539c-0.265,3.912-1.34,7.075-3.229,9.486c-1.89,2.414-5.769,3.618-11.637,3.618
		H843.904z"/>
	<path fill="#f50057" d="M941.892,211.264c-7.302,0-12.517-1.433-15.647-4.304c-3.128-2.867-4.692-6.975-4.692-12.32
		c0-2.607,0.195-7.072,0.588-13.399c0.389-6.323,0.911-13.525,1.563-21.611c0.651-8.085,1.303-16.626,1.956-25.623
		c0.651-8.996,1.302-17.471,1.956-25.425c0.651-7.952,1.172-14.93,1.564-20.928c0.392-5.996,0.587-10.103,0.587-12.322
		c0-1.956,1.041-2.934,3.129-2.934h10.758c7.3,0,12.354,1.403,15.158,4.205c2.803,2.806,4.205,6.943,4.205,12.42
		c0,0.654-0.034,1.24-0.099,1.76c-0.067,0.523-0.098,1.109-0.098,1.76l-6.455,91.338h35.206c0.783,0,1.498,0.23,2.152,0.686
		c0.65,0.458,0.976,1.143,0.976,2.054l-0.781,11.539c-0.264,3.912-1.338,7.075-3.228,9.486c-1.89,2.414-5.77,3.618-11.638,3.618
		H941.892z"/>
	<path fill="#f50057" d="M1017.193,75.332c0.128-1.043,0.554-1.791,1.271-2.25c0.715-0.455,1.401-0.684,2.054-0.684
		c8.866,0,17.178-0.294,24.938-0.88c7.757-0.588,13.852-0.881,18.288-0.881c11.082,0,20.371,1.11,27.872,3.325
		c7.494,2.219,13.559,5.672,18.188,10.366c4.626,4.695,7.921,10.757,9.877,18.19c1.956,7.432,2.936,16.364,2.936,26.795
		c0,10.561-1.077,20.897-3.229,31c-2.151,10.107-5.899,19.069-11.246,26.894c-5.348,7.823-12.55,14.116-21.612,18.875
		c-9.063,4.761-20.506,7.138-34.324,7.138c-6.392,0-12.225-0.132-17.504-0.391c-5.283-0.263-9.814-1.045-13.595-2.349
		c-3.783-1.3-6.716-3.256-8.802-5.866c-2.086-2.605-3.129-6.191-3.129-10.758c0-1.693,0.098-4.234,0.294-7.627
		c0.196-3.391,0.456-7.432,0.781-12.127c0.326-4.692,0.715-9.877,1.175-15.549c0.455-5.672,0.943-11.637,1.466-17.896
		c1.043-12.908,1.858-23.207,2.446-30.903c0.585-7.691,0.977-13.721,1.172-18.091c0.196-4.367,0.324-7.659,0.392-9.877
		C1016.964,79.57,1017.062,77.418,1017.193,75.332 M1053.572,182.316c7.302,0,13.135-1.563,17.505-4.694
		c4.366-3.128,7.725-7.104,10.072-11.932c2.348-4.822,3.912-10.103,4.693-15.841c0.783-5.735,1.175-11.148,1.175-16.234
		c0-5.477-0.359-10.269-1.077-14.375c-0.718-4.108-1.956-7.531-3.716-10.269c-1.76-2.738-4.204-4.792-7.334-6.161
		c-3.129-1.369-7.041-2.053-11.736-2.053c-1.436,0-3.26,0.067-5.475,0.195c-2.218,0.132-4.891,0.328-8.02,0.587
		c-0.263,4.825-0.587,10.531-0.978,17.113c-0.391,6.586-0.816,13.496-1.271,20.733c-0.458,7.236-0.948,14.54-1.468,21.906
		c-0.522,7.368-1.045,14.178-1.563,20.438c1.956,0.265,3.716,0.426,5.28,0.489C1051.224,182.285,1052.527,182.316,1053.572,182.316"
		/>
</g>
</svg>
