<svg xmlns="http://www.w3.org/2000/svg" xmlns:xlink="http://www.w3.org/1999/xlink" viewBox="0 0 211 183">
  <path d="M54.337 65.737H.67c-.314 0-.605.16-.773.427-.167.266-.186.6-.05.88L11.74 91.817-.15 116.42c-.138.283-.12.616.047.883.167.266.46.428.773.428h53.667c.504 0 .913-.408.913-.912V66.65c0-.504-.408-.913-.913-.913zM211.15 115.56l-11.89-24.174 11.89-24.337c.138-.282.12-.613-.045-.878-.165-.265-.455-.426-.768-.426H164.67c-.5 0-.906.405-.906.905v49.31c0 .5.405.905.905.905h45.667c.313 0 .604-.16.77-.427.164-.266.18-.598.043-.878z" fill="#A3001F"/>
  <circle cx="106.588" cy="80.85" r="76.917" fill="#FFF"/>
  <path d="M185.738 85.312l2.1-3.683-2.1-3.684 1.755-3.857-2.426-3.476 1.394-4.003-2.737-3.233 1.015-4.115-3.025-2.966.628-4.19-3.288-2.674.235-4.23-3.52-2.356-.157-4.235-3.724-2.02-.547-4.202-3.896-1.67-.93-4.133-4.03-1.306-1.307-4.03-4.133-.93-1.67-3.897-4.203-.547-2.02-3.724-4.234-.157-2.356-3.522-4.23.235-2.674-3.29-4.19.628-2.97-3.025-4.114 1.015-3.235-2.737-4.002 1.392L113.67.265l-3.86 1.754-3.68-2.1-3.683 2.1L98.59.264 95.114 2.69 91.11 1.298l-3.235 2.737L83.76 3.02l-2.966 3.025-4.192-.628-2.673 3.29-4.23-.237-2.357 3.522-4.235.156-2.02 3.725-4.203.546-1.67 3.894-4.133.93-1.306 4.03-4.03 1.306-.93 4.134-3.896 1.67-.546 4.2-3.726 2.022-.157 4.235-3.52 2.358.234 4.23-3.288 2.674.627 4.19-3.026 2.97 1.015 4.114-2.737 3.236 1.392 4.002-2.427 3.476 1.754 3.857-2.1 3.683 2.1 3.683-1.754 3.857 2.425 3.475-1.392 4.003 2.738 3.234-1.014 4.115 3.025 2.968-.626 4.19 3.288 2.672-.236 4.23 3.522 2.356.157 4.235 3.724 2.02.546 4.204 3.895 1.67.93 4.133 4.03 1.306 1.307 4.032 4.134.93 1.67 3.895 4.202.547 2.022 3.725 4.234.156 2.356 3.52 4.232-.234 2.672 3.29 4.192-.63 2.967 3.026 4.115-1.014 3.236 2.737 4.002-1.392 3.474 2.426 3.86-1.755 3.68 2.097 3.683-2.098 3.858 1.754 3.475-2.426 4.003 1.393 3.234-2.736 4.114 1.015 2.968-3.026 4.19.628 2.674-3.29 4.23.236 2.356-3.52 4.235-.158 2.02-3.724 4.202-.546 1.67-3.896 4.134-.93 1.305-4.03 4.03-1.306.93-4.134 3.895-1.67.547-4.203 3.726-2.02.157-4.234 3.52-2.356-.232-4.23 3.286-2.675-.625-4.19 3.024-2.968-1.015-4.115 2.737-3.235-1.394-4.002 2.426-3.476-1.752-3.858zm-5.123-3.683c0 41.072-33.415 74.487-74.488 74.487S31.64 122.702 31.64 81.63c0-41.074 33.414-74.49 74.487-74.49 41.073 0 74.488 33.416 74.488 74.49z" fill="#CCC"/>
  <defs>
    <circle id="a" cx="106.125" cy="81.629" r="69.448"/>
  </defs>
  <clipPath id="b">
    <use xlink:href="#a" overflow="visible"/>
  </clipPath>
  <g clip-path="url(#b)">
    <path d="M36.677 12.12h69.448v92.598H36.677V12.12z"/>
    <path d="M106.125 12.12h69.448v92.598h-69.448V12.12z" fill="#FFE000"/>
  </g>
  <g clip-path="url(#b)">
    <path d="M134.15 121.815l.345-.065.472-.128.408-.13.473-.192.386-.172.45-.236.388-.214.322-.15.3-.172.344-.236.43-.28.214-.192.365-.3.172-.172.278-.28.28-.3.235-.32.194-.26.107-.17.172-.28.17-.322.11-.322.085-.236.108-.45.086-.43.02-.45-.02-.41-.086-.407-.086-.28-.172-.43-.257-.43-.258-.343-.193-.257-.344-.322-.408-.28-.343-.192-.558-.236-.58-.15-.623-.022-.666.107-.664.236-.43.26-.43.343-.343.258-.515.344-.344.193-.343.043-.32-.086-.216-.193-.107-.192-.043-.322.086-.387.193-.323.257-.387.28-.43.17-.3.15-.43.087-.428.064-.344v-.43l-.085-.622-.172-.515-.17-.428-.173-.3-.258-.344-.365-.365-.408-.28-.602-.235-.5-.167-.643-.02-.53.08-.58.13-.408.15-.472.214-.58.344-.537.365-.536.494-.258.3-.28.344-.343.494-.278.472-.257.58-.258.687-.193.666-.13.535-.085.365-.087.58-.043.623v.536l.065.686.043.408.108.515.086.3.15.558.194.558.215.515.216.387.28.515.342.537.387.514.493.6.408.366.386.3.408.3.387.237.43.193.3.108.6.193.41.13.428.086.45.086.645.02h.515l.6-.02.836-.087zm23.117 14.724l-.408.128-.473.13-.344.063-.837.087-.6.022h-.516l-.644-.023-.45-.086-.43-.085-.408-.128-.6-.194-.302-.107-.43-.193-.386-.236-.408-.3-.386-.302-.408-.365-.494-.6-.387-.516-.343-.537-.28-.515-.214-.386-.215-.515-.193-.557-.15-.558-.086-.3-.108-.515-.043-.408-.065-.687v-.537l.043-.622.086-.58.085-.365.13-.536.192-.665.258-.688.257-.58.28-.47.343-.495.28-.343.257-.3.536-.495.537-.365.58-.344.473-.214.407-.15.58-.13.53-.08.645.022.5.166.6.236.408.28.365.364.258.344.173.3.17.43.173.515.086.623v.43l-.064.343-.086.428-.15.43-.172.3-.28.43-.256.387-.193.322-.085.386.043.322.107.193.215.194.322.086.343-.043.344-.193.514-.344.344-.258.43-.343.43-.258.664-.237.666-.107.623.02.58.152.558.236.343.193.41.28.343.32.193.26.258.342.257.43.173.428.086.28.085.407.02.408-.02.45-.086.43-.108.452-.086.236-.108.323-.17.322-.173.28-.107.17-.193.258-.236.322-.28.3-.28.28-.17.17-.366.302-.215.193-.43.28-.344.235-.3.172-.322.15-.387.215-.45.236-.86.36zm-52.823 14.218l.343-.064.473-.13.408-.128.472-.193.387-.17.45-.237.387-.215.322-.15.3-.17.344-.237.43-.28.214-.192.365-.3.17-.172.28-.28.278-.3.236-.32.193-.258.107-.172.172-.28.172-.32.107-.323.086-.236.108-.452.086-.43.022-.45-.022-.41-.085-.407-.087-.278-.172-.43-.257-.428-.257-.344-.193-.258-.343-.322-.408-.28-.344-.192-.558-.236-.58-.15-.623-.022-.665.107-.666.236-.43.258-.43.345-.342.257-.515.344-.344.193-.344.042-.322-.086-.215-.193-.107-.194-.043-.323.086-.386.194-.32.258-.387.28-.43.17-.3.15-.43.087-.43.064-.343v-.43l-.086-.622-.172-.515-.172-.43-.172-.3-.257-.343-.365-.365-.408-.28-.6-.235-.5-.166-.645-.02-.53.08-.58.128-.41.15-.47.215-.58.344-.538.366-.538.493-.257.3-.28.344-.342.493-.28.472-.257.58-.258.686-.193.665-.13.538-.085.365-.086.58-.043.622v.537l.066.687.043.406.106.515.086.3.15.56.194.557.214.515.215.387.28.514.343.537.386.516.494.6.408.366.387.3.407.302.387.236.43.193.3.107.6.194.41.128.43.086.45.086.644.022h.516l.6-.022.838-.086zm-38.107-27.002l.343-.064.473-.13.408-.128.473-.193.387-.17.45-.236.387-.215.322-.15.3-.173.343-.236.43-.278.214-.193.365-.302.17-.172.28-.28.28-.3.235-.32.193-.258.107-.172.172-.28.17-.32.108-.323.086-.236.107-.45.087-.43.022-.45-.023-.41-.085-.407-.086-.28-.172-.428-.258-.43-.258-.343-.193-.26-.343-.32-.408-.28-.344-.193-.558-.236-.58-.15-.623-.02-.666.106-.666.236-.43.258-.43.344-.342.257-.515.345-.342.193-.344.043-.322-.085-.215-.193-.107-.194-.043-.322.086-.386.193-.322.258-.386.28-.43.17-.3.15-.43.087-.43.066-.343v-.43l-.086-.623-.172-.515-.172-.43-.172-.3-.257-.343-.365-.366-.408-.28-.6-.235-.5-.167-.645-.02-.532.08-.578.127-.408.15-.472.215-.58.344-.537.364-.537.493-.257.3-.28.345-.343.493-.28.472-.257.58-.258.687-.193.665-.13.536-.086.365-.086.58-.043.623v.537l.065.687.043.407.107.515.086.3.15.557.194.558.214.515.215.387.278.515.344.537.386.514.494.6.408.366.387.3.407.302.387.236.43.193.3.108.602.194.407.128.43.086.45.086.644.022h.515l.6-.022.837-.086zm81.52 58.576l.345-.064.472-.13.408-.128.472-.193.387-.172.452-.236.387-.216.32-.15.302-.172.344-.236.43-.28.214-.192.365-.3.172-.173.28-.278.278-.3.236-.323.194-.258.108-.172.172-.28.17-.32.11-.323.085-.236.107-.45.086-.43.02-.45-.02-.41-.086-.407-.086-.28-.17-.428-.258-.43-.258-.343-.193-.258-.343-.322-.408-.28-.345-.192-.558-.236-.58-.15-.622-.022-.666.107-.666.235-.43.258-.43.344-.343.257-.514.344-.344.193-.343.044-.323-.086-.215-.193-.107-.194-.043-.32.086-.387.193-.322.258-.385.28-.43.17-.3.15-.43.087-.43.064-.343v-.43l-.087-.622-.172-.515-.17-.43-.172-.3-.258-.343-.365-.365-.408-.28-.6-.235-.5-.166-.644-.02-.53.08-.58.128-.41.15-.47.215-.58.343-.538.365-.536.493-.26.302-.278.344-.344.493-.28.47-.257.58-.256.688-.193.665-.128.537-.086.365-.086.58-.043.622v.537l.064.687.044.408.108.515.086.3.15.558.194.56.215.514.214.387.28.516.343.537.387.515.493.6.408.366.388.3.408.302.387.236.43.193.3.107.6.194.41.128.428.086.452.086.644.022h.515l.602-.022.836-.084zM58.063 169.05l.343-.065.473-.13.408-.128.472-.193.387-.17.45-.237.387-.215.322-.15.3-.172.344-.236.43-.28.214-.192.365-.3.17-.173.28-.28.28-.3.235-.322.193-.257.107-.17.172-.28.172-.322.107-.322.086-.236.106-.45.086-.43.022-.452-.022-.408-.085-.408-.086-.28-.17-.428-.26-.43-.257-.343-.193-.257-.343-.322-.408-.278-.345-.193-.558-.237-.58-.15-.623-.022-.665.108-.667.236-.43.258-.43.344-.342.257-.514.344-.343.193-.344.043-.323-.086-.215-.193-.107-.194-.043-.322.086-.386.193-.322.26-.386.278-.43.172-.3.15-.43.086-.43.065-.343v-.43l-.085-.62-.172-.516-.172-.43-.17-.3-.258-.343-.365-.364-.408-.28-.602-.235-.5-.165-.644-.02-.53.08-.58.128-.41.15-.47.215-.58.344-.538.365-.537.493-.258.3-.28.345-.342.493-.28.472-.257.58-.258.687-.193.665-.13.537-.085.364-.086.58-.042.622v.537l.065.687.043.407.107.515.086.3.15.558.193.558.214.515.215.387.28.515.343.537.386.515.495.6.408.366.387.3.407.302.387.236.43.194.3.107.6.195.408.128.43.086.45.085.645.022h.515l.6-.022.84-.086zm22.43 15.678l.342-.064.473-.13.408-.128.472-.193.387-.172.45-.235.387-.215.323-.15.3-.172.344-.236.43-.28.214-.192.366-.3.17-.173.28-.28.28-.3.235-.322.194-.257.107-.172.173-.28.172-.32.107-.323.086-.236.107-.45.086-.43.023-.452-.022-.408-.084-.408-.086-.28-.172-.43-.258-.428-.258-.344-.193-.258-.344-.322-.408-.28-.344-.192-.558-.236-.58-.15-.623-.022-.665.107-.666.236-.43.26-.43.343-.342.257-.515.344-.343.193-.344.043-.322-.086-.215-.193-.106-.193-.043-.322.087-.386.193-.323.258-.386.28-.43.17-.3.15-.43.087-.43.065-.342v-.43l-.086-.622-.172-.515-.172-.428-.172-.3-.257-.344-.364-.365-.408-.28-.6-.235-.5-.166-.645-.02-.53.08-.58.128-.41.15-.47.215-.58.344-.538.364-.537.493-.257.3-.278.345-.343.493-.28.472-.258.58-.258.687-.193.665-.128.536-.086.365-.086.58-.043.623v.537l.065.687.043.407.107.515.086.3.15.558.194.558.214.515.215.388.28.515.344.537.386.515.494.6.408.366.387.302.406.3.387.237.43.192.3.107.6.193.408.128.43.087.452.086.644.022h.515l.602-.022.84-.085z" fill="#EF3E33"/>
    <path d="M167.99 127.68L132.765 102.3l35.234-.003-.01 25.386zm-54.383 62.224h33.55L43.01 114.966v24.975l70.597 49.964zM97.4 102.39H64.683l103.316 74.218V151.62L97.4 102.39zM43 189.905l33.7-.04L43 164.752v25.152z" fill="#00539F"/>
  </g>
  <path opacity=".22" fill="#534741" d="M19.933 65.745h172.313v48.905H19.933z"/>
  <path fill="#CE3B39" d="M23.1 62.984h165.813v49.738H23.1z"/>
  <g fill="#FFF">
    <path d="M61.486 100.216c.55.3 1.8.65 3 .65 1.774 0 4.123-.2 4.123-2.1 0-1.45-2.4-2-4.5-2.45-2.65-.575-6.173-1.325-6.173-4.85 0-3.373 3.524-4.922 6.948-4.922 3.6 0 6.724 1.5 6.724 3.7 0 1.224-.826 2.2-2.1 2.2-1.35 0-2.025-.95-2.025-1.776 0-.4.1-.675.275-.9-.5-.274-1.45-.5-2.824-.5-2.05 0-3.7.726-3.7 2.126 0 1.35 2.2 1.85 4.325 2.3 2.675.574 6.35 1.624 6.35 5.123 0 2.925-2.65 4.725-7.198 4.725-3.324 0-7-1.35-7-3.774 0-1.4.976-2.225 2.15-2.225 1.4 0 1.95 1.024 1.95 1.774 0 .324-.15.7-.326.9zM88.134 89.143v-2.2h7v2.2l-1.876.45v13.547h-3.624l-7.124-9.673c-.425-.575-1.4-2.174-2.174-3.574.2 1.6.375 3.474.375 4.174v6.423l1.876.45v2.2h-7v-2.2l1.876-.45V89.593l-1.875-.45v-2.2h6.05l6.572 9.023c.46.624 1.374 2.2 2.1 3.6-.176-1.6-.3-3.45-.3-4.15v-5.823l-1.876-.45zM103.486 89.743v3.774h5.973v2.8h-5.974v4.023h6.95l.3-1.5h2.398l.25 4.3H98.262v-2.2l1.875-.45V89.593l-1.875-.45v-2.2h14.872l-.25 4.3h-2.4l-.3-1.5h-6.698zM122.11 89.743v3.774h5.975v2.8h-5.974v4.023h6.95l.3-1.5h2.4l.25 4.3h-15.123v-2.2l1.875-.45V89.593l-1.875-.45v-2.2h14.872l-.25 4.3h-2.4l-.3-1.5h-6.7zM149.634 100.49l2.374.45v2.2h-4.398l-5.25-7.225h-1.648v4.574l1.874.45v2.198h-7.098v-2.2l1.874-.45V89.594l-1.874-.45v-2.2h7.098v2.2l-1.874.45v3.674h1.524l3.374-4.224c1.524-1.9 2.75-2.5 3.824-2.5 1.425 0 2.65.976 2.65 2.325 0 1.075-.775 2.15-2.075 2.15-.7 0-1.3-.376-1.5-1-.2.074-.413.2-.9.85l-2.65 3.473 4.674 6.15z"/>
  </g>
  <g fill="#FFF">
    <path d="M65.428 78.833c-.09.078-1.3.87-3.237.87-2.885 0-4.614-1.74-4.614-4.328 0-2.47 1.898-4.46 4.654-4.46 1.885 0 3.393.807 3.393 1.912 0 .598-.377 1.04-.975 1.04s-.962-.403-.962-.858c0-.157.04-.3.104-.39-.208-.17-.767-.378-1.417-.378-2.275 0-3.263 1.52-3.263 3.133 0 1.742.95 3.03 3.185 3.03.806 0 1.43-.21 1.65-.3V76.57l-1.585-.208v-.988h3.562v.988l-.494.182v2.29zM70.445 72.41v2.184h3.276v1.287h-3.275v2.328h3.783l.143-.87h1.132l.117 2.157h-7.697v-.988l1.04-.208V72.33l-1.04-.208v-1h7.58l-.117 2.21h-1.13l-.144-.924h-3.667zM85.942 71.124h2.73v1l-1.04.21V78.3l1.04.208v.988H85.15v-.988l1.04-.208v-3.575c0-.377.064-1.417.142-2.327-.364.806-.845 1.755-1.04 2.093l-1.586 2.73H82.34l-1.533-2.716c-.182-.325-.65-1.3-1.014-2.158.065.936.117 2.015.117 2.392V78.3l1.04.208v.988h-3.484v-.988l1.04-.208v-5.967l-1.04-.208v-1h2.964l2.665 4.705 2.847-4.706zM97.07 77.194h-4.186l-.52 1.144.975.17v.987H89.97v-.988l.95-.208 3.457-7.203h1.3l3.496 7.202.975.207v.988H96.63v-.988l.988-.17-.546-1.143zM93.443 76h3.042l-1.092-2.367c-.17-.364-.364-.845-.442-1.08-.077.235-.272.716-.428 1.067L93.442 76zM108.224 77.194h-4.186l-.52 1.144.975.17v.987h-3.367v-.988l.95-.208 3.457-7.203h1.3l3.497 7.202.975.207v.988h-3.522v-.988l.988-.17-.546-1.143zM104.597 76h3.042l-1.093-2.367c-.17-.364-.364-.845-.442-1.08-.078.235-.273.716-.43 1.067L104.598 76zM119.883 78.3l1.105.207v.988h-1.976l-3.056-3.783h-.87V78.3l1.04.207v.988h-3.563v-.988l1.04-.208V72.33l-1.04-.208v-1h3.562v1l-1.04.208v2.106h.793l1.86-2.262c.824-1 1.39-1.26 1.962-1.26.663 0 1.248.428 1.248 1.117 0 .442-.272.988-.923.988-.364 0-.715-.272-.715-.662-.13.04-.273.17-.533.507l-1.6 2.106 2.706 3.33zM127.475 72.41v5.89l1.04.207v.988h-3.562v-.988l1.04-.208v-5.89h-2.04l-.145 1h-1.144l-.117-2.287h8.372l-.118 2.288h-1.144l-.144-1h-2.04zM139.8 78.3l1.118.207v.988H137.2v-.988l1.118-.208V72.33l-1.118-.208v-1h3.72v1l-1.12.208V78.3zM149.302 72.125v-1h3.51v1l-1.04.208v7.163h-1.61l-4.11-5.434c-.233-.312-.675-1.027-.987-1.612.078.676.144 1.52.144 1.898V78.3l1.04.208v.988h-3.512v-.988l1.04-.208v-5.967l-1.04-.208v-1h2.834l3.913 5.212c.222.3.677 1.027 1 1.612-.076-.664-.142-1.522-.142-1.9v-3.717l-1.04-.208z"/>
  </g>
  <g fill="#4D4D4D">
    <path d="M45.468 152.98l1.903 1.647-.603.698-.85-.482-3.6 4.16.6.772-.597.688-2.457-2.125.596-.69.85.483 2.157-2.49c.228-.264.9-.95 1.504-1.537-.74.343-1.647.714-1.987.832l-2.753.946-.952-.822.57-2.82c.068-.336.33-1.298.594-2.116-.52.692-1.134 1.476-1.36 1.738l-2.15 2.483.6.772-.596.69-2.43-2.104.597-.687.85.482 3.6-4.16-.6-.772.605-.698 2.066 1.788-.98 4.89 4.824-1.563zM49.366 157.43l-1.16 1.65 2.477 1.74-.683.972-2.476-1.738-1.235 1.76 2.86 2.006.57-.582.854.6-1.056 1.693-5.817-4.082.525-.746.896.395 3.167-4.51-.676-.71.532-.757 5.73 4.02-1.262 1.61-.855-.602.38-.773-2.77-1.945zM57.897 162.93l-2.737 4.7.733.65-.46.787-2.842-1.655.46-.79.927.318 2.737-4.7-1.63-.948-.578.732-.913-.532.97-1.88 6.683 3.89-1.157 1.773-.914-.532.35-.865-1.63-.95zM64.822 172.41l2.765 1.19.476-.775.958.41-.723 1.96-6.08-2.61.358-.837.957.202 2.17-5.057-.805-.555.364-.85 3.02 1.297-.364.85-.957-.203-2.138 4.98zM72.186 175.387l.91.527-.307.86-3.24-1.15.307-.86 1.038.164 1.85-5.197-.91-.526.31-.87 3.238 1.15-.31.872-1.038-.165-1.85 5.197zM78.238 171.622l-.55 1.942 2.916.823-.323 1.145-2.914-.822-.584 2.07 3.366.95.346-.74 1.006.285-.438 1.95-6.847-1.934.25-.878.977.076 1.5-5.31-.874-.446.25-.89 6.744 1.903-.66 1.937-1.005-.284.104-.856-3.262-.92zM86.17 173.61l-.433 2.227 3.098.603-.227 1.166-3.098-.603-.378 1.944 1.224.433-.174.896-3.545-.688.174-.896.98-.006 1.05-5.406-.906-.372.177-.908 6.68 1.298-.518 2.1-1.024-.198.056-.98-3.134-.61zM90.946 180.223l.974-.094.56-5.478-.934-.29.094-.918 3.437.352c3.186.326 4.345 1.844 4.087 4.36-.257 2.52-2.225 3.596-4.766 3.336l-3.544-.363.092-.907zm3.644.095c1.98.203 3.01-.777 3.166-2.305.19-1.85-.474-2.797-2.776-3.032l-1.146-.116-.544 5.32 1.3.134zM102.828 175.518l-.03 2.015 3.02.047-.017 1.187-3.02-.046-.034 2.147 3.49.054.144-.8 1.043.016.078 1.992-7.1-.108.015-.91.962-.18.084-5.504-.956-.207.014-.924 6.992.106-.14 2.037-1.042-.017-.12-.854-3.38-.052zM114.86 175.103l.22 2.005 3.008-.33.13 1.18-3.007.332.236 2.136 3.472-.382.044-.814 1.038-.113.325 1.97-7.064.775-.1-.906.935-.296-.603-5.478-.976-.086-.1-.92 6.955-.764.117 2.04-1.038.114-.226-.833-3.364.37zM126.565 172.975l-.188-.904 3.172-.658.187.904-.9.384 1.345 6.474-1.457.303-4.733-4.14c-.27-.238-.804-.802-1.195-1.27.197.596.415 1.347.485 1.687l.742 3.572.98-.008.185.894-3.174.658-.186-.893.9-.383-1.12-5.394-.98.008-.187-.905 2.562-.532 4.516 3.978c.257.23.805.802 1.208 1.27-.194-.585-.415-1.348-.485-1.688l-.698-3.36-.98.005zM139.69 175.283l.307.858-3.398 1.213-.308-.857.84-.503-1.85-5.184-.968.14-.31-.868 3.658-1.305c1.94-.693 3.377-.416 3.953 1.198.56 1.57-.39 2.762-2.32 3.45l-1.445.516.567 1.593 1.274-.25zm-.602-3.044c1.23-.44 1.47-1.124 1.23-1.8-.255-.713-.88-1.037-2.088-.606l-1.637.585.857 2.403 1.638-.584zM148.704 170.233l-3.52 1.602.002 1.16.884-.23.38.83-2.83 1.288-.38-.83.72-.538.15-7.376 1.092-.498 5.694 4.714.9-.198.377.83-2.96 1.35-.38-.83.767-.522-.896-.753zm-3.506.382l2.557-1.164-1.823-1.57c-.28-.24-.63-.57-.784-.737.023.227.044.705.047 1.06l.003 2.412zM153.974 168.354c.278.076.938-.05 1.502-.372.637-.363 1.83-1.085 1.33-1.962-.44-.772-1.424-.46-2.52-.1-1.384.458-2.942.974-3.8-.53-.726-1.272.302-2.743 1.71-3.547 1.452-.827 3.15-.952 3.663-.055.278.49.146 1.036-.333 1.31-.502.285-.938.078-1.122-.245-.102-.178-.104-.328-.085-.464-.27-.013-.845.094-1.492.463-.897.512-1.496 1.28-1.168 1.855.375.657 1.296.38 2.348.044 1.418-.45 3.08-.98 3.96.563.726 1.273.09 2.535-1.842 3.637-1.283.73-3.167 1.018-3.71.067-.297-.522-.077-1.035.33-1.268.49-.28.945-.04 1.11.252.092.157.112.242.118.35zM161.106 164.062c.283.054.932-.127 1.467-.492.605-.414 1.735-1.23 1.166-2.063-.502-.734-1.457-.344-2.52.105-1.342.567-2.853 1.208-3.83-.22-.825-1.21.08-2.76 1.42-3.675 1.377-.94 3.06-1.204 3.643-.35.318.465.23 1.02-.225 1.33-.476.325-.928.154-1.138-.153-.115-.17-.13-.318-.122-.455-.27.01-.834.162-1.45.582-.852.582-1.386 1.398-1.013 1.943.427.625 1.322.275 2.344-.146 1.375-.563 2.986-1.228 3.99.24.825 1.21.294 2.52-1.54 3.772-1.22.833-3.075 1.27-3.69.368-.34-.496-.162-1.024.225-1.288.466-.318.938-.117 1.128.16.1.15.128.233.143.34zM168.483 159.064l.932-.483.56.72-2.704 2.112-.56-.72.694-.786-3.39-4.342-.932.483-.568-.73 2.705-2.11.567.728-.695.787 3.39 4.342zM168.55 151.945l1.344 1.502 2.254-2.015.79.885-2.252 2.015 1.432 1.6 2.602-2.325-.438-.688.778-.696 1.407 1.412-5.293 4.733-.607-.68.587-.783-3.67-4.104-.844.496-.615-.69 5.213-4.66 1.28 1.592-.78.696-.665-.547-2.522 2.255z"/>
  </g>
</svg>
