<?xml version="1.0" encoding="utf-8"?>
<!-- Generator: Adobe Illustrator 18.1.1, SVG Export Plug-In . SVG Version: 6.00 Build 0)  -->
<!DOCTYPE svg PUBLIC "-//W3C//DTD SVG 1.1//EN" "http://www.w3.org/Graphics/SVG/1.1/DTD/svg11.dtd">
<svg version="1.1" id="Layer_1" xmlns="http://www.w3.org/2000/svg" xmlns:xlink="http://www.w3.org/1999/xlink" x="0px" y="0px"
	 width="206.11px" height="80px" viewBox="0 0 206.11 80" enable-background="new 0 0 206.11 80" xml:space="preserve">
<path fill="#2D7BC8" d="M124.97,77.91V18.77h-16.81v59.14H124.97z M107.79,13.48V0.64h17.22v12.83H107.79 M44.37,18.9
	c-2.24-0.83-4.82-1.22-7.8-1.09c-9.91-0.44-15.42,4.85-18.83,13v-11.9H1v59.04h16.74V56.14c0-13.42,6.2-20.14,16.38-20.76
	C36.12,28.41,39.75,22.89,44.37,18.9 M203.68,31.52c-8.61,0.25-19.02-6.51-23.05-9.05c-0.37-0.24-0.45-0.45-0.84-0.65
	c-0.42-0.24-0.86-0.45-1.29-0.67v24.87h-0.01c0.02,2.23-0.95,4.57-2.34,6.83l-0.12,0.2c-4.03,6.51-12.5,10.31-20.45,7.62
	c-7.72-2.61-9.78-10.08-5.69-16.69l0.12-0.2c4.02-6.51,12.5-10.31,20.44-7.62c0.61,0.21,1.18,0.45,1.72,0.72V18.88
	c-2.84-0.77-5.86-1.21-9.04-1.21c-18.39,0-32.05,13.77-32.05,30.73v0.22c0,16.96,13.55,30.51,31.83,30.51
	c18.39,0,32.05-13.77,32.05-30.73v-0.22c0-1.32-0.09-2.62-0.25-3.89C204.28,41.79,208.24,31.87,203.68,31.52 M190.51,73.07h-1.92
	v-1.05h4.84v1.05h-1.68v4.63h-1.24V73.07 M194.28,72.02H196l1.36,3.98h0.02l1.29-3.98h1.73v5.68h-1.25v-4.01h-0.02l-1.3,4.01h-0.98
	l-1.29-3.97h-0.02v3.97h-1.25L194.28,72.02 M56.8,43.66l-0.12,0.2c-4.09,6.61-2.03,14.08,5.69,16.69
	c7.95,2.68,16.42-1.11,20.45-7.62l0.12-0.2c4.09-6.61,2.02-14.09-5.69-16.69C69.3,33.35,60.82,37.15,56.8,43.66L56.8,43.66z
	 M83.96,77.91v-8.59c-4.07,5.51-9.69,9.58-18.39,9.58C51.8,78.91,38.7,68.12,38.7,48.4v-0.22c0-19.72,12.89-30.51,26.87-30.51
	c8.92,0,14.43,4.07,18.39,8.81V0.64h16.83v77.27H83.96"/>
</svg>
