<?xml version="1.0" encoding="utf-8"?>
<!-- Generator: Adobe Illustrator 18.1.1, SVG Export Plug-In . SVG Version: 6.00 Build 0)  -->
<!DOCTYPE svg PUBLIC "-//W3C//DTD SVG 1.1//EN" "http://www.w3.org/Graphics/SVG/1.1/DTD/svg11.dtd">
<svg version="1.1" id="Layer_1" xmlns="http://www.w3.org/2000/svg" xmlns:xlink="http://www.w3.org/1999/xlink" x="0px" y="0px"
	 width="466.26px" height="80px" viewBox="0 0 466.26 80" enable-background="new 0 0 466.26 80" xml:space="preserve">
<path d="M82.33,4.19h8.92v23.6h-8.92c-4.44-14.63-26.55-16.82-40.41-16.82c-12.12,0-21.18,3.19-21.18,9.34
	c0,7.12,17.05,7.32,30.84,9.18c17.75,2.4,43.65,1.99,43.65,25.2c0,18.31-24.32,24.53-39.56,24.56c-27.27,0.06-35.73-7.8-41.97-7.8
	c-1.73,0-2.62,1.67-2.62,5.02H2.16V50h8.92c3.35,15.96,27.89,19.44,38.23,19.44c7.33,0,26.19-1.44,26.19-10.15
	c0-8.26-12.1-7.83-26.81-9.93c-16.12-2.3-47.9-2.81-47.9-24.24C0.8,8.58,19.33,0.67,40.12,0.67c24.15,0,36.09,7.84,39.67,7.84
	C81.48,8.51,82.33,6.96,82.33,4.19z"/>
<path d="M166.01,0.67c-32.7,0-54.36,16.83-54.36,39.3s21.66,39.3,54.36,39.3s54.36-16.83,54.36-39.3S198.72,0.67,166.01,0.67z
	 M166.01,11.14c18.75,0,31.17,12.34,31.17,28.82c0,16.47-12.42,28.82-31.17,28.82c-18.76,0-31.17-12.35-31.17-28.82
	C134.84,23.49,147.26,11.14,166.01,11.14z"/>
<path d="M329.9,74.9h-14.38l-57.39-49.1v36.51c0,2.45,1.23,3.67,3.67,3.67h10.49v8.92h-42.92v-8.92h10.49
	c2.45,0,3.67-1.22,3.67-3.67v-44.7c0-2.45-1.23-3.67-3.67-3.67h-10.49V5.02h35.99l49.95,42.7V17.61c0-2.45-1.22-3.67-3.67-3.67
	h-10.49V5.02h42.92v8.92h-10.49c-2.45,0-3.67,1.23-3.67,3.67V74.9L329.9,74.9z"/>
<path d="M423.09,5.02h42.17v8.92h-8.28c-3.51,0-6.44,1.23-8.8,3.67l-28.24,30.11v14.59c0,2.45,1.22,3.67,3.67,3.67h10.49v8.92
	h-50.89v-8.92h10.49c2.45,0,3.67-1.22,3.67-3.67V48.67l-28.96-31.06c-2.38-2.45-5.32-3.67-8.81-3.67h-8.29V5.02h51.83v8.92h-5.14
	c-1.26,0-2.06,0.44-2.42,1.31c-0.35,0.87-0.21,1.66,0.42,2.36l17.1,18.26l17.1-18.26c0.63-0.7,0.77-1.49,0.42-2.36
	c-0.35-0.87-1.15-1.31-2.41-1.31h-5.14C423.09,13.94,423.09,5.02,423.09,5.02z"/>
</svg>
