<svg version="1" xmlns="http://www.w3.org/2000/svg" width="682.667" height="682.667" viewBox="0 0 512.000000 512.000000"><path d="M227.8.5c-.2.2-5.2.6-11.3.9-6 .4-12.8.9-15 1.1-2.2.2-8.5.9-14 1.5-51.1 5.6-101.3 19.7-141 39.6-8.3 4.2-10.4 6-10.5 8.8-.5 13.3-.8 289.7-.4 291.3.9 3.5 4.8 2.9 14.4-2.3 11.4-6.1 37.8-21.9 41.3-24.7l2.9-2.2.4-20.5c.3-11.3.6-61.5.8-111.5.2-71.3.6-91.6 1.6-93.7 1.3-2.7 4.5-4.2 18.5-8.7 12.7-4.1 45-11.6 59-13.6 15.3-2.2 20.5-2.8 35.5-4 4.7-.4 10.8-.9 13.5-1.1 5.9-.5 58.2-.5 64 0 2.2.2 8.9.6 14.8 1 6 .4 11.6.9 12.5 1 1 .2 4.4.7 7.7 1 24.3 2.7 43.1 6.3 62.5 11.7 16.6 4.7 26.9 8.9 28.8 11.7 1.7 2.6 1.8 6 2.5 71.2.4 32.1.8 35.7 4.7 34.7 2.2-.6 25.4-13.8 35.5-20.3 3.9-2.4 8.6-5.3 10.5-6.3 5.8-3.2 8-6.2 8.6-12.2.9-8 .9-89.3 0-97.3-1.1-9.9-3.4-11.9-22.1-19.9-16.2-7-32.6-12.9-47-17.2-9.3-2.7-30.7-8.1-36-9-1.6-.2-4.1-.7-5.5-1-8.2-1.8-18.3-3.5-23.4-4-3.3-.4-6.2-.8-6.5-1-.5-.3-3.6-.7-15.1-2-1.9-.2-6.6-.7-10.5-1-3.8-.4-9.2-.8-12-1.1C292 .9 228.3.1 227.8.5z"/><path d="M137.9 117.7c-1.4 3.6-1.9 28.9-2.3 123.8-.3 42.3-.6 77.9-.9 79-.3 1.6-9.4 8.2-17.7 12.8-3.7 2.1-23.5 13.8-31.4 18.5-3.7 2.3-7 4.2-7.2 4.2-.6 0-20.6 12.1-28.9 17.5-9.3 6-10.9 7.7-10.1 10.3.4 1.2 12.5 9.1 31.4 20.3 16.9 10.1 31.7 18.9 32.9 19.5 1.1.7 9.2 5.4 18 10.7 8.7 5.2 26.2 15.5 38.8 22.9 12.7 7.4 26.1 15.3 29.9 17.6 3.7 2.3 7 4.2 7.2 4.2.3 0 2.1 1.1 4.2 2.3 3.9 2.5 27.7 16.3 35.2 20.5 2.5 1.4 6.1 3.5 8 4.7 1.9 1.1 5.2 2.9 7.3 3.9l3.7 1.7 8.7-4.7c4.7-2.5 10.9-6 13.7-7.7 2.8-1.6 6.5-3.8 8.3-4.8 9.3-5.2 68.6-39.8 94.3-54.9 16.2-9.5 31.1-18.3 33.1-19.4 12.8-7.3 57.5-34.5 59.6-36.2l2.7-2.1-.3-55.4c-.1-30.5-.3-71.9-.4-92.2-.2-39.1 0-37.3-4.7-36.8-2.3.3-26 13.4-51 28.1-12.4 7.3-37.8 22.3-56.5 33.3-34.1 20-39.9 23.7-44.4 27.6l-2.4 2.1.2 22.7c.4 34.8.9 41.3 3.5 41.3 3 0 15.4-6.8 57.1-31.2 23.2-13.6 35.5-20.2 36.2-19.5 1.1 1.1 1.8 13.2 1.8 29.6v16.5L403 356c-10.8 6.5-43.4 25.8-52.5 31-8.2 4.7-50.2 29.1-51.5 30-.8.5-4.2 2.4-7.5 4.3-6.7 3.8-8.6 4.9-23.8 13.5-6 3.4-11.4 6.2-12 6.2-1.4 0-4.2-1.6-29.7-16.3-15.7-9-52.4-31.2-61.3-37.1l-7.8-5.1 3.4-3c1.9-1.7 9.4-6.6 16.6-11 7.3-4.4 14.4-9.1 15.9-10.5l2.8-2.5.3-28c.1-15.4.3-45.1.5-66 .1-21.5.6-38.7 1.2-39.7.8-1.5 1.5-1.4 7.4 1.4 3.6 1.7 14.2 7.5 23.5 12.8 19.4 11 23.5 12.8 28.8 12.5 4-.3 13.9-4.8 24.2-11 16.2-9.9 27.1-15.5 30.1-15.5s3.2 1.1 3.7 16.3c.4 13.2 1.4 15.3 6.1 14.1 5.6-1.4 53.3-30 53.7-32.2 1-5.7 2.5-81.8 2-101-.1-3.5-.4-4.2-2.1-4.2-4.3 0-18.6 7.6-61.5 32.7-54.1 31.7-55.1 32.3-56.8 32.3-2 0-13.1-6-39.2-21.2-13.2-7.8-26-15.2-28.5-16.6-2.4-1.4-8.4-4.9-13.3-7.8-4.9-3-9.1-5.4-9.3-5.4-.1 0-5.7-3.2-12.3-7-6.6-3.9-12.7-7-13.5-7-.9 0-2.1 1.2-2.7 2.7z"/></svg>