<svg xmlns="http://www.w3.org/2000/svg" viewBox="0 0 124.821 76.785"><path d="M31.161 36.16a2.037 2.037 0 0 1-.536-1.071 8.008 8.008 0 0 1-.179-1.607V7.946l-5.178.893v25.625a10.257 10.257 0 0 0 .357 2.946 4.285 4.285 0 0 0 1.25 2.143 5.3 5.3 0 0 0 2.411 1.339 18.828 18.828 0 0 0 3.839.536l.714-4.286a6.977 6.977 0 0 1-1.7-.357 3.687 3.687 0 0 1-.982-.625m10.896 0a2.037 2.037 0 0 1-.536-1.071 8.009 8.009 0 0 1-.179-1.607V7.946l-5.178.893v25.625a10.257 10.257 0 0 0 .357 2.946 4.285 4.285 0 0 0 1.25 2.143 5.3 5.3 0 0 0 2.411 1.339 18.828 18.828 0 0 0 3.839.536l.714-4.286a6.977 6.977 0 0 1-1.7-.357 3.687 3.687 0 0 1-.982-.625m5.272-17.41H52.5v22.232h-5.179zm2.5-9.732a2.961 2.961 0 0 0-2.232.893 2.9 2.9 0 0 0-.893 2.321 3.029 3.029 0 0 0 .893 2.321 3.339 3.339 0 0 0 2.232.893 2.961 2.961 0 0 0 2.232-.893 2.9 2.9 0 0 0 .893-2.321 3.234 3.234 0 0 0-.893-2.321 2.961 2.961 0 0 0-2.232-.893m24.107 12.053a6.51 6.51 0 0 0-2.946-2.054 11.621 11.621 0 0 0-4.554-.714 31.871 31.871 0 0 0-5.268.357c-1.607.268-2.857.536-3.839.8v21.521H62.5V23.035c.357-.089.893-.089 1.607-.179a16.5 16.5 0 0 1 2.054-.089 5.58 5.58 0 0 1 2.232.357 3.067 3.067 0 0 1 1.428 1.161 6.168 6.168 0 0 1 .8 2.054 14.729 14.729 0 0 1 .268 3.036v11.7h5v-12.5a19.29 19.29 0 0 0-.446-4.107 7.443 7.443 0 0 0-1.518-3.393m21.164-2.415a28.885 28.885 0 0 0-4.911-.357 13.5 13.5 0 0 0-4.732.8 9.9 9.9 0 0 0-3.571 2.321 10.1 10.1 0 0 0-2.236 3.665 13.652 13.652 0 0 0-.8 4.821 15.972 15.972 0 0 0 .625 4.732 10.893 10.893 0 0 0 1.875 3.661 8.625 8.625 0 0 0 3.036 2.321 10.348 10.348 0 0 0 4.2.8 9.638 9.638 0 0 0 2.857-.357 10.55 10.55 0 0 0 2.232-.893v8.661l5.179-.893V19.374c-.982-.179-2.232-.446-3.75-.714m-1.339 17.053a6.655 6.655 0 0 1-1.786.893 6.817 6.817 0 0 1-2.411.446 4.673 4.673 0 0 1-4.107-1.875 8.9 8.9 0 0 1-1.343-5.174 8.328 8.328 0 0 1 1.607-5.357 5.671 5.671 0 0 1 4.464-1.964 14.527 14.527 0 0 1 2.143.089q.8.134 1.339.268v12.675zm-73.04.447a2.037 2.037 0 0 1-.536-1.071c-.089-.357-.089-.714-.179-1.161V19.464q-1.473-.4-3.75-.8a28.885 28.885 0 0 0-4.911-.357 13.15 13.15 0 0 0-4.732.8 9.9 9.9 0 0 0-3.571 2.321A10.1 10.1 0 0 0 .8 25.089 13.652 13.652 0 0 0 0 29.91a15.972 15.972 0 0 0 .625 4.732A10.893 10.893 0 0 0 2.5 38.303a8.624 8.624 0 0 0 3.036 2.321 10.348 10.348 0 0 0 4.2.8 9.638 9.638 0 0 0 2.857-.357 10.55 10.55 0 0 0 2.232-.893l1.518-.714.089.089a5.3 5.3 0 0 0 2.411 1.339 18.828 18.828 0 0 0 3.839.536l.714-4.286a6.977 6.977 0 0 1-1.7-.357 3.687 3.687 0 0 1-.982-.625m-7.589.446a6.817 6.817 0 0 1-2.411.446 4.673 4.673 0 0 1-4.107-1.875 8.9 8.9 0 0 1-1.339-5.17 8.328 8.328 0 0 1 1.607-5.357 5.671 5.671 0 0 1 4.464-1.964 14.527 14.527 0 0 1 2.143.089q.8.134 1.339.268v12.675a4.982 4.982 0 0 1-1.7.893"/><path d="M124.731 6.429A6.429 6.429 0 1 1 118.303 0a6.4 6.4 0 0 1 6.429 6.429m-.001 15.982a6.429 6.429 0 1 1-6.429-6.429 6.4 6.4 0 0 1 6.429 6.429m.089 15.982a6.429 6.429 0 1 1-6.429-6.429 6.4 6.4 0 0 1 6.429 6.429m0 15.982a6.429 6.429 0 1 1-6.429-6.429 6.4 6.4 0 0 1 6.429 6.429m0 15.982a6.429 6.429 0 1 1-6.429-6.429 6.518 6.518 0 0 1 6.429 6.429" fill="#008bd2"/><path d="M31.161 36.16a2.037 2.037 0 0 1-.536-1.071 8.008 8.008 0 0 1-.179-1.607V7.946l-5.178.893v25.625a10.257 10.257 0 0 0 .357 2.946 4.285 4.285 0 0 0 1.25 2.143 5.3 5.3 0 0 0 2.411 1.339 18.828 18.828 0 0 0 3.839.536l.714-4.286a6.977 6.977 0 0 1-1.7-.357 3.687 3.687 0 0 1-.982-.625m10.896 0a2.037 2.037 0 0 1-.536-1.071 8.009 8.009 0 0 1-.179-1.607V7.946l-5.178.893v25.625a10.257 10.257 0 0 0 .357 2.946 4.285 4.285 0 0 0 1.25 2.143 5.3 5.3 0 0 0 2.411 1.339 18.828 18.828 0 0 0 3.839.536l.714-4.286a6.977 6.977 0 0 1-1.7-.357 3.687 3.687 0 0 1-.982-.625m5.272-17.41H52.5v22.232h-5.179zm2.5-9.732a2.961 2.961 0 0 0-2.232.893 2.9 2.9 0 0 0-.893 2.321 3.029 3.029 0 0 0 .893 2.321 3.339 3.339 0 0 0 2.232.893 2.961 2.961 0 0 0 2.232-.893 2.9 2.9 0 0 0 .893-2.321 3.234 3.234 0 0 0-.893-2.321 2.961 2.961 0 0 0-2.232-.893m24.107 12.053a6.51 6.51 0 0 0-2.946-2.054 11.621 11.621 0 0 0-4.554-.714 31.871 31.871 0 0 0-5.268.357c-1.607.268-2.857.536-3.839.8v21.521H62.5V23.035c.357-.089.893-.089 1.607-.179a16.5 16.5 0 0 1 2.054-.089 5.58 5.58 0 0 1 2.232.357 3.067 3.067 0 0 1 1.428 1.161 6.168 6.168 0 0 1 .8 2.054 14.729 14.729 0 0 1 .268 3.036v11.7h5v-12.5a19.29 19.29 0 0 0-.446-4.107 7.443 7.443 0 0 0-1.518-3.393m21.164-2.415a28.885 28.885 0 0 0-4.911-.357 13.5 13.5 0 0 0-4.732.8 9.9 9.9 0 0 0-3.571 2.321 10.1 10.1 0 0 0-2.236 3.665 13.652 13.652 0 0 0-.8 4.821 15.972 15.972 0 0 0 .625 4.732 10.893 10.893 0 0 0 1.875 3.661 8.625 8.625 0 0 0 3.036 2.321 10.348 10.348 0 0 0 4.2.8 9.638 9.638 0 0 0 2.857-.357 10.55 10.55 0 0 0 2.232-.893v8.661l5.179-.893V19.374c-.982-.179-2.232-.446-3.75-.714m-1.339 17.053a6.655 6.655 0 0 1-1.786.893 6.817 6.817 0 0 1-2.411.446 4.673 4.673 0 0 1-4.107-1.875 8.9 8.9 0 0 1-1.343-5.174 8.328 8.328 0 0 1 1.607-5.357 5.671 5.671 0 0 1 4.464-1.964 14.527 14.527 0 0 1 2.143.089q.8.134 1.339.268v12.675zm-73.04.447a2.037 2.037 0 0 1-.536-1.071c-.089-.357-.089-.714-.179-1.161V19.464q-1.473-.4-3.75-.8a28.885 28.885 0 0 0-4.911-.357 13.15 13.15 0 0 0-4.732.8 9.9 9.9 0 0 0-3.571 2.321A10.1 10.1 0 0 0 .8 25.089 13.652 13.652 0 0 0 0 29.91a15.972 15.972 0 0 0 .625 4.732A10.893 10.893 0 0 0 2.5 38.303a8.624 8.624 0 0 0 3.036 2.321 10.348 10.348 0 0 0 4.2.8 9.638 9.638 0 0 0 2.857-.357 10.55 10.55 0 0 0 2.232-.893l1.518-.714.089.089a5.3 5.3 0 0 0 2.411 1.339 18.828 18.828 0 0 0 3.839.536l.714-4.286a6.977 6.977 0 0 1-1.7-.357 3.687 3.687 0 0 1-.982-.625m-7.589.446a6.817 6.817 0 0 1-2.411.446 4.673 4.673 0 0 1-4.107-1.875 8.9 8.9 0 0 1-1.339-5.17 8.328 8.328 0 0 1 1.607-5.357 5.671 5.671 0 0 1 4.464-1.964 14.527 14.527 0 0 1 2.143.089q.8.134 1.339.268v12.675a4.982 4.982 0 0 1-1.7.893"/><path d="M124.731 6.429A6.429 6.429 0 1 1 118.303 0a6.4 6.4 0 0 1 6.429 6.429m-.001 15.982a6.429 6.429 0 1 1-6.429-6.429 6.4 6.4 0 0 1 6.429 6.429m.089 15.982a6.429 6.429 0 1 1-6.429-6.429 6.4 6.4 0 0 1 6.429 6.429m0 15.982a6.429 6.429 0 1 1-6.429-6.429 6.4 6.4 0 0 1 6.429 6.429m0 15.982a6.429 6.429 0 1 1-6.429-6.429 6.518 6.518 0 0 1 6.429 6.429" fill="#008bd2"/></svg>