<?xml version="1.0" encoding="utf-8"?>
<!-- Generator: Adobe Illustrator 26.0.1, SVG Export Plug-In . SVG Version: 6.00 Build 0)  -->
<svg version="1.1" id="Layer_1" xmlns="http://www.w3.org/2000/svg" xmlns:xlink="http://www.w3.org/1999/xlink" x="0px" y="0px"
	 viewBox="0 0 1000 242.4" style="enable-background:new 0 0 1000 242.4;" xml:space="preserve">
<style type="text/css">
	.st0{fill:#E5007D;}
</style>
<g>
	<path class="st0" d="M966.2,85.1c-19.4,0-33.2,10.6-33.2,28c0,16.7,10.7,22.5,19,25.7l15.7,6.1c6.3,2.5,13.1,6.1,13.1,12.1
		c0,6.5-6,11.1-15.5,11.1c-8.4,0-14.2-2.3-18.6-3.8c-1.7-0.6-3.5-1.2-4.8-1.2c-5.4,0-8.8,3.6-8.8,9c0,3.8,2.1,6.5,5.4,8.1
		c6.5,3.3,16.5,6,27.8,6c22.1,0,33.8-13.1,33.8-29.4c0-14-7.3-21.7-19.8-26.3l-16.9-6.3c-4.4-1.7-11.1-4.4-11.1-10.9
		c0-6.3,6.1-10.2,14.4-10.2c7.1,0,11.5,1.7,16.5,3.5c1.7,0.6,3.6,1.2,5.6,1.2c4.6,0,8.8-3.5,8.8-9c0-3.5-1.9-6.3-5.2-8.1
		C985.6,87.4,975.4,85.1,966.2,85.1 M899.8,85.1c-5.6,0-9.8,4-9.8,9.8v70.6c-6.1,1.5-12.3,2.7-18.8,2.7c-12.7,0-19-6.7-19-19V94.9
		c0-5.8-4.2-9.8-10-9.8c-5.6,0-9.8,4-9.8,9.8v53.6c0,25,13.1,37.8,38.8,37.8c10.6,0,20.5-1.9,29.9-5c5.4-1.7,8.6-6,8.6-11.1V94.9
		C909.8,89.1,905.6,85.1,899.8,85.1 M796,47.8c-6.3,0-11.5,5.2-11.5,11.5c0,6.5,5.2,11.7,11.5,11.7c6.3,0,11.5-5.2,11.5-11.7
		C807.5,53,802.3,47.8,796,47.8 M796,85.1c-5.8,0-10,4-10,9.8v81.6c0,5.8,4.2,9.8,10,9.8c5.8,0,9.8-4,9.8-9.8V94.9
		C805.7,89.1,801.7,85.1,796,85.1 M720.5,85.1c-10.6,0-20.5,1.9-29.9,5c-5.6,1.7-8.6,6-8.6,11.3v75.1c0,5.8,4.2,9.8,10,9.8
		c5.6,0,9.8-4,9.8-9.8V106c6-1.7,12.3-2.7,18.8-2.7c12.5,0,19,6.7,19,18.8v54.3c0,5.8,4.2,9.8,10,9.8c5.6,0,9.8-4,9.8-9.8v-53.6
		C759.3,98.1,746.2,85.1,720.5,85.1 M617.6,103.3c12.9,0,20.5,7.3,20.5,20.7v23.2c0,13.6-7.7,20.9-20.5,20.9
		c-12.9,0-20.7-7.3-20.7-20.9v-23.2C596.9,110.6,604.8,103.3,617.6,103.3 M617.6,85.1c-25.3,0-40.5,14.4-40.5,40.1v20.9
		c0,25.9,15.5,40.1,40.5,40.1c25.7,0,40.3-15,40.3-40.1v-20.9C657.9,99.9,643.2,85.1,617.6,85.1 M524.7,47.8c-5.8,0-10,4-10,9.8
		v98.3c0,20,12.7,30.3,29,30.3c4,0,7.3-0.4,11.1-1.2c4.8-1,8.3-4.2,8.3-9.2c0-6-4-9-9.2-9c-3.1,0-4.8,1-9.6,1
		c-6.1,0-9.8-3.6-9.8-11.3v-50.7h18.8c6.3,0,9.8-4,9.8-9.4c0-5.4-3.5-9.4-9.8-9.4h-18.8V57.6C534.5,51.9,530.3,47.8,524.7,47.8
		 M449.3,85.1c-10.6,0-20.5,1.9-29.9,5c-5.6,1.7-8.6,6-8.6,11.3v75.1c0,5.8,4.2,9.8,10,9.8c5.6,0,9.8-4,9.8-9.8V106
		c6-1.7,12.3-2.7,18.8-2.7c12.5,0,19,6.7,19,18.8v54.3c0,5.8,4.2,9.8,10,9.8c5.6,0,9.8-4,9.8-9.8v-53.6
		C488.1,98.1,475,85.1,449.3,85.1 M364.6,142.7v23.2c-5.8,1.5-11.5,2.3-17.7,2.3c-12.3,0-20.2-2.5-20.2-12.7
		c0-9.8,7.9-12.9,19.8-12.9H364.6z M347,85.1c-13.4,0-24.2,4.2-29.6,7.5c-2.9,1.7-4.6,4.6-4.6,7.9c0,5.4,4.6,9.2,9.2,9.2
		c3.1,0,5.6-1.3,8.8-2.9c5-2.5,10.4-3.5,16.9-3.5c11.3,0,16.9,6,16.9,13.4v7.7h-17.5c-21.9,0-40.1,8.4-40.1,30.7
		c0,22.1,15.9,31.1,40.1,31.1c10.7,0,21.9-1.9,29.6-4.6c5.2-1.7,7.7-6.3,7.7-10.7v-54.3C384.4,95.5,367.5,85.1,347,85.1"/>
</g>
<path class="st0" d="M173.9,24.4C166.2,11.5,153.3,3,139.6,0c37.2,70,91.2,171.5,93.8,177c1.5,3.1,1.4,6.7-0.4,9.2
	c-1.5,2.2-4,3.1-7.2,2.7c-3-0.4-10.4-5-16.8-9.1c-17.5-11-43.9-27.7-78.5-27.7c-15.1,0-27.9,2.5-38.1,5.6
	c-5,9.4-10.2,18.9-14.3,26.7c4.5-2.8,23.7-13.5,52.4-13.5c29.2,0,51.9,14.3,68.5,24.8c9.7,6.1,17.4,11,24.6,11.9
	c1.2,0.2,2.4,0.2,3.6,0.2c8.6,0,16.3-3.8,21.2-10.7c5.8-8.1,6.6-19,2-28.3C247.8,163.6,204.8,82.5,173.9,24.4z"/>
<path class="st0" d="M221.8,242.4c38.3,0,42.2-44,42.2-44s-2.9,9.5-14.1,18.3c-23.8,15.3-38.2,5.8-60.7-8.7
	c-16.1-10.4-34.5-21.9-58.7-21.9c-30.4,0-44.4,11.7-57.9,23.1l-0.1,0.1c-6.4,5.4-13,3.8-16.6,0.9c-1.5-1.2-6-5.6-2.4-12.3
	c7.1-13,44-81.7,67.9-126.1c-3.9-7.3-7.6-14.3-10.6-20C87.7,94.8,44.7,174.8,37,188.9c-6.8,12.5-4,26.9,7,35.8
	c11.8,9.6,28.5,9.2,40.6-1l0.1-0.1c12.9-10.8,22.3-18.7,45.8-18.7C171.3,204.9,188.8,242.4,221.8,242.4z"/>
<g>
	<path class="st0" d="M133.4,24.4c-4.7-8.7-13.7-14.2-23.6-14.2c0,0,0,0-0.1,0c-9.9,0-19,5.5-23.6,14.3L8.2,168
		C-20.1,225.7,33.9,239,33.9,239s-31.5-18.5-15.3-50.6c17.9-35.4,84.2-155.2,84.2-155.2c2-3.8,5.5-4.2,7-4.2c0,0,0,0,0,0
		c1.4,0,5,0.4,7,4.2l60,112.6c10.9,3.9,20.4,8.9,28.6,13.7L133.4,24.4z"/>
</g>
</svg>
