<?xml version="1.0" encoding="utf-8"?>
<!-- Generator: Adobe Illustrator 18.1.1, SVG Export Plug-In . SVG Version: 6.00 Build 0)  -->
<!DOCTYPE svg PUBLIC "-//W3C//DTD SVG 1.1//EN" "http://www.w3.org/Graphics/SVG/1.1/DTD/svg11.dtd">
<svg version="1.1" id="Layer_1" xmlns="http://www.w3.org/2000/svg" xmlns:xlink="http://www.w3.org/1999/xlink" x="0px" y="0px"
	 width="269.92px" height="80px" viewBox="0 0 269.92 80" enable-background="new 0 0 269.92 80" xml:space="preserve">
<path fill="#365EBF" d="M181.28,77.79h-7.1c-1.44,0-2.55-0.78-2.66-2.22l-0.11-2.78c-5.11,4.11-11.21,6.33-17.65,6.33
	c-12.43,0-17.53-7.87-17.53-19.86V26.44c0-1.89,1.11-2.55,2.88-2.55h7.77c1.78,0,2.78,0.55,2.78,2.55v30.49
	c0,6.11,1.55,10.32,8.21,10.32c4.21,0,9.54-2.33,12.87-5.32V26.44c0-1.89,1-2.55,2.77-2.55h7.88c1.78,0,2.78,0.55,2.78,2.55v48.25
	C184.17,77.01,183.5,77.79,181.28,77.79z"/>
<path fill="#365EBF" d="M0.7,26.1c0-1.33,0.67-2.22,2-2.22h9.39c1.33,0,2.11,0.78,2.11,2.22v48.92c0,2-0.89,2.77-2.77,2.77H3.59
	c-1.99,0-2.89-0.78-2.89-2.77V26.1z"/>
<path fill="#365EBF" d="M198.06,26.1c0-1.33,0.67-2.22,2-2.22h9.39c1.33,0,2.11,0.78,2.11,2.22v48.92c0,2-0.89,2.77-2.78,2.77h-7.83
	c-1.99,0-2.89-0.78-2.89-2.77V26.1z"/>
<path fill="#365EBF" d="M73.67,77.79h-7.99c-2,0-2.66-1-2.66-2.89V44.72c0-6.1-1.66-10.43-8.43-10.43c-4.33,0-9.65,2.33-13.09,5.33
	v35.4c0,1.89-0.78,2.77-2.66,2.77h-8.1c-1.66,0-2.66-0.88-2.66-2.66V26.67c0-1.78,0.78-2.77,2.78-2.77h7.21
	c1.55,0,2.56,0.44,2.66,2.11l0.11,2.96c5.11-4.1,11.54-6.43,17.98-6.43c12.43,0,17.53,7.77,17.53,19.86V74.9
	C76.34,76.79,75.68,77.79,73.67,77.79z"/>
<path fill="#365EBF" d="M113.22,8.74c0-4.5-3.64-8.14-8.14-8.14c-4.49,0-8.14,3.64-8.14,8.14s3.65,8.14,8.14,8.14
	C109.58,16.88,113.22,13.24,113.22,8.74z"/>
<path fill="#365EBF" d="M124.8,23.88c1.33,0,2.11,0.44,2.11,1.89v7.81c0,1.33-0.89,2.11-2.22,2.11h-12.86v39.32
	c0,2-0.89,2.77-2.89,2.77h-7.72c-2,0-2.88-0.78-2.88-2.77V35.69H85.47c-1.33,0-2.22-0.78-2.22-2.11v-7.81
	c0-1.44,0.78-1.89,2.11-1.89C85.37,23.88,124.8,23.88,124.8,23.88z"/>
<path fill="#365EBF" d="M250.92,8.74c0-4.5-3.64-8.14-8.14-8.14c-4.49,0-8.14,3.64-8.14,8.14s3.64,8.14,8.14,8.14
	C247.28,16.88,250.92,13.24,250.92,8.74z"/>
<path fill="#365EBF" d="M262.5,23.88c1.33,0,2.1,0.44,2.1,1.89v7.81c0,1.33-0.88,2.11-2.22,2.11h-12.86v39.32
	c0,2-0.88,2.77-2.88,2.77h-7.72c-2,0-2.88-0.78-2.88-2.77l0-39.32h-12.86c-1.33,0-2.22-0.78-2.22-2.11v-7.81
	c0-1.44,0.78-1.89,2.11-1.89C223.06,23.88,262.5,23.88,262.5,23.88z"/>
<path fill="#365EBF" d="M266.02,70.95c1.96,0,3.6,1.55,3.6,3.57c0,2.06-1.64,3.61-3.6,3.61c-1.97,0-3.62-1.55-3.62-3.61
	C262.4,72.49,264.05,70.95,266.02,70.95z M266.02,77.61c1.66,0,2.95-1.33,2.95-3.09c0-1.72-1.29-3.05-2.95-3.05
	c-1.68,0-2.97,1.33-2.97,3.05C263.05,76.28,264.34,77.61,266.02,77.61z M264.62,72.44h1.62c1,0,1.47,0.39,1.47,1.2
	c0,0.76-0.48,1.08-1.11,1.14l1.2,1.86h-0.7l-1.14-1.81h-0.69v1.81h-0.65L264.62,72.44L264.62,72.44z M265.27,74.3h0.68
	c0.58,0,1.1-0.03,1.1-0.69c0-0.56-0.48-0.64-0.92-0.64h-0.87L265.27,74.3L265.27,74.3z"/>
</svg>
