<?xml version="1.0" encoding="utf-8"?>
<!-- Generator: Adobe Illustrator 19.1.0, SVG Export Plug-In . SVG Version: 6.00 Build 0)  -->
<svg version="1.1" id="Laag_1" xmlns="http://www.w3.org/2000/svg" xmlns:xlink="http://www.w3.org/1999/xlink" x="0px" y="0px"
	 viewBox="0 0 300 55.2" style="enable-background:new 0 0 300 55.2;" xml:space="preserve">
<style type="text/css">
	.st0{clip-path:url(#SVGID_2_);fill:#0D7DC2;}
	.st1{fill:#0D7DC2;}
</style>
<g>
	<defs>
		<rect id="SVGID_1_" x="1.9" y="2" width="295.5" height="50"/>
	</defs>
	<clipPath id="SVGID_2_">
		<use xlink:href="#SVGID_1_"  style="overflow:visible;"/>
	</clipPath>
	<path class="st0" d="M106.8,18.9l1.5,0l0-3.2l4.4-1.2l-0.1,4.5l2.7,0l-0.3,2.9h-2.5c0,0-0.1,3.6-0.1,4.7c0,3.1,0.2,3.4,1.6,3.3
		c0.6,0,1.3-0.3,1.3-0.3l-0.3,2.9c0,0-2.7,0.7-4.5,0.2c-2.9-0.9-2.3-3.6-2.3-6.2c0-1.5,0.1-4.7,0.1-4.7h-1.7L106.8,18.9z"/>
	<path class="st0" d="M13.3,23.3h4.6c0,0,0,2.2,0,3.3c0,2,0,4.8,0,4.9c0,0-3.5,1.7-8.4,1c-6.9-1-7.6-7.4-7.4-9.9
		c0.5-6,4.4-8.6,8.4-8.8c3.6-0.2,5.4,0.6,6.6,1.1c0.2,0.1,0.2,0.1,0.2,0.1L16.8,19c0,0,0,0-0.3-0.2c-0.5-0.3-2.1-1.5-4.5-1.5
		c-4.1,0.1-5.2,3.8-5.2,5.6c0,3.6,1.2,6.2,4.5,6.4c1.1,0.1,2.2-0.3,2.2-0.3s0-0.5,0-2.3C13.3,25.3,13.3,23.3,13.3,23.3"/>
	<path class="st0" d="M25.1,26.7c0,0,0,3.1,3.8,3.1c2.7,0,4.2-1.1,4.2-1.1l-0.2,3.1c0,0-0.1,0.1-0.3,0.2c-0.7,0.4-2.3,1-5.7,0.7
		c-2.7-0.2-5.9-2.1-6-6.8c-0.1-4.4,2.3-7.2,6.4-7.4c6.5-0.3,6.5,6.1,6.4,7.8c0,0.2,0,0.4,0,0.4L25.1,26.7z M25.1,24.1h4.3
		c0,0,0.3-3-2.3-2.8C25.1,21.5,25.1,24.1,25.1,24.1"/>
	<path class="st0" d="M36.8,19.1l4.7-0.7V20c0,0,0.1-0.1,0.2-0.2c0.4-0.3,2-1.5,3.6-1.5c1.5,0,2.8,0.7,3.3,1.8c0,0,1.7-1.6,4.3-1.7
		c1.2,0,4.1,0.2,4.1,4c0,3.8,0,3.9,0,6.7c0,1.4,0.1,3.2,0.1,3.2l-4.5,0c0,0,0.1-5.1,0.1-6.9c0-1.3,0.2-3.7-1.7-3.7
		c-1.3,0-1.8,0.7-1.8,0.7V29c0,1.2,0,3.4,0,3.4h-4.5c0,0,0.1-4.5,0.1-7c0-1.5,0.2-3.6-1.7-3.6c-1.2,0-1.7,0.6-1.7,0.6s0,5.2,0,6.6
		c0,2,0,3.4,0,3.4l-4.5,0c0,0,0.1-4.3,0-7.2C37,22,36.8,19.1,36.8,19.1"/>
	<path class="st0" d="M103.6,29.1c0,1.1,0,3.2,0,3.2h-4.5c0,0,0.1-4.5,0.1-7c0-1.5,0.2-3.6-1.7-3.6c-1.2,0-2.1,0.6-2.1,0.6
		s0,5.2,0,6.6c0,2,0,3.4,0,3.4l-4.5,0c0,0,0.1-4.3,0-7.2c-0.1-3.2-0.2-6.1-0.2-6.1l4.7-0.7V20c0,0,0.1-0.1,0.2-0.2
		c0.4-0.3,2.4-1.5,4-1.5c1.5,0,3.9,0.9,3.9,4.1C103.5,24.8,103.6,27.4,103.6,29.1"/>
	<path class="st0" d="M64,26.7c0,0,0,3.1,3.8,3.1c2.7,0,4.2-1.1,4.2-1.1l-0.2,3.1c0,0-0.1,0.1-0.3,0.2c-0.7,0.4-2.3,1-5.7,0.7
		c-2.7-0.2-5.9-2.1-6-6.8c-0.1-4.4,2.3-7.2,6.4-7.4c6.5-0.3,6.5,6.1,6.4,7.8c0,0.2,0,0.4,0,0.4L64,26.7z M64,24.1h4.3
		c0,0,0.3-3-2.3-2.8C64,21.5,64,24.1,64,24.1"/>
	<path class="st0" d="M79.2,26.7c0,0,0,3.1,3.8,3.1c2.7,0,4.2-1.1,4.2-1.1L87,31.8c0,0-0.1,0.1-0.3,0.2c-0.7,0.4-2.3,1-5.7,0.7
		c-2.7-0.2-5.9-2.1-6-6.8c-0.1-4.4,2.3-7.2,6.4-7.4c6.5-0.3,6.5,6.1,6.4,7.8c0,0.2,0,0.4,0,0.4L79.2,26.7z M79.2,24.1h4.3
		c0,0,0.3-3-2.3-2.8C79.2,21.5,79.2,24.1,79.2,24.1"/>
	<path class="st0" d="M122.1,26.7c0,0,0,3.1,3.8,3.1c2.7,0,4.2-1.1,4.2-1.1l-0.2,3.1c0,0-0.1,0.1-0.3,0.2c-0.7,0.4-2.3,1-5.7,0.7
		c-2.7-0.2-5.9-2.1-6-6.8c-0.1-4.4,2.3-7.2,6.4-7.4c6.5-0.3,6.5,6.1,6.4,7.8c0,0.2,0,0.4,0,0.4L122.1,26.7z M122.2,24.1h4.3
		c0,0,0.3-3-2.3-2.8C122.2,21.5,122.2,24.1,122.2,24.1"/>
	<path class="st0" d="M160.9,26.7c0,0,0,3.1,3.8,3.1c2.7,0,4.2-1.1,4.2-1.1l-0.2,3.1c0,0-0.1,0.1-0.3,0.2c-0.7,0.4-2.3,1-5.7,0.7
		c-2.7-0.2-5.9-2.1-6-6.8c-0.1-4.4,2.3-7.2,6.4-7.4c6.5-0.3,6.5,6.1,6.4,7.8c0,0.2,0,0.4,0,0.4L160.9,26.7z M160.9,24.1h4.3
		c0,0,0.3-3-2.3-2.8C160.9,21.5,160.9,24.1,160.9,24.1"/>
	<path class="st0" d="M176.1,26.7c0,0,0,3.1,3.8,3.1c2.7,0,4.2-1.1,4.2-1.1l-0.2,3.1c0,0-0.1,0.1-0.3,0.2c-0.7,0.4-2.3,1-5.7,0.7
		c-2.7-0.2-5.9-2.1-6-6.8c-0.1-4.4,2.3-7.2,6.4-7.4c6.5-0.3,6.5,6.1,6.4,7.8c0,0.2,0,0.4,0,0.4L176.1,26.7z M176.1,24.1h4.3
		c0,0,0.3-3-2.3-2.8C176.1,21.5,176.1,24.1,176.1,24.1"/>
	<path class="st0" d="M187.7,22c0-1.1,0-3.2,0-3.2l4.5-0.1c0,0-0.1,4.6-0.1,7.1c0,1.5-0.2,3.6,1.7,3.6c1.2,0,2.1-0.6,2.1-0.6
		s0-5.2,0-6.6c0-2,0-3.3,0-3.3l4.5-0.1c0,0-0.1,4.4,0,7.2c0.1,3.2,0.1,6.6,0.1,6.6l-4.6,0v-1.4c0,0-0.1,0.1-0.2,0.2
		c-0.4,0.3-2.4,1.5-4,1.5c-1.5,0-3.9-0.9-3.9-4.1C187.7,26.3,187.7,23.7,187.7,22"/>
	<path class="st0" d="M227.6,19.4c0,0,2.9-1,5.7-0.9c3,0.2,4.9,0.8,5,5c0,3.1,0,8.9,0,8.9l-4.3,0v-1.1c0,0-1.5,1.8-4.5,1.3
		c-3.5-0.5-3.9-4.3-3.4-5.8c1-3,5.5-3.5,7.4-3.7c0.4,0,0.5,0,0.5,0s0-0.1,0-0.3c0-0.6-0.4-1.5-2.6-1.3c-2.4,0.2-3.9,1-3.9,1
		L227.6,19.4z M230.3,28.5c0.5,1.8,3,0.9,3.6,0.5c0.1-0.1,0.1-0.1,0.1-0.1l0-3.1c0,0,0,0-0.2,0C233.4,25.8,229.6,26.1,230.3,28.5"/>
	<path class="st0" d="M242.4,19.3l4.5-0.7l0,2.6c0,0,0.3-1.1,1.5-2c1-0.8,2.3-0.4,2.3-0.4l-0.9,4.4c0,0-1-0.7-1.9-0.3
		c-1.3,0.5-1.1,2.1-1.1,3.8c0,2.4,0.1,5.9,0.1,5.9h-4.6c0,0,0.1-3.9,0-6.8C242.5,22.2,242.4,19.3,242.4,19.3"/>
	<path class="st0" d="M261.1,12.7l4.5-0.8c0,0,0,1.4-0.1,3.3c0,4.6-0.1,10.4-0.1,14.1c0,2.4,0,3.1,0,3.1l-4.3,0v-1.1
		c0,0-1.3,1.4-3.7,1.4c-1.4,0-5.5-1-5.1-7.3c0.4-6.3,5.9-6.7,8.4-6.6c0.5,0,0.5,0,0.5,0L261.1,12.7z M256.8,25
		c-0.4,2.6,0.7,4.6,2.2,4.7c1.3,0.1,2.1-0.6,2.1-0.6v-7.3C261.1,21.8,257.5,21,256.8,25"/>
	<path class="st0" d="M203.1,18.7l4.5-0.1l2,9.8l2.1-9.6l5.2-0.1l1.9,9.8l2.1-9.7l3.7-0.1c0,0-1.3,4.5-2.1,7.5
		c-0.8,3-1.8,6.3-1.8,6.3l-4.9,0l-1.8-9.5l-2.2,9.5l-5,0c0,0-0.7-3.1-1.7-6.7C204.2,22.9,203.1,18.7,203.1,18.7"/>
	<path class="st0" d="M272.9,26.7c0,0,0,3.1,3.8,3.1c2.7,0,4.2-1.1,4.2-1.1l-0.2,3.1c0,0-0.1,0.1-0.3,0.2c-0.7,0.4-2.3,1-5.7,0.7
		c-2.7-0.2-5.9-2.1-6-6.8c-0.1-4.4,2.3-7.2,6.4-7.4c6.5-0.3,6.5,6.1,6.4,7.8c0,0.2,0,0.4,0,0.4L272.9,26.7z M272.9,24.1h4.3
		c0,0,0.3-3-2.3-2.8C272.9,21.5,272.9,24.1,272.9,24.1"/>
	<path class="st0" d="M297.4,29.2c0,1.1,0,3.2,0,3.2H293c0,0,0.1-4.5,0.1-7c0-1.5,0.2-3.6-1.7-3.6c-1.2,0-2.1,0.6-2.1,0.6
		s0,5.2,0,6.6c0,2,0,3.4,0,3.4l-4.5,0c0,0,0.1-4.3,0-7.2c-0.1-3.2-0.2-6.1-0.2-6.1l4.7-0.7v1.7c0,0,0.1-0.1,0.2-0.2
		c0.4-0.3,2.4-1.5,4-1.5c1.5,0,3.9,0.9,3.9,4.1C297.4,24.8,297.4,27.4,297.4,29.2"/>
</g>
<polygon class="st1" points="143.1,11.2 143,52 175.9,52 175.9,44.6 185.4,44.6 185.4,43.3 151.8,43.3 151.8,11.2 "/>
<rect x="151.8" y="2" class="st1" width="33.7" height="1.3"/>
</svg>
