<svg viewBox="0 0 765.3 283.5" xmlns="http://www.w3.org/2000/svg" data-name="Layer 1" id="Layer_1">
  <g>
	<path fill="#E42313" d="M282.5 93.9L189.1 93.9L189.1 0.5L95.6 0.5L95.6 93.9L2.2 93.9L2.2 187.4L95.6 187.4L95.6 280.8L189.1 280.8L189.1 187.4L282.5 187.4z"/>
	<path fill="#646363" d="M516,43.3c15.6,0,27.1,11.1,27.1,30.4c0,19.3-11.6,30.4-27.1,30.4c-15.6,0-27.1-11.1-27.1-30.4 C488.8,54.4,500.4,43.3,516,43.3 M516,119.1c24.9,0,44.1-18.7,44.1-45.4c0-27.2-18.7-45.4-44.1-45.4c-24.9,0-44.1,18.7-44.1,45.4 C471.8,100.9,490.5,119.1,516,119.1"/>
	<path fill="#646363" d="M617.6,104c-15.6,0-26-11.1-26-30.4c0-19.3,10.5-30.4,26-30.4c15.6,0,27.1,11.1,27.1,30.4 C644.7,93,633.1,104,617.6,104 M644.4,114.8c0,1.7,0.9,2.5,2.6,2.5h11c1.7,0,2.5-0.9,2.5-2.5V3c0-1.7-0.8-2.6-2.5-2.6h-11.3 c-1.7,0-2.6,0.9-2.6,2.6v39.3c-5.6-8.4-14.5-14.1-28-14.1c-24.3,0-41.6,18.5-41.6,45.7c0,27,17,45.1,41,45.1 c14,0,23.2-6,28.9-14.9V114.8z"/>
	<path fill="#646363" d="M659.2,161.7h-13c-1.7,0-2.5,0.9-2.5,2.6v13c0,1.7,0.8,2.5,2.5,2.5h13c1.7,0,2.5-0.8,2.5-2.5v-13 C661.7,162.5,660.9,161.7,659.2,161.7"/>
	<path fill="#646363" d="M658.3,193.4H647c-1.7,0-2.6,0.8-2.6,2.6v82.3c0,1.7,0.9,2.6,2.6,2.6h11.3c1.7,0,2.5-0.9,2.5-2.6V196 C660.9,194.3,660,193.4,658.3,193.4"/>
	<path fill="#646363" d="M441,37.1c0,12.8-9.1,20.4-25.5,20.4h-22.9V16.6h22.9C431.9,16.6,441,24.3,441,37.1 M378.5,117.4h11.6 c1.7,0,2.6-0.9,2.6-2.6V73.1h19.2l30.2,42.3c0.9,1.1,2,2,4,2h13.6c2.5,0,2.8-2.3,1.7-3.7L430,70.3c18.1-4,28.3-16.5,28.3-33.2 c0-25-20.1-36.6-41.3-36.6h-38.5c-1.7,0-2.5,0.9-2.5,2.6v111.8C376,116.5,376.8,117.4,378.5,117.4"/>
	<path fill="#646363" d="M616.9,193.4h-11.3c-1.7,0-2.5,0.8-2.5,2.6v47.1c0,14.2-8.2,24.1-22.3,24.1c-13,0-21.5-8.5-21.5-24.1V196 c0-1.7-0.8-2.6-2.5-2.6h-11.3c-1.7,0-2.5,0.8-2.5,2.6v49.9c0,21.6,14.4,36.6,35.1,36.6c12.2,0,20.7-5.1,25.4-13.4v9.1 c0,1.7,0.9,2.6,2.5,2.6h11c1.7,0,2.5-0.9,2.5-2.6V196C619.4,194.3,618.6,193.4,616.9,193.4"/>
	<path fill="#646363" d="M696.1,66.9C698.3,50,708.7,43,719.8,43c12.5,0,22.1,8.8,23.5,23.8H696.1z M719.8,28.3 c-22.3,0-40.4,18.2-40.4,45.4c0,27.2,18.1,45.4,42.7,45.4c15,0,28-6.8,34.2-15.6c1.4-1.7,0.5-2.8-0.3-3.7l-6.5-6.5 c-1.1-1.1-2.3-1.1-3.7,0c-2.5,2.3-9.6,11.1-23.4,11.1c-11.3,0-23.6-6.8-26.1-23.8H757c2.6,0,2.8-2,2.8-5.7 C759.9,45.9,743.8,28.3,719.8,28.3"/>
	<path fill="#646363" d="M720.4,230.1c-10.7-3.1-20.4-6-20.4-13.9c0-5.9,5.7-9.7,16.7-9.7c10.5,0,17.6,3.7,22.1,6.2 c1.7,0.9,3.1,0,3.7-1.1l4.2-8.5c0.9-2,0-3.1-1.1-3.7c-7.9-4.3-19.2-7.7-29.7-7.7c-18.7,0-32.2,9.4-32.2,25.6 c0,17.3,15.8,22.4,30.2,26.7c11.6,3.4,19.5,5.7,19.5,13.1c0,6-4.8,10.8-18.1,10.8c-11,0-17.5-3.4-27.1-8.5 c-1.7-0.9-2.8-0.6-3.7,1.1l-4.2,8.5c-0.6,1.1-0.6,2.3,0.5,3.4c2.8,2.8,18.1,10.2,35.6,10.2c20.1,0,33.4-9.9,33.4-26.4 C749.8,238.3,734.2,234,720.4,230.1"/>
	<path fill="#646363" d="M416.9,215.6l45.2-47.9c1.1-1.4,0.9-3.7-1.7-3.7h-13.6c-2,0-3.4,0.9-4.2,2l-50,53.1v-52.5 c0-1.7-0.9-2.6-2.6-2.6h-11.6c-1.7,0-2.5,0.9-2.5,2.6v111.8c0,1.7,0.9,2.6,2.5,2.6h11.6c1.7,0,2.6-0.9,2.6-2.6v-37.9l12.4-13.1 l39.6,51.6c0.9,1.1,2.3,2,4.2,2h13.6c2.5,0,2.8-2.3,1.7-3.7L416.9,215.6z"/>
	<path fill="#646363" d="M494.1,246.8c0-23,12.4-37.2,31.4-37.2c1.7,0,2.5-0.9,2.5-2.6v-12.8c0-1.7-0.9-2.6-2.5-2.6 c-14.4,0-26.3,8.3-31.7,22.1V196c0-1.7-0.9-2.6-2.5-2.6h-11c-1.7,0-2.5,0.8-2.5,2.6v82.3c0,1.7,0.8,2.6,2.5,2.6h11.3 c1.7,0,2.6-0.9,2.6-2.6V246.8z"/>
  </g>
</svg>
