<svg viewBox="0 0 793.7 265.9" xmlns="http://www.w3.org/2000/svg" data-name="Layer 1" id="Layer_1">
  <g>
    <path fill="#fff" d="M351,233.8c2.2.2,3.8.3,4.7.3s1.8.1,2.5.1c3.9,0,6.8-1,8.8-2.9s3-5.6,3-11V54h39.6v167c0,15.3-3,26.6-9,33.9-6,7.3-17.8,11-35.4,11s-3,0-5.4-.1-5.3-.2-8.8-.3v-31.7h0Z"/>
    <path fill="#fff" d="M40.2,156.4c.8,7,2.7,12,5.4,15,4.9,5.3,14.1,7.9,27.4,7.9s14-1.2,18.6-3.5,6.9-5.8,6.9-10.4-1.9-7.8-5.6-10.1-17.5-6.3-41.4-12c-17.2-4.3-29.3-9.6-36.4-16-7-6.3-10.6-15.4-10.6-27.2s5.5-26,16.5-36.1c11-10,26.5-15.1,46.4-15.1s34.4,3.8,46.3,11.3c11.9,7.5,18.8,20.6,20.5,39.1h-39.4c-.6-5.1-2-9.1-4.3-12.1-4.4-5.4-11.8-8.1-22.3-8.1s-14.8,1.3-18.5,4-5.5,5.8-5.5,9.4,2,7.8,5.8,9.9c3.9,2.1,17.7,5.8,41.3,11,15.8,3.7,27.6,9.3,35.5,16.8,7.8,7.6,11.7,17.1,11.7,28.5s-5.6,27.3-16.8,36.8-27,14.2-50.4,14.2-42.9-5-54.3-15.1C5.7,184.8,0,172,0,156.4h40.2Z"/>
    <path fill="#fff" d="M273.5,62c9.9,8.2,14.9,21.8,14.9,40.8v102h-40.6v-92.1c0-8-1.1-14.1-3.2-18.3-3.9-7.8-11.2-11.7-22.1-11.7s-22.5,5.7-27.4,17.1c-2.6,6-3.9,13.7-3.9,23.1v82h-39.6V53.6h38.4v22.1c5.1-7.8,9.9-13.4,14.4-16.8,8.1-6.1,18.4-9.2,30.9-9.2s28.3,4.1,38.2,12.3"/>
    <path fill="#fff" d="M309.4,53.3h40.2v151.5h-40.2Z"/>
    <path fill="#fd0" d="M436.2,0h39.6v204.8h-39.6Z"/>
    <path fill="#fd0" d="M628.8,194.3c-1.3-1.9-2.1-5.4-2.4-10.6,0-3.9-.2-7.5-.2-10.8-1-12-10.9-21.4-23.1-21.4s-16.9,5.5-19.3,10.6c-2.4,5.1-4.7,8.5-8.5,11-7.3,5-15.3,7.5-23.9,7.5s-10.1-1.5-13.9-4.5c-3.8-3-5.7-7.9-5.7-14.7s3.1-13.2,9.4-16.8c3.7-2.1,9.8-3.9,18.2-5.4l9-1.7c4.5-.8,16.7-4.1,25.2-7.3,8.9-3.4,30.5-12.7,30.5-35.3s-16.9-37.4-32.5-41.4h0c-9-2.5-18.7-3.9-29.2-3.9-25.6,0-43.6,6.7-54.2,20-6.6,8.5-10.3,19.4-11.2,32.7h38.2c.9-5.8,2.8-10.5,5.6-13.9,3.9-4.6,10.7-6.9,20.1-6.9s14.9,1.2,19.2,3.5c4.4,2.4,6.5,6.6,6.5,12.9s-2.8,8.8-8.5,11.3c-3.2,1.4-8.4,2.5-15.8,3.5l-13.6,1.7c-15.4,1.9-27.1,5.2-35,9.7-14.5,8.3-21.7,21.8-21.7,40.4s4.5,25.5,13.5,33.3,20.4,11.7,34.2,11.7,20.5-2.5,29.1-7.4c7.2-4.2,13.5-9.2,19-15.1.3,3.4.7,6.5,1.1,9.2.5,2.7,1.3,5.6,2.5,8.6h43.1v-5.8c-2.5-1.3-4.4-2.8-5.7-4.7"/>
    <path fill="#fd0" d="M776.7,71.5c-11.3-14.4-27-21.5-47.1-21.5s-20.2,2.3-27.4,6.9c-6.1,3.7-11.6,9.1-16.6,16.1V.2h-39.6v88.8c0,13.2,10.7,23.8,23.8,23.8s16-4.7,20.2-11.5c5.6-11.2,15.1-16.8,28.5-16.8s24.1,6.7,29.4,20c2.8,7,4.2,15.9,4.2,26.7s-2.9,24.3-8.6,32.5c-5.7,8.2-13.7,12.4-24,12.4s-20.7-4.3-26.5-12.8c-1.7-2.5-1.4-2-4.4-8.2-2.9-6.3-11.3-10.7-19.5-10.7-12.8,0-23.3,10.4-23.3,23.3v37.1h39.2v-19c5.3,7.4,10.2,12.6,14.8,15.6,7.6,5,17.7,7.5,30.3,7.5,20,0,35.6-7.7,46.8-23.2s16.8-35,16.8-58.5-5.7-41.3-17-55.7"/>
  </g>
</svg>
