<svg xmlns="http://www.w3.org/2000/svg" viewBox="0 0 259.94 263.45"><g id="Laag_1" data-name="Laag 1"><path d="M96.26,159.62h0a3.41,3.41,0,0,0,0-.34c.47-3.81,3.9-5.47,7.53-6.66a12.51,12.51,0,0,1,5.39-.55c1,.24,2.13.4,3.14.73a15,15,0,0,1,9.17,8.61c.55,1.3.95,2.68,1.44,4,.26.74.22,1.42.8,1.83.36.29,1.26.18,1.89.18,1.27,0,4.89,0,5.21-.82.48-.73-.45-3.43-.63-4a34.28,34.28,0,0,0-1.07-3.94,41.15,41.15,0,0,0-3.33-5.67c-2-3.17-4.31-5.78-6.47-8.7-.72-.7-1.33-1.4-2-2.1a25.91,25.91,0,0,0-4-3.94l-.9-1a21,21,0,0,0-2.15-1.83l-.54-.64c-4.51-3.46-9.27-6.4-17.17-6.41-.51.31-1.62,0-2.24.18a35.27,35.27,0,0,0-4.13.92c-3.38,1.29-7.58,5.83-9,9.15a22.23,22.23,0,0,0-1,3.76,18.24,18.24,0,0,0,.45,8,15,15,0,0,0,1.08,3.39,37.76,37.76,0,0,0,3,3.66c2.22,3,5.25,5.12,8.36,7.23,1.55,1.06,3.16,2.12,4.76,3.21.76.51,1.44,1.31,2.61,1.37.65,0,.3-.46.18-1-1.09-1.83-.69-6.44-.44-8.21,0-.23,0-.32.05-.35M123,182.56c-1.12,2.76-3,5.66-5.67,6.86a18.5,18.5,0,0,1-3.41.92,18.64,18.64,0,0,1-5.48-.37,3.81,3.81,0,0,0-1.62-.18s-.09,0-.11.42a12.36,12.36,0,0,0,5,4.34,13.18,13.18,0,0,0,2.34.64,11.26,11.26,0,0,0,5.48-.46c4.43-1.46,6.8-5,8.81-9,.81-1.59,2.67-5.73,2.24-8a23.53,23.53,0,0,0-5.48-.55c-.1.06-.08.05-.27.09a9.11,9.11,0,0,0-.55,1.13c-.59,1.39-.69,2.81-1.24,4.18M220.54,124c.63,2,1.23,5.88.54,8.51a40.61,40.61,0,0,1-1.8,5.86c-1.08,2.54-2.93,4.66-4.49,6.78-1.09,1.49-2.64,2.55-3.14,4.67-.27,1.14.62,2.14,1,2.74a45.43,45.43,0,0,1,3.41,5.68,20.17,20.17,0,0,1,.72,11.26,27.22,27.22,0,0,1-1.89,5.78,13.37,13.37,0,0,1-3.23,4.29c-1.35,1-2.61,2.28-4.05,3.21a20.25,20.25,0,0,1-15.27,2.65c-.54,0-2.45-.39-3-.42a21.34,21.34,0,0,1-3.66-1c-3.87-1.62-7.42-3.59-11.23-5.22a19.82,19.82,0,0,0-4.77-1.28c-1.22-.19-1.93-.2-3.77-.37-1-.09-3.1.23-3.32.82-.25.42.07,1.11.18,1.47A18.86,18.86,0,0,0,164.2,183c1.55,3,2.67,4.42,5.84,5.77.67.28,2.39,1.06,3.42.82,2.23-.51,3.6-1.22,6.2-1.14a4.2,4.2,0,0,1-.63,4.71c-1.64,2.29-6.4,5.69-11,4.58a18,18,0,0,1-10.43-7.32c-.85-1.19-1.57-2.57-2.33-3.85-.3-.5-.35-1.14-.9-1.37s-.88.6-1.08,1a5.49,5.49,0,0,0-.09,4.48,49.65,49.65,0,0,0,5.66,10.07,22.18,22.18,0,0,1,2.78,3.74,39.14,39.14,0,0,1-4.57,4.05c-.72.51-1.69.79-1.71,2,2.57,1.7,8.55,3.75,12.67,2.38a12.11,12.11,0,0,0,3.32-2.11c1.49-1.14,2.06-4,3.42-5a2.78,2.78,0,0,1,4.22,1.56c.56,2.28-1.55,5.23-2.34,6.31-3.57,4.9-11.79,7.75-19.4,5.22a24.28,24.28,0,0,1-5.49-2.47c-.93-.61-1.51-1.79-3-1.83-.57.38-.33.21-.84.54s-1.52,1-1.88,1.26c-.67.48-1,.66-1.71,1.14s0,0-2.15,1.59a24.48,24.48,0,0,1-2.95-1.78c-1.31-.94-2.64-2.47-4.67-2.84a21,21,0,0,1-5.66,3.2c-1.37.52-2.66.6-4.13,1a13.47,13.47,0,0,1-6.47.09c-2.69-.82-5.35-1.53-7.37-3a20.4,20.4,0,0,1-2.16-2.2,11.7,11.7,0,0,1-3.41-5,4.33,4.33,0,0,1-.36-2.29A2.64,2.64,0,0,1,108,204a2.53,2.53,0,0,1,1.26.18c1.84,1.1,2.61,3.42,3.87,5.13s3.88,2.72,6.2,3.39,6.16-.41,8-1.1c.83-.32,2.1-.38,2.16-1.47-2-1.84-4.3-3.31-6.2-5.22,0-1.6,1.71-3.3,2.43-4.39a81.25,81.25,0,0,0,4.67-8.79c.92-1.87,2.21-4.36.54-6.23-.16.06-.09,0-.18.1-.53.39-1.26,2.83-1.71,3.57-1.8,2.95-3.75,6-7.09,7.31a17.52,17.52,0,0,1-5.13.93c-5.23.25-8.27-1.2-10.42-4.12-1.07-1.46-2.25-2.52-1.62-5,.18-.38.18-.38.54-.46a18.75,18.75,0,0,1,5.23.59,19.39,19.39,0,0,0,2,.06c4.8,0,7-2.8,8.44-6.23.49-1.15,1.62-2.95,1-4.58-1.26-.83-4-.75-6-.55a26.62,26.62,0,0,0-11.5,3.85c-3.87,2.41-8.08,3.84-14.38,3.84a22.73,22.73,0,0,1-5.66-.36,28.79,28.79,0,0,1-8.62-4.31,22.9,22.9,0,0,1-8.18-12.26c0-.89-.42-1.76-.42-2.64a23.43,23.43,0,0,1,.78-6.25,22.22,22.22,0,0,1,2.79-5c.42-.7.61-1.47,1-2.2a7.31,7.31,0,0,0,.81-4.58c-.52-2.05-2.06-3.2-3.14-4.67a42.88,42.88,0,0,1-3.51-5.67,21.21,21.21,0,0,1-2.24-7.33,27.2,27.2,0,0,1,.41-6.86,22.53,22.53,0,0,1,1.11-2.93,15.58,15.58,0,0,1,8.72-9.16,25.63,25.63,0,0,1,13.39-1,43.87,43.87,0,0,1,12.94,5.13c.8.5,1.64.78,2.42,1.28,1.88,1.21,3.78,2.44,5.57,3.76.57.41,2.13,2.1,3.15,1.83.19,0,.39-.22.63-.28a1.83,1.83,0,0,0,.36-.82c-.22-.29-.25-.68-.45-1-.58-.94-1.32-1.85-2-2.74l-.63-.55c-1.16-1.57-2.72-2.84-3.86-4.4-3.71-5-7.18-9.68-9.53-16.2A64.52,64.52,0,0,1,94.39,89a30.28,30.28,0,0,1,.18-9.52l.09-1.37a28.37,28.37,0,0,1,1-3.48A17.57,17.57,0,0,1,106.7,64c1.24-.42,2.65-.51,4-.82a21.55,21.55,0,0,1,6.83.18c1.07.27,2,.23,3,.55A39.81,39.81,0,0,1,132,70.22c2.88,2.15,4.61,4.94,8.71,6H142c2.51,0,3.65-1,5.12-2s2.81-2.11,4.22-3.2l2.25-2.38a25.5,25.5,0,0,1,5.12-3.48,32.89,32.89,0,0,1,5.39-1.65c.8-.2,2.65-.08,3.24-.46,10.22-.16,15.23,2.14,19.5,8.06.5.69,1.15,1.36,1.61,2.11A27.26,27.26,0,0,1,190,75.56c.23.45.55,1.6.72,2.07a9,9,0,0,1,.43,2.55,43,43,0,0,1-.26,5.34c0,1-.26,2.18-.26,3.19-.32,1.43-.22,3-.63,4.3-1.9,6.37-5,11.31-8.26,16.3l0,.06c-.6.79-3.06,3.76-3.55,4.43a42.12,42.12,0,0,1-3,3.84c-.9,1-2.85,2.31-2.52,4.12,1.18.79,1.86-.12,2.79-.64,2.16-1.23,4.13-2.72,6.2-4a60.77,60.77,0,0,1,13.29-6.32,26.32,26.32,0,0,1,2.7-.54c.51,0,.89-.2,1.4-.2a25.63,25.63,0,0,1,10.55.84,23,23,0,0,1,3.33,2c4.35,2.8,6,5.58,7.72,11.08m-12,27c1-3.15.22-7.5-.63-10.16-2.45-7.67-7.54-12-17.52-12a9.27,9.27,0,0,0-3.15.45,27.2,27.2,0,0,0-6.56,2.47c-1.83,1.14-3.59,2.39-5.3,3.67-.75.56-1.41,1.36-2.16,1.92a55,55,0,0,0-15.45,18.31c-.66,1.3-1.4,2.65-2,4-.43,1-.54,2-.9,3.11a8,8,0,0,0-.63,4.21c1.74,1.06,4.6,1,6.83.46.79-1.27,1-2.93,1.62-4.48a20.13,20.13,0,0,1,2.07-4c2.2-3.13,5.93-4.5,10.24-5.5,4.13-.95,9.78.6,11.5,2.93a15.47,15.47,0,0,1,3.24,6.41c.33,1.42-.16,3.08-.27,4.21-.07.7-.35,1.45.09,1.83s2.66-.61,3.23-.91a40.18,40.18,0,0,0,8.09-5.4A25,25,0,0,0,208.52,151m-30.19,39.49c-.11-.27-.11-.27-.46-.19-1.72,1.43-5.78,2-8.34.94-3.43-1.48-6-4.8-7.7-8.11a18.47,18.47,0,0,1-1.19-3.12c-.2-.67-.09-1.64-.46-2.17a1.84,1.84,0,0,0-1.46-.47c-.62,0-1.17.09-1.66.09a15.87,15.87,0,0,0-2.84.29,3.18,3.18,0,0,0-.08,1.17c.17.6.22,1,.45,1.66a46.82,46.82,0,0,0,2.25,5.51,20.37,20.37,0,0,0,9.39,9.3,10.11,10.11,0,0,0,8.15-.56c.73-.45,1.56-1.11,2.22-1.62a3.57,3.57,0,0,0,1.73-2.72M168.44,130a22.24,22.24,0,0,0,1.17-7.79l-.09-2.38c-.39-1.65-.56-3.36-1.08-4.94a40.74,40.74,0,0,0-3.41-8.15,49.64,49.64,0,0,0-15.19-16A31.58,31.58,0,0,1,147.18,88c-.48-.65-.72-.94-1.2-1.59-1-1.39-2.15-2.79-3.06-4.22-.33-.51-.3-.62-.67,0s-.83.94-1.3,1.57c-1,1.27-1.86,2.49-2.79,3.75-.42.4-.54.84-1,1.24a18.62,18.62,0,0,1-1.91,2c-.27.31-1,.8-1.26,1.11-6.43,4.94-12.67,9.84-16.09,17.85a44.34,44.34,0,0,0-1.79,6.23l-.18,2.74c-.65,2.93.14,8.22.81,10.62a37.8,37.8,0,0,0,1.52,5c1.88,4.36,4.81,8,7.37,11.72,1.61,2.34,3,4.86,4.49,7.32A37.78,37.78,0,0,1,133.4,161c.57,1.79.79,4,1.26,5.68a6.14,6.14,0,0,0,3,.09c.54-1,.43-.7.43-2.16.06,0-.77-23.2,4.37-69.8,0,0,.05-.07.06,0,3.86,29.9,4,30,4.13,70.13l.27,1.65.27.18c.55.45,1.9.1,2.51,0,.14-.19.41-.27.54-.46.38-.55.3-1.28.54-2,.41-1.29.7-2.66,1.17-3.94a54.29,54.29,0,0,1,4-9.06c1.36-2.27,2.79-4.48,4.32-6.59.73-1,1.78-1.88,2.51-2.93A40.55,40.55,0,0,0,168.44,130m-9.71,74.25c.24-.79-.55-1.53-.8-1.93-1-1.57-2.08-3.09-3.06-4.67-.37-.59-.54-1.22-.9-1.83A27.58,27.58,0,0,1,151.9,192c-1.62-4-2-9.37-3.05-13.92a.92.92,0,0,0-.72-.55c-.47,0-1.34-.23-1.76.48a10.52,10.52,0,0,0-.85,3.64c-.21,1.37-2.09,16.5-3.42,16.62-1.2-1.12-2.39-11.67-2.93-14.73.1.41.14.55,0-.29,0-.05,0-.12-.05-.2a.5.5,0,0,0,0-.12c-.31-1.33-.25-4.8-1.26-5.21-.35-.32-1.13-.29-1.8-.28-.2,0-.25,0-.45.09-.33,1.25-.12,1.17-.36,3.85a17.79,17.79,0,0,1-.36,2.84,55.68,55.68,0,0,1-1.44,5.58,57.28,57.28,0,0,1-5.21,10.35,24.17,24.17,0,0,0-2.42,4c.49.37.92.91,1.43,1.28,3.46,2.48,6.81,5,10.25,7.5a17,17,0,0,0,4.94,3.3,31,31,0,0,0,3.33-2.11c3-2.11,5.94-4.37,8.9-6.5.84-.6,3.88-2.52,4.13-3.38m-.91-31.73c.09-.75,0-1-.2-1.34-.16-.11-.08,0-.41-.06-3.93-.12-3.32-.11-4.36-.11H142.17a25.76,25.76,0,0,1-3.83,0h-7.55a11.84,11.84,0,0,0-3.59.19,1.06,1.06,0,0,1-.18.27,6.33,6.33,0,0,0,.09,1.37,1.35,1.35,0,0,0,.36.19c.41.31,1.46.18,2.15.18h5.49l14.28-.09c2.59,0,5.81.31,8.09-.19a.43.43,0,0,0,.34-.41" transform="translate(-11.56 -9.37)" fill="#000"/><path d="M239,142.37c.11,2.49.39,6-.09,8.33l-.27.09c-.35.23-1,0-1.26-.18-.82-.42-2.61-1.08-2.79-2.11a6,6,0,0,1-.08-2.11,28,28,0,0,1,.26-5.67,1.45,1.45,0,0,0,.36-.28,5.35,5.35,0,0,1,3.87,1.93" transform="translate(-11.56 -9.37)" fill="#000"/><path d="M237.81,129.36c1.53,1,1.62,7.3,1.08,9.89a2.07,2.07,0,0,1-1.08.19c-.94-.66-2.42-.52-3.06-1.47a5.52,5.52,0,0,1-.44-1.83c-.17-.71-.2-1.78-.36-2.56V132a6.75,6.75,0,0,1-.09-2.47,4.7,4.7,0,0,1,.54-.37c.37-.13.87,0,1.16-.18a4.12,4.12,0,0,1,2.25.36" transform="translate(-11.56 -9.37)" fill="#000"/><path d="M236.64,152.34c2.12,1.19,2.53,2,1.8,4.95-.35,1.43-.15,4.49-1.8,4.48-1-.75-2.29-1.07-3-2.1-.87-1.32-.12-4.9.27-6.23.23-.8.2-1.3.63-1.83a3.38,3.38,0,0,1,2.06.73" transform="translate(-11.56 -9.37)" fill="#000"/><path d="M237.09,121c.49,1.81,1.19,4.16.72,6a2.1,2.1,0,0,1-.72.18,4.79,4.79,0,0,1-3-.18c-.79-.42-.94-1.29-1.26-2.2-.54-1.51-1.68-5.37-1.26-7a3.54,3.54,0,0,0,.81-.28c1.23.41,2.67,0,3.59.64s.79,1.76,1.08,2.84" transform="translate(-11.56 -9.37)" fill="#000"/><path d="M236.55,164.7c.34,1.27-.36,3.36-.63,4.22-.36,1.16-.06,3.13-1.61,3.11-.92-.87-2.24-1.42-2.79-2.66-.81-1.82.46-6.69,1.53-7.78a6.45,6.45,0,0,1,3.5,3.11" transform="translate(-11.56 -9.37)" fill="#000"/><path d="M233.59,174.32c.41,1.71-.9,4.22-1.35,5.31-.38.9-.6,2.81-1.71,2.93-.92-1-2.32-2.31-2.69-3.76a4.27,4.27,0,0,1,.45-2.28,17.08,17.08,0,0,1,2-5.13.92.92,0,0,1,.54.09,5.12,5.12,0,0,1,2.79,2.84" transform="translate(-11.56 -9.37)" fill="#000"/><path d="M229.45,105a4.43,4.43,0,0,1,2.25.28c.71.48,1,1.52,1.35,2.38.72,1.7,1.35,3.4,2,5.31a4.37,4.37,0,0,1,.45,2.28c-1,.65-3.14.7-4.58.37-1.25-2-1.78-4.69-2.78-7-.36-.85-1.11-2-.72-3a6.66,6.66,0,0,1,.81-.37c.44-.12.92,0,1.25-.18" transform="translate(-11.56 -9.37)" fill="#000"/><path d="M228,96.31c.79,1.31,2.73,4.26,2.78,6a7.07,7.07,0,0,1-4.85.54,43,43,0,0,1-2.7-4.85,6.26,6.26,0,0,1-1.16-3.11,8.18,8.18,0,0,1,1.88-1c.33-.1.82,0,1.08-.18a2.65,2.65,0,0,1,1.71.55,7.07,7.07,0,0,1,1.26,2" transform="translate(-11.56 -9.37)" fill="#000"/><path d="M226.67,181.28c1,.35,3.32,2.54,2.87,4.21a17.45,17.45,0,0,1-2.06,4.12c-.46.75-.76,2.17-1.62,2.47a.63.63,0,0,1-.36.09c-.7-.73-2.71-3-2.25-4.76a18.49,18.49,0,0,1,1.62-3.48c.39-.76.72-2.17,1.53-2.47.07-.06.2-.12.27-.18" transform="translate(-11.56 -9.37)" fill="#000"/><path d="M224,89.17c.3.49,1.42,1.68,1.17,2.29-.06.38-.13.44-.45.55a4.74,4.74,0,0,1-1.53.46,4.51,4.51,0,0,1-1.79.46c-1.8-.29-2.92-3.09-3.87-4.4-.71-1-2.1-1.9-2.15-3.48.07-.09,0,0,.09-.18a3.93,3.93,0,0,1,.89-.46c.64-.17,1.49,0,2-.27,3.21,0,4.42,3,5.66,5" transform="translate(-11.56 -9.37)" fill="#000"/><path d="M224.24,194.09c.16.78-.46,1.58-.72,2-.74,1.25-1.36,2.36-2.15,3.48-.53.74-1.14,2.1-2.25,1.92a12.62,12.62,0,0,1-.54-1.37,11.35,11.35,0,0,1-1.17-2.48c-.15-.82.53-1.63.81-2.1a24.3,24.3,0,0,1,3.6-5.22c.92.12,1,.81,1.43,1.47a7.61,7.61,0,0,1,1,2.28" transform="translate(-11.56 -9.37)" fill="#000"/><path d="M218.31,81.66a2.53,2.53,0,0,0-.18.37c-.5.24-3.6,1.19-4.31,1s-1.43-1.09-2-1.65a27.73,27.73,0,0,1-2.69-2.84,16,16,0,0,0-1.26-1.65,3,3,0,0,1,.09-.73,9.29,9.29,0,0,1,1.89-.82c.5-.14,1.14,0,1.52-.28,2.16,0,4.64,3.1,5.66,4.49.46.62,1.18,1.1,1.26,2.1" transform="translate(-11.56 -9.37)" fill="#000"/><path d="M216.06,199.4c1,.34,2.16,2.91,1.62,4.58s-2.15,3-3.32,4.21h-.63a9.51,9.51,0,0,1-1.53-3.2,2.67,2.67,0,0,1,.36-1.65,11.11,11.11,0,0,1,2.88-4,1.21,1.21,0,0,1,.62.09" transform="translate(-11.56 -9.37)" fill="#000"/><path d="M212.38,209.29c.11.71-.46,1.27-.72,1.65-.62.93-2.69,3.5-3.86,3.66-.1-.07,0,0-.18-.09-.24-.52-.3-1.16-.54-1.74s-.67-.82-.81-1.28a2.59,2.59,0,0,1,.54-2.11c.55-.9,1.09-1.64,1.71-2.47a17.23,17.23,0,0,1,1.61-1.46h.45a10.64,10.64,0,0,1,1.8,3.84" transform="translate(-11.56 -9.37)" fill="#000"/><path d="M209.06,71c.57.59,1.64,1.15,1.7,2.2-.78.5-3.91,1.58-5.21,1.1s-2.16-1.75-3.23-2.57a37.85,37.85,0,0,1-3.42-3c.1-1.6,2.74-1.63,3.78-2.38,2.39,0,5,3.32,6.38,4.67" transform="translate(-11.56 -9.37)" fill="#000"/><path d="M206.36,215.61c-.21.23-.26.56-.45.82a15.42,15.42,0,0,1-3.41,3c-.55.41-.94,1-1.8,1.1-.09-.07,0,0-.18-.09a12.28,12.28,0,0,1-.63-1.74c-1.29-4.4,2.31-5.27,4.31-7.23a3.27,3.27,0,0,1,.63.09,7.07,7.07,0,0,1,1.53,4" transform="translate(-11.56 -9.37)" fill="#000"/><path d="M199.35,62.62c.7.5,2,1,2,2.11-.54.35-1.25.4-1.89.73a6.69,6.69,0,0,1-1.08.64c-2.53.78-5.52-1.72-6.92-2.66-.78-.52-2.43-1-2.6-2.1a17.16,17.16,0,0,1,2.25-1.92c.39-.26.89-.35,1.25-.64,2.89-.07,5.22,2.56,7,3.84" transform="translate(-11.56 -9.37)" fill="#000"/><path d="M197.91,217.35c.38.66,1.49,2.65,1.17,3.84-.44,1.64-3.22,3.08-4.58,3.94a3.25,3.25,0,0,1-1.8.83,3.63,3.63,0,0,1-.27-.28c-.31-.43,0-1.17-.18-1.83a4.87,4.87,0,0,1-.27-2.29c.6-1.92,3.7-3,5-4.3a1.15,1.15,0,0,1,.89.09" transform="translate(-11.56 -9.37)" fill="#000"/><path d="M196.3,142.18a1.26,1.26,0,0,1,.18.73,6.33,6.33,0,0,0-1.53,3,5.7,5.7,0,0,1,1.26,3l-.18.09c-.94.71-2.37-.72-3.69-.37s-1.58,1.53-3,1.56c-.49-.89-.43-2.45-1-3.3s-2.22-1-2.25-2.65a7.3,7.3,0,0,1,1.08-.73c.72-.31,1.56-.34,2-.92.56-.77.68-2.13,1.17-2.93,1.41.08,1.84,1.66,2.78,2.29s2.14,0,3.15.18" transform="translate(-11.56 -9.37)" fill="#000"/><path d="M191.18,57.4c.12.21,0,.3,0,.55-.39.2-.88.31-1.26.55a9.21,9.21,0,0,1-2.52,1.56,3.51,3.51,0,0,1-2.42-.55c-1.28-.55-2.44-1.13-3.6-1.65-.78-.35-2.7-.9-3-1.65-.08-.11-.08-.15-.09-.36a34.54,34.54,0,0,1,2.51-2.48,9.3,9.3,0,0,0,1-.64,5.92,5.92,0,0,1,3,1.1c1.54.82,3.14,1.49,4.58,2.38.57.36,1.54.53,1.8,1.19" transform="translate(-11.56 -9.37)" fill="#000"/><path d="M190.28,221.93c.72,1.15.63,4.09.27,5.49-1.61,1-3.31,1.92-5,2.84-.43.23-1.45,1-2,.73-.28-.05-.22,0-.36-.18-.38-.52-.31-2.88-.09-3.57,1-3.19,4.55-3.3,6.65-5.31Z" transform="translate(-11.56 -9.37)" fill="#000"/><path d="M181.92,227.6c.33,4.65-2.06,5-5.21,6.32-1,.42-2.84,1.43-4,1a4,4,0,0,1,.26-2.66c.39-1.29.68-2.42,1.62-3.11a15.78,15.78,0,0,1,3.24-1.37c.28-.13.61-.43.9-.55a7,7,0,0,0,1.34-.46l1.17.09a6.22,6.22,0,0,0,.63.73" transform="translate(-11.56 -9.37)" fill="#000"/><path d="M181.73,109.31a1.52,1.52,0,0,1,.18-.23c0,.09-.57.82-.23.29l0-.06" transform="translate(-11.56 -9.37)" fill="#000"/><path d="M179.13,51.36c.17.19.18.35.18.73-.83.94-1.42,2.28-2.69,2.75-2.06.77-5-1-6.47-1.47-1.06-.35-3.77-.55-3.86-1.74.68-.73,1.17-1.67,1.79-2.47.39-.5,1.13-.69,1.62-1.1,2.81-.08,4.93,1.21,7,2,.8.31,2.14.47,2.42,1.28" transform="translate(-11.56 -9.37)" fill="#000"/><path d="M174.37,257.63c1.26,2-1.54,3.73-2.6,4.86h-.63c-.8-.84-3.21-2.57-3-3.94a21.59,21.59,0,0,1,3.15-.83c.67-.16,1.55.07,2.06-.27a3.37,3.37,0,0,1,1,.18" transform="translate(-11.56 -9.37)" fill="#000"/><path d="M172.76,255.89a1.23,1.23,0,0,1-.18.46c-.7.67-1.8.21-3,.46a11.6,11.6,0,0,1-3.68.18c-.59-.25-.93-.94-1.35-1.37-1.12-1.14-2.19-2.36-3.33-3.48a3.73,3.73,0,0,1,.09-.82,10.07,10.07,0,0,1,1.89-.55c.62-.14,1.28.11,1.71-.19a9.46,9.46,0,0,1,3.32.28,4,4,0,0,1,1.26,1.1,22,22,0,0,1,2.25,2.38c.36.5.6,1.07,1,1.55" transform="translate(-11.56 -9.37)" fill="#000"/><path d="M171.32,230.35a1.45,1.45,0,0,1,.27,1c-.66.89-.81,3.08-1.44,4.12s-2.28,1.61-3.51,1.92c.09.08,0,0,.18.09.43.32.88.28,1.17.73.59.76,0,3.84-.18,4.58a1,1,0,0,1-.81.28,13.58,13.58,0,0,0-1.16-.83,25,25,0,0,1-2.79-2.65c0-1,.55-1,.81-1.65H162.6a3.33,3.33,0,0,1-1.53.18,1.39,1.39,0,0,1-.36-.82c1.16-1.62,1.35-4.09,3.06-5.13,1.14-.7,3.72-1.13,5.12-1.56.58-.17,1.36-.05,1.8-.36a2.64,2.64,0,0,1,.63.09" transform="translate(-11.56 -9.37)" fill="#000"/><path d="M166.82,244.82a4.31,4.31,0,0,1-.27,2.19c-.27.42-.84.34-1,.92a1.65,1.65,0,0,1,.72,1.19c-.7.44-1.62.3-2.61.55s-3.46,1.21-4.4,1l-.33-.08a9.3,9.3,0,0,1-1.86-.76c-.68-.36-1.31-.75-2-1.09-.87-.46-2.77-.75-2.78-2,1-1,2.44-3.09,3.95-3.48.7-.18,1.39.37,1.8.55l3.23,1.46a4.53,4.53,0,0,0,1.44.64v-.18c-.47-.31-.69-.8-1.08-1.19-.09-.92,0-2.44.81-2.75.07-.06.2-.11.27-.18a11.56,11.56,0,0,1,4,3.21" transform="translate(-11.56 -9.37)" fill="#000"/><path d="M164.94,46.42c.87.27,1.71.11,1.79,1.19-1,1.27-1.79,3-3.59,3.47-1.46.37-4.93-.51-6-.82-.65-.19-1.51-.12-1.71-.73s.25-1,.36-1.28a4.81,4.81,0,0,1,1.62-2.57l.81-.27a21,21,0,0,1,6.74,1" transform="translate(-11.56 -9.37)" fill="#000"/><path d="M164.94,229.8a1,1,0,0,0-.18.46,6.28,6.28,0,0,1-6.65.46c-.89-.39-1.81-.42-1.8-1.74a23.52,23.52,0,0,0,1.53-2.38,10.6,10.6,0,0,1,1.53-1.38,3.18,3.18,0,0,1,1.52.28c1.25.58,4,2.6,4.05,4.3" transform="translate(-11.56 -9.37)" fill="#000"/><path d="M160.8,252.87a1.34,1.34,0,0,1,.18.92,7,7,0,0,1-5.39,2.47,2,2,0,0,1-.27-.46c-.32-.54.34-1.13.54-1.46a21.68,21.68,0,0,1,1.13-2,2.59,2.59,0,0,1,.49-.5c.25-.2.56-.27.81-.46a2.22,2.22,0,0,1,.44,0,2.63,2.63,0,0,1,2.07,1.43" transform="translate(-11.56 -9.37)" fill="#000"/><path d="M160.09,233.19c.34.11.41.2.44.64a9.84,9.84,0,0,0-.89,2.29,9.71,9.71,0,0,1-1.17,2c-.93,1.23-6.77,1.22-8.81.73a1.41,1.41,0,0,1-.27-.64c1-1.21,1.78-3.47,3.24-4.12,1.26-.56,3-.48,4.4-.82.48-.12,1.24.06,1.62-.18a3.34,3.34,0,0,1,1.44.09" transform="translate(-11.56 -9.37)" fill="#000"/><path d="M156.76,224.67l.09.28a1.3,1.3,0,0,1,.09.64c-.91.95-1.29,2.38-2.07,3.48s-2.33,1.5-3.68,2.1c-1,.47-2.15,1.12-3.15,1.65-.6.32-1.22.47-1.79.83-.86.53-1.78,1.44-3,1.55-.14-.16-.17-.12-.27-.36-.3-.53.71-3,.9-3.57a10,10,0,0,1,1-2.57c1.11-1.56,4.31-2.83,6.29-3.57l2.34-.64c.32-.08.68,0,.89-.09a8.8,8.8,0,0,1,2.34.27" transform="translate(-11.56 -9.37)" fill="#000"/><path d="M156.4,250.22a1.25,1.25,0,0,1,.27.91c-.23.27-.45.54-.67.83a14,14,0,0,1-3,3.48,2.58,2.58,0,0,1-2.16.18c-1.63-.5-4.39-1.14-5.48-2.2.24-1,2.27-2.54,3.14-2.93.39-.17.92-.13,1.26-.36,2.2,0,4.6-.06,6.65.09" transform="translate(-11.56 -9.37)" fill="#000"/><path d="M154.87,45c.37.61-.81,2.07-1.07,2.47-.42.63-.73,1.35-1.44,1.65a6.26,6.26,0,0,1-3.33.09H147L143.64,49l-.27-.37c-.67-.86.38-4.12.9-4.48.32-.22.76-.24,1.08-.46a28.74,28.74,0,0,1,7,.64c.92.21,2.19-.15,2.51.64" transform="translate(-11.56 -9.37)" fill="#000"/><path d="M153.62,242.34a1.47,1.47,0,0,1,.36,1c-1.14,1.21-3,4.21-5,4.3l-1.43-.64c-.76-.46-1.54-1-2.34-1.46-.63-.33-1.46-.48-1.71-1.19-.42-.72.4-1.16.81-1.38a10.79,10.79,0,0,1,2.25-.73c.74-.17,1.69.09,2.24-.27a20.61,20.61,0,0,1,4.86.36" transform="translate(-11.56 -9.37)" fill="#000"/><path d="M150.56,233.92a1.41,1.41,0,0,1,.18.82c-1,1-2,2.66-3.41,3.21s-3-.17-3-1.47c.07-.09,0,0,.09-.18a25,25,0,0,1,3.68-1.92c.56-.23,1.33-.2,1.8-.55a2.64,2.64,0,0,1,.63.09" transform="translate(-11.56 -9.37)" fill="#000"/><path d="M145.8,247.75c.75.42,1.89.64,2,1.73a10.52,10.52,0,0,1-4.14,2.39,3.26,3.26,0,0,1-2.42-.65,15.52,15.52,0,0,1-4.77-3c0-1.48,1.29-2.4,2.25-2.93l1-.36c2.11-.06,4.59,2,6.11,2.84" transform="translate(-11.56 -9.37)" fill="#000"/><path d="M142,230.9c0,2.19-1.05,5-2.33,5.77s-3.22.85-4.85,1.37-4,1.16-5.66.82v-.18c-.39-.65,1.06-2.54,1.34-3,.43-.72.65-1.48,1.35-1.92.95-.61,2.3-.57,3.51-.92a32.61,32.61,0,0,0,4.13-1.65,7.47,7.47,0,0,0,1.71-.73l.54.09a1.44,1.44,0,0,0,.26.37" transform="translate(-11.56 -9.37)" fill="#000"/><path d="M141.93,44v1.65c-.43.68-.09,1.92-.71,2.38-.86.63-5.44,1-6.92,1.1-1,.06-1.84.4-2.61.09v-.09c-.27-.35-.1-.84,0-1.28.38-1.67.37-2.72,1.53-3.57.41-.3,1-.34,1.44-.64h5.39c.7,0,1.66-.12,1.88.36" transform="translate(-11.56 -9.37)" fill="#000"/><path d="M138.34,229.25c.46.77-.66,1.15-1.08,1.37-1,.54-4.69,2.78-5.48.46-.15-.16-.16-.23-.18-.55,1-1.13,2.53-1.87,3.69-2.84.73,0,2.86,1.06,3.05,1.56" transform="translate(-11.56 -9.37)" fill="#000"/><path d="M138.34,243.53c.07.1,0,.09.09.28-.94,1.16-2.55,3.17-4.13,3.57a5.59,5.59,0,0,1-2.61-.28,25.72,25.72,0,0,0-3.05-.27c-1-.09-2.25.24-2.61-.46-.25-.47.13-1.16.27-1.55A5.66,5.66,0,0,1,128,242c.3-.21.7-.24,1-.46a21.16,21.16,0,0,1,7.27,1c.79.26,1.8.23,2.07,1" transform="translate(-11.56 -9.37)" fill="#000"/><path d="M136.72,250.4a1.1,1.1,0,0,1,.09.64c-1.78,1.29-6.28,3.59-9.25,2.93l-.09-.27c-.37-.6.27-1.6.45-2a5.54,5.54,0,0,1,1.79-2.65c.5-.33,1.2-.31,1.71-.64,1.8-.06,4.92.86,5.3,2" transform="translate(-11.56 -9.37)" fill="#000"/><path d="M133.31,227a1,1,0,0,1,.09.55c-1.53,1.47-4.36,3.39-7.37,2.66-1-.25-2.44.18-3-.55-.69-.88.07-3.05.27-3.76.24-.15.44-.43.71-.55s.76,0,1-.18a16.53,16.53,0,0,1,6.65.83c.6.25,1.39.37,1.62,1" transform="translate(-11.56 -9.37)" fill="#000"/><path d="M130.07,45.23a14.34,14.34,0,0,1-.53,4c-1.76,1-4.63,1.19-6.83,1.74-.72.18-2.16.54-2.61,0s0-2.14.18-2.74c.27-.9.4-1.93,1.08-2.38s1.65-.24,2.51-.46,2-.43,2.88-.64c.59-.15,1.34,0,1.8-.28a1.51,1.51,0,0,1,.9.19c.34.11.4.32.62.55" transform="translate(-11.56 -9.37)" fill="#000"/><path d="M127.92,232.82c1,.25,2,0,2,1.19-1.11,1.18-1.57,3.62-3,4.4a3.68,3.68,0,0,1-2.07-.09c-1.27-.33-5.31-1.09-5.66-2.11-.31-.5.18-1.07.36-1.37a7.35,7.35,0,0,1,1.62-2.2c.32-.24.75-.31,1.08-.55a21,21,0,0,1,5.75.73" transform="translate(-11.56 -9.37)" fill="#000"/><path d="M126.75,249.3a1.22,1.22,0,0,1,.27.73c-.83,1.13-1,3-2.34,3.57-2.05.88-5.92-1.22-7.1-2-.56-.38-1.31-.54-1.43-1.37a20.51,20.51,0,0,1,2-.83c.41-.18.85-.55,1.26-.73s.65-.09.9-.27a16,16,0,0,1,6.47.91" transform="translate(-11.56 -9.37)" fill="#000"/><path d="M125.76,242c.35.45,0,1.18-.18,1.65-.33,1-.32,2.32-.9,3.11-.18.25-.58.34-.81.55-1.89,0-3.87-1.57-3.86-3.39a5.44,5.44,0,0,1,1.8-1.56,18.57,18.57,0,0,0,2.42-.64c.63,0,1.26-.07,1.53.28" transform="translate(-11.56 -9.37)" fill="#000"/><path d="M121.81,228.15a7.23,7.23,0,0,1-.09,2.11c-.23.6-.7.83-1.17,1.19a11.75,11.75,0,0,0-2.25,2.65c-.62,1-1,2.92-2.42,3-1.15-1-2.82-1.31-3.42-2.83s.89-2.73,1.44-3.48a18.2,18.2,0,0,1,4.85-4.49,17,17,0,0,0,1.62-.73,4.71,4.71,0,0,1,1,.09,3.58,3.58,0,0,1,.45.92Z" transform="translate(-11.56 -9.37)" fill="#000"/><path d="M118.12,244c.48.79,1.76,1.81,1.8,2.84a8.38,8.38,0,0,1-1.71,1c-.7.26-1.55.46-2.24.64a1.93,1.93,0,0,1-2.16-1.1c-1-1.44-1.21-3.18-1.71-5.13-.21-.84-1-4.43-.45-5.22.08-.24.16-.26.27-.45a2.83,2.83,0,0,1,2.07.82,6.66,6.66,0,0,1,1.71,1.28c1.09,1.51,1.44,3.69,2.42,5.31" transform="translate(-11.56 -9.37)" fill="#000"/><path d="M118.48,47.15c0,2-.72,4.51-2,5.31-.92.57-2.41.59-3.42,1-.68.28-2.92,1.46-3.5.54a4.79,4.79,0,0,1-.09-2.56c.26-1.21.27-2,1.08-2.56,1.25-.92,3.47-1.31,5-1.83a7.17,7.17,0,0,0,1.7-.46,3.18,3.18,0,0,1,.9.18,1.68,1.68,0,0,0,.27.37" transform="translate(-11.56 -9.37)" fill="#000"/><path d="M112.55,248.2c.69,1.06,2.74,2.56,2.88,3.94-.8.83-1.79,2.1-3.15,2.29a1.73,1.73,0,0,0-.36-.18,7,7,0,0,1,0-6.05Z" transform="translate(-11.56 -9.37)" fill="#000"/><path d="M111.92,229c.21.13.3.45.45.64-.38,1.74-2,3.06-3.14,4.12-2.2.06-4.86-1.74-6.56-2.47-.73-.32-1.8-.34-2.07-1.1-.39-.6.19-.9.63-1.19A15.42,15.42,0,0,1,104,227.6c.45-.17,1-.11,1.43-.36a13.1,13.1,0,0,1,4.14,1,9.78,9.78,0,0,1,2.33.74" transform="translate(-11.56 -9.37)" fill="#000"/><path d="M109.5,250.49c.78,1.29,1,3.93.9,5.77-.82.64-1.43,1.66-2.25,2.29a15.83,15.83,0,0,0-2.16,1.83h-.63c-1-.95-2.52-1.65-2.6-3.48.2-.26.25-.64.45-.91l1.26-1.19,1.61-1.74c.64-.5,1.09-1.18,1.71-1.65a5.59,5.59,0,0,0,1.17-.92Z" transform="translate(-11.56 -9.37)" fill="#000"/><path d="M107.07,50.54c.58,1,.54,3.17.36,4.66a24.56,24.56,0,0,1-4.49,2.29c-1,.45-2,1.19-3.42.92a6.67,6.67,0,0,1-.63-1.65,4.31,4.31,0,0,1,.36-3c.65-.92,4.34-2.39,5.57-2.93a6.69,6.69,0,0,0,1.35-.46,2.68,2.68,0,0,1,.9.19" transform="translate(-11.56 -9.37)" fill="#000"/><path d="M102.85,226.5c-.07.1,0,0-.09.19-1,.6-3.75,2.37-5.48,1.92a13.88,13.88,0,0,1-3.87-2.11c-1-.62-2.58-.87-2.69-2.38a1.73,1.73,0,0,0,.18-.36,12.2,12.2,0,0,1,2.51-1.1c.39-.12,1,0,1.26-.18,2.94-.08,4.78,1.24,6.56,2.38.66.42,1.57.6,1.62,1.64" transform="translate(-11.56 -9.37)" fill="#000"/><path d="M96.65,55.3a10.74,10.74,0,0,1,.27,5.12c-1.78,1.06-3.5,2.27-5.3,3.3-.43.24-1.52.93-2,.27a5.29,5.29,0,0,1-.45-1.74,4.65,4.65,0,0,1-.36-2.47c.26-.79,1.24-1.21,1.89-1.65,1.11-.74,2.35-1.48,3.5-2.19a17.38,17.38,0,0,0,1.8-.83,1.87,1.87,0,0,1,.63.19" transform="translate(-11.56 -9.37)" fill="#000"/><path d="M91.71,140.81c1.08-.35,1.64-1.6,2.33-2.38.32,0,.48-.39.72.09.55.94.85,2.57,1.71,3.2s2.7.76,2.78,1.93c-.82.79-2.33,1.55-2.78,2.65s.46,3.18-1.26,3.21c-.42-.58-2.11-2.17-3.14-2s-1.77.75-2.88.83c-.26-.27-.35-.25-.36-.83A6.67,6.67,0,0,0,90,144.75,8.34,8.34,0,0,1,88.29,141a1.36,1.36,0,0,0,.36-.27c1.07,0,2.08.41,3.06.09" transform="translate(-11.56 -9.37)" fill="#000"/><path d="M93.77,220.74c.11.19,0,.2,0,.45a26,26,0,0,1-4.31,1.47H88.2c-1.64-.47-3.08-1.94-4.4-2.84-.53-.36-2.87-1.58-2.61-2.47.32-1.1,2.7-.62,3.6-1.19,3.52-.09,4.92,1.59,6.92,3,.61.44,1.79.81,2.06,1.56" transform="translate(-11.56 -9.37)" fill="#000"/><path d="M88,63.9a3,3,0,0,1-1.17,2.75,25,25,0,0,1-3.32,2.93,13.14,13.14,0,0,0-2,1.46,2.78,2.78,0,0,1-.81-.09A12.35,12.35,0,0,1,80,69c-1.34-4.63,4.31-6.25,6.37-8.24A3.36,3.36,0,0,1,87,61a30.4,30.4,0,0,1,1,2.93" transform="translate(-11.56 -9.37)" fill="#000"/><path d="M84.16,214.33c-.07.09,0,0-.09.18a10.48,10.48,0,0,1-2.34,1.1,5.46,5.46,0,0,1-2.51,0c-1.85-.62-4.3-3.15-5.48-4.58l.17-.55a14.79,14.79,0,0,1,2.16-.73c.47-.12,1.08.05,1.44-.18,2.84,0,3.65,1.63,5.21,2.84.6.46,1.37.93,1.44,1.92" transform="translate(-11.56 -9.37)" fill="#000"/><path d="M79.13,71.41a2.9,2.9,0,0,1-.9,2.47,27.47,27.47,0,0,1-3.06,3.39c-.69.71-1.66,2.41-2.87,2.2-.4-.88-1.5-3.52-1.17-4.86a6.29,6.29,0,0,1,2.07-2.83c1.43-1.46,2.86-2.86,4.4-4.22a.65.65,0,0,1,.45.28c.29.4.16,1.25.36,1.74a12.7,12.7,0,0,1,.72,1.83" transform="translate(-11.56 -9.37)" fill="#000"/><path d="M75.35,205.17c.64.65,1.65,1.27,1.8,2.38-.83.79-2.78.9-4.31.92a5,5,0,0,1-1.8-.09c-.76-.39-2.49-2.7-3.06-3.48s-1.55-1.2-1.34-2.38a2.14,2.14,0,0,1,.63-.19c.14-.09.57-.08.71-.18a13.64,13.64,0,0,1,3.69.09c1.41.48,2.71,1.94,3.68,2.93" transform="translate(-11.56 -9.37)" fill="#000"/><path d="M69.69,76c.47.73,2,3.62,1.62,4.94-.41,1.49-1.7,2.56-2.52,3.66-.51.7-1.26,2.37-2.33,2.38a10.27,10.27,0,0,1-2.07-3.47A3,3,0,0,1,65.11,81a36,36,0,0,1,4-5Z" transform="translate(-11.56 -9.37)" fill="#000"/><path d="M68.43,197.12c.36.38,1.95,1.94,1.53,2.65-.31.52-3.37,1.23-4.49.92-1.76-.5-3.11-3-4-4.49a3.1,3.1,0,0,1-.9-2,.61.61,0,0,1,.63-.37c1.89,0,4.3,0,5.48.82.77.54,1.15,1.78,1.79,2.48" transform="translate(-11.56 -9.37)" fill="#000"/><path d="M63.13,84.32c.6,1.27,2.18,3.5,2.25,5a23.67,23.67,0,0,0-1.26,2.2c-.55.89-1.25,1.78-1.8,2.66-.35.57-.6,1.49-1.25,1.74-.44.26-.81-.18-1-.46-.59-.89-.89-1.9-1.44-2.84a1.73,1.73,0,0,1-.45-1.46,8.46,8.46,0,0,1,1.08-1.84c.71-1.17,1.26-2.31,2-3.47.35-.58.88-1.1,1.25-1.65a2.64,2.64,0,0,1,.63.09" transform="translate(-11.56 -9.37)" fill="#000"/><path d="M62.59,188.51c.5.8,1.39,1.43,1.44,2.65-.92.62-4.52.66-5.48,0s-1.59-2.26-2.16-3.38c-.4-.79-1.41-1.85-1-2.84a.28.28,0,0,1,.26-.09c2.29,0,4.89,0,5.84,1.37.48.68.65,1.59,1.08,2.29" transform="translate(-11.56 -9.37)" fill="#000"/><path d="M59.63,97.78a2.45,2.45,0,0,1-.36,1.55,32.42,32.42,0,0,1-1.44,3.48c-.36.72-.7,2.26-1.44,2.57s-.94-.45-1.16-.83c-.52-.84-2.27-2.34-1.89-3.84a20.1,20.1,0,0,1,3.5-7.24h.45a18.18,18.18,0,0,1,2.34,4.31" transform="translate(-11.56 -9.37)" fill="#000"/><path d="M58.1,179.9c.49.83,1.33,1.68,1.09,2.92-.47.12-1.12.44-1.63.56-3.69.87-4.59-2.21-5.48-4.3-.37-.86-1.19-1.72-1-2.84a.82.82,0,0,1,.72-.37c4.81,0,4.53,1.08,6.29,4" transform="translate(-11.56 -9.37)" fill="#000"/><path d="M55.14,107.67a2.66,2.66,0,0,1,.27,1.55l-1.17,2.66c-.36,1-.43,3.13-1.62,3.2-1.09-1.14-2.61-2.38-3.06-4.12a3.45,3.45,0,0,1,.27-1.83c.54-1.94.91-4.17,2.07-5.49a.78.78,0,0,1,.45.09c.83.29,2.41,3,2.79,3.94" transform="translate(-11.56 -9.37)" fill="#000"/><path d="M54.42,170.93c.27.75,1.3,2.76.45,3.39s-2.4,0-3.06-.19-.89-.09-1.26-.36a4.47,4.47,0,0,1-1.17-2.11c-.56-1.37-1.59-3.47-1.61-5.22l.54-.45c1.95,0,4.25.69,5,1.92a15.62,15.62,0,0,1,1.08,3" transform="translate(-11.56 -9.37)" fill="#000"/><path d="M51.54,160.86a7.65,7.65,0,0,1,.63,3.84,1.65,1.65,0,0,0-.36.28c-2.31.11-4.3-.87-5-2.66a22.24,22.24,0,0,1-.72-3c-.27-1-.82-2.67-.27-3.66a3.69,3.69,0,0,1,1.8.64,14.28,14.28,0,0,1,1.88.55c1.26.79,1.57,2.44,2.07,4" transform="translate(-11.56 -9.37)" fill="#000"/><path d="M48.76,113.43c1.06,1.58,3.89,3.26,3.14,6.5-.1.46-.25,1.19-.36,1.65-.29,1.23,0,2.82-1.44,2.84a14.33,14.33,0,0,1-3.05-3.48,4.06,4.06,0,0,1-.18-2.1c.38-1.69.61-4.06,1.44-5.41Z" transform="translate(-11.56 -9.37)" fill="#000"/><path d="M50.37,127.81a5.71,5.71,0,0,1-.27,2.29v1.19c-.23,1.07-.3,2.3-.54,3.29a1.23,1.23,0,0,1-.89.37c-1.17-1.1-2.76-1.87-3.42-3.48s.2-6.29.54-7.78c.16-.06.09,0,.18-.09a.71.71,0,0,1,.45.09c1,.33,2.13,2.08,2.87,2.84.36.35.92.75,1.08,1.28" transform="translate(-11.56 -9.37)" fill="#000"/><path d="M49.2,147.68a16,16,0,0,1,1,6.95c-.27.19-.26.32-.72.37-.49.23-1.55-.36-2-.55a4.32,4.32,0,0,1-1.71-.92c-1.33-1.62-1.49-5.28-1.35-8.05a2,2,0,0,0,.45-.37,7.85,7.85,0,0,1,4.31,2.57" transform="translate(-11.56 -9.37)" fill="#000"/><path d="M49.47,138.25c0,2,.22,4.94-.35,6.4a1.45,1.45,0,0,0-.36.28,13.59,13.59,0,0,1-4.32-2.56c-.11-2.33-.36-5.62.09-7.79a.85.85,0,0,0,.27-.18c1.25.17,3.78,3,4.67,3.85" transform="translate(-11.56 -9.37)" fill="#000"/></g><g id="Laag_2" data-name="Laag 2"><path d="M202,228.26l1.64,4.86a25.75,25.75,0,0,0-3.22,1,19.75,19.75,0,0,0-2.81,1.32,5.36,5.36,0,0,0-2.08,1.92,1.84,1.84,0,0,0-.12,1.93c.43.74,1.85,1,4.26.82l2-.15a12.94,12.94,0,0,1,6,.77,8,8,0,0,1,3.71,3.47,7.08,7.08,0,0,1,.43,6.5,12.06,12.06,0,0,1-5.49,5.75,23.84,23.84,0,0,1-3.65,1.7,27.94,27.94,0,0,1-4.1,1.14l-1.76-5.08c1.47-.37,2.77-.74,3.88-1.13a15.85,15.85,0,0,0,2.6-1.11,4.31,4.31,0,0,0,1.73-1.64,1.62,1.62,0,0,0,.05-1.68,2.08,2.08,0,0,0-.76-.77,2.82,2.82,0,0,0-1.14-.4,21.45,21.45,0,0,0-3.45-.06l-2,.08a10,10,0,0,1-4.75-1,7.56,7.56,0,0,1-3.19-3.05,7.27,7.27,0,0,1-.61-6.72q1.37-3.3,5.85-5.88c.46-.27.95-.52,1.47-.76a16.32,16.32,0,0,1,1.68-.68A29.54,29.54,0,0,1,202,228.26Z" transform="translate(-11.56 -9.37)" fill="#000"/><path d="M227,223.38l8.75,10.26L230.79,238l-7-8.26-.14-.16a4.87,4.87,0,0,0-2.2-1.6,2,2,0,0,0-1.95.53,4.38,4.38,0,0,0-1,1.48,11.6,11.6,0,0,0-.69,2.34l8.41,9.78-4.92,4.35-12.66-14.77,4.85-4.3,1.58,1.84a19.89,19.89,0,0,1,1.45-4.13,9,9,0,0,1,2.05-2.81,5.28,5.28,0,0,1,4.16-1.53,6.59,6.59,0,0,1,4.13,2.46Z" transform="translate(-11.56 -9.37)" fill="#000"/><path d="M245.24,207.18l-7.92,10.51a5.41,5.41,0,0,0,3.8.85,4.83,4.83,0,0,0,3.12-2,9.49,9.49,0,0,0,.79-1.2,7.93,7.93,0,0,0,.57-1.33,10.52,10.52,0,0,0,.56-2.93l4,1.09a29.55,29.55,0,0,1-1.2,4.92,15.75,15.75,0,0,1-.85,1.86,12,12,0,0,1-1.06,1.66,9.49,9.49,0,0,1-6.52,4.09,10.26,10.26,0,0,1-7.58-2.39,10.61,10.61,0,0,1-2.86-3.15,10.48,10.48,0,0,1-1.31-4.09,9.86,9.86,0,0,1,.34-3.77,10.18,10.18,0,0,1,1.67-3.4,8.52,8.52,0,0,1,6.38-3.68A11.65,11.65,0,0,1,245,207Zm-6.09,2a4.25,4.25,0,0,0-1.4-.72,3.62,3.62,0,0,0-1.47-.1,3.17,3.17,0,0,0-2.31,1.36,4,4,0,0,0-.9,2.82,5,5,0,0,0,1.36,2.85Z" transform="translate(-11.56 -9.37)" fill="#000"/><path d="M255.87,186.16,250.11,198a5.52,5.52,0,0,0,3.89.11,4.87,4.87,0,0,0,2.69-2.56,8.31,8.31,0,0,0,.85-2.74,10.65,10.65,0,0,0,0-3l4.14.3a30.69,30.69,0,0,1-.23,5.06,19.11,19.11,0,0,1-.48,2,13.29,13.29,0,0,1-.73,1.84,9.53,9.53,0,0,1-5.61,5.27,10.36,10.36,0,0,1-7.9-.9,10.86,10.86,0,0,1-3.42-2.55,10.6,10.6,0,0,1-2.06-3.76,9.93,9.93,0,0,1-.39-3.77,10.47,10.47,0,0,1,1-3.66,8.53,8.53,0,0,1,5.56-4.83q3.68-1,8.19,1.21Zm-5.59,3.16a4.19,4.19,0,0,0-1.5-.44,3.72,3.72,0,0,0-1.47.18,3.26,3.26,0,0,0-2,1.78,4,4,0,0,0-.34,2.94,4.94,4.94,0,0,0,1.88,2.54Z" transform="translate(-11.56 -9.37)" fill="#000"/><path d="M238.63,175.89l1.58-6.11L268,177.34l-1.6,6.2Zm12.21-10,1.81-7,7.13,9.38,11.72-4.6-1.93,7.52-11.34,3.46Z" transform="translate(-11.56 -9.37)" fill="#000"/><path d="M115.53,262.75l-.6,1.31a8.36,8.36,0,0,0-.85-.42,5,5,0,0,0-.83-.27,1.55,1.55,0,0,0-.8,0,.54.54,0,0,0-.4.37q-.08.36.72,1l.43.36a3.5,3.5,0,0,1,1.08,1.32,2.13,2.13,0,0,1,.09,1.42,2,2,0,0,1-1.16,1.42,3.42,3.42,0,0,1-2.24.11,6.18,6.18,0,0,1-1.08-.35,9.91,9.91,0,0,1-1.06-.56l.62-1.38c.38.21.71.38,1,.52a6,6,0,0,0,.75.27,1.26,1.26,0,0,0,.67,0,.46.46,0,0,0,.34-.33.65.65,0,0,0,0-.31.71.71,0,0,0-.15-.3,5.78,5.78,0,0,0-.7-.68l-.43-.38a2.75,2.75,0,0,1-.78-1.13,2.18,2.18,0,0,1-.06-1.24,2,2,0,0,1,1.17-1.49,3.63,3.63,0,0,1,2.34-.08l.44.13a3.19,3.19,0,0,1,.48.19A7.52,7.52,0,0,1,115.53,262.75Z" transform="translate(-11.56 -9.37)" fill="#000"/><path d="M116.29,264.78l1.8.36-1.15,5.36-1.8-.36Zm.45-2.25,1.8.36-.3,1.52-1.8-.36Z" transform="translate(-11.56 -9.37)" fill="#000"/><path d="M124.48,267.91l-.66,3.74-1.83-.29.54-3v-.06a1.4,1.4,0,0,0-.05-.76.58.58,0,0,0-.47-.33,1.25,1.25,0,0,0-.5,0,3.12,3.12,0,0,0-.63.27l-.62,3.58-1.83-.29.94-5.39,1.81.28-.12.67a6,6,0,0,1,1.16-.43,2.54,2.54,0,0,1,1-.05,1.49,1.49,0,0,1,1.07.63,1.8,1.8,0,0,1,.21,1.34Z" transform="translate(-11.56 -9.37)" fill="#000"/><path d="M130,264.18l1.82.19-1,8.05-1.79-.19.07-.63a2.05,2.05,0,0,1-.79.49,2.24,2.24,0,0,1-.94.1,2,2,0,0,1-1.55-.93,3.41,3.41,0,0,1,.52-4.05,2.28,2.28,0,0,1,1.86-.66,2.45,2.45,0,0,1,.76.21,2.48,2.48,0,0,1,.64.45Zm-.52,4.31a1.37,1.37,0,0,0-.37-.35,1.12,1.12,0,0,0-.46-.17,1,1,0,0,0-.89.36,1.79,1.79,0,0,0-.46,1.08,1.6,1.6,0,0,0,.18,1,.91.91,0,0,0,.71.44,1.05,1.05,0,0,0,.55-.09,1.6,1.6,0,0,0,.53-.37Z" transform="translate(-11.56 -9.37)" fill="#000"/><path d="M136.54,267.49l-.4,1.18a2.53,2.53,0,0,0-.37-.18,2.62,2.62,0,0,0-.39-.15,2.31,2.31,0,0,0-.64-.14.61.61,0,0,0-.4.1.37.37,0,0,0-.15.3c0,.17.23.39.72.67l.26.16a2.53,2.53,0,0,1,.9.78,1.61,1.61,0,0,1,.23,1,1.48,1.48,0,0,1-.72,1.18,2.79,2.79,0,0,1-1.72.38,5.17,5.17,0,0,1-.89-.15c-.17,0-.32-.09-.47-.14l-.46-.18.38-1.28a4.46,4.46,0,0,0,.78.35,3.55,3.55,0,0,0,.36.11,1.86,1.86,0,0,0,.34,0,.61.61,0,0,0,.4-.09.36.36,0,0,0,.16-.31c0-.15-.2-.36-.65-.64l-.05,0a3.79,3.79,0,0,1-1.14-.9,1.29,1.29,0,0,1-.22-.86,1.54,1.54,0,0,1,.71-1.24,2.63,2.63,0,0,1,1.68-.4,4.8,4.8,0,0,1,.91.15A4,4,0,0,1,136.54,267.49Z" transform="translate(-11.56 -9.37)" fill="#000"/><path d="M144,265.23l1.51,0,.06,7.59-1.91,0v-5.56L142,268.64l-.89-1.18Z" transform="translate(-11.56 -9.37)" fill="#000"/><path d="M147.93,272.66l.32-1.41.48,0h.5a2.51,2.51,0,0,0,2.46-2.57,3,3,0,0,1-.84.75,2.25,2.25,0,0,1-1,.31,2.11,2.11,0,0,1-1.61-.56,2.32,2.32,0,0,1-.76-1.62,2.23,2.23,0,0,1,.12-.87,2.6,2.6,0,0,1,.42-.81,2.78,2.78,0,0,1,.95-.73,3.49,3.49,0,0,1,1.25-.32,3.05,3.05,0,0,1,2.38.79,3.44,3.44,0,0,1,1.06,2.39,4.56,4.56,0,0,1-.19,1.75,4.64,4.64,0,0,1-.9,1.55,3.88,3.88,0,0,1-1.26.95,4.51,4.51,0,0,1-1.63.42,3.54,3.54,0,0,1-.4,0h-.64Zm3.45-5.28a1.34,1.34,0,0,0-.4-.72.93.93,0,0,0-.69-.22,1,1,0,0,0-.68.35,1,1,0,0,0-.26.72.84.84,0,0,0,.9.77,1,1,0,0,0,.58-.24A2.53,2.53,0,0,0,151.38,267.38Z" transform="translate(-11.56 -9.37)" fill="#000"/><path d="M158.64,267.83a1.91,1.91,0,0,1,1.15.46,1.63,1.63,0,0,1,.52,1.06,2,2,0,0,1-.61,1.75,3.39,3.39,0,0,1-2,.9,6.72,6.72,0,0,1-1.34,0,6.34,6.34,0,0,1-1.21-.22l.29-1.46a3.2,3.2,0,0,0,.82.22,3.39,3.39,0,0,0,.9,0,1.52,1.52,0,0,0,.87-.34.83.83,0,0,0,.2-.32.81.81,0,0,0,0-.38.74.74,0,0,0-.57-.62,3.76,3.76,0,0,0-1.51,0l-.6.1h-.06l-.17-1.38.4,0,.23,0a3.91,3.91,0,0,0,1.47-.4.73.73,0,0,0,.42-.74.68.68,0,0,0-.37-.53,1.34,1.34,0,0,0-.84-.13,4.22,4.22,0,0,0-.85.21,3.13,3.13,0,0,0-.78.38l-.65-1.2a8.61,8.61,0,0,1,1.31-.61,6.14,6.14,0,0,1,.62-.19,3.84,3.84,0,0,1,.59-.11,3.21,3.21,0,0,1,2,.32,1.77,1.77,0,0,1,.93,1.37,1.65,1.65,0,0,1-.23,1.15A1.88,1.88,0,0,1,158.64,267.83Z" transform="translate(-11.56 -9.37)" fill="#000"/><path d="M161.55,263.68l4.57-.81.22,1.36-3.06.55,0,1.43.65-.27a3,3,0,0,1,.5-.14,2.45,2.45,0,0,1,1.85.34,2.16,2.16,0,0,1,1,1.51,2.29,2.29,0,0,1,0,1,2.86,2.86,0,0,1-.49,1,3,3,0,0,1-1,.87,4.45,4.45,0,0,1-1.4.49,6.46,6.46,0,0,1-1,.08,9.09,9.09,0,0,1-1.21-.09l.23-1.57a2.23,2.23,0,0,0,.74.18,2.7,2.7,0,0,0,.8,0A1.86,1.86,0,0,0,165,269a1.1,1.1,0,0,0,.32-.94,1,1,0,0,0-.53-.74,1.55,1.55,0,0,0-1-.13,2.11,2.11,0,0,0-.73.26,1.64,1.64,0,0,0-.53.48l-.92-.41Z" transform="translate(-11.56 -9.37)" fill="#000"/><path d="M37.32,154.5,39,164.41a12.79,12.79,0,0,0,.92,2.84,3.83,3.83,0,0,1,.32,1c.17,1-.42,2.12-1.76,3.34A8.73,8.73,0,0,1,34,173.78a2.83,2.83,0,0,1-2.55-.6,3,3,0,0,1-.87-1.71,2.82,2.82,0,0,1,.27-1.82,5.9,5.9,0,0,1,1.59-1.76,7.16,7.16,0,0,0,1.36-1.23,1.16,1.16,0,0,0,.21-.92,1,1,0,0,0-.75-.9,4.45,4.45,0,0,0-2,0L20.8,166.62a6.11,6.11,0,0,0-2.3.73,2.33,2.33,0,0,0-.91,1.47,4.33,4.33,0,0,1-.59,1.51,1.5,1.5,0,0,1-1,.55c-.9.15-1.67-.35-2.32-1.5a18.39,18.39,0,0,1-1.6-5.52,23,23,0,0,1-.38-7.05c.21-1.34.8-2.09,1.75-2.25a1.39,1.39,0,0,1,1.32.48,13.22,13.22,0,0,1,.67,1.26,1.49,1.49,0,0,0,1,.85,8,8,0,0,0,2.31.07c1-.06,2.59-.23,4.79-.51s4.11-.55,5.72-.82a8.14,8.14,0,0,0,2.36-.66.93.93,0,0,0,.57-1c-.08-.49-.51-.91-1.29-1.25A11.43,11.43,0,0,1,28,151.34a3.17,3.17,0,0,1-1-1.74,2.13,2.13,0,0,1,.48-1.8,2.91,2.91,0,0,1,1.84-1,7.32,7.32,0,0,1,2.65.1,10.58,10.58,0,0,1,2.82,1c1.44.74,2.24,1.58,2.39,2.5a3.57,3.57,0,0,1,0,.89c0,.7,0,1.27,0,1.71A12,12,0,0,0,37.32,154.5Z" transform="translate(-11.56 -9.37)" fill="#000"/><path d="M36.62,184.67l-10.41,3.8a5.76,5.76,0,0,0-1.73.88,2.59,2.59,0,0,0-.72,1.29,3.21,3.21,0,0,1-.41,1,1.26,1.26,0,0,1-.63.44c-1.55.57-3-1.11-4.45-5A20.72,20.72,0,0,1,17,181.88a2.17,2.17,0,0,1,.26-1.25,1.62,1.62,0,0,1,.88-.75,1.28,1.28,0,0,1,.82-.08,6.06,6.06,0,0,1,1.23.69,2.44,2.44,0,0,0,1.63.3,12.91,12.91,0,0,0,2.86-.78c.4-.14,1.12-.44,2.19-.89s1.67-.71,1.84-.8a1.59,1.59,0,0,0,.77-1.42,1.63,1.63,0,0,1,1-1.63,2,2,0,0,1,2.21.84,34.28,34.28,0,0,1,2.87,3.82,17.55,17.55,0,0,1,1.83,3.35C37.61,183.94,37.36,184.4,36.62,184.67Zm6.56-6.41A4.92,4.92,0,0,1,43.5,181a1.88,1.88,0,0,1-1.24,1.48,2.58,2.58,0,0,1-2.69-.58,11,11,0,0,1-3.2-4.82,4,4,0,0,1-.25-2.26,2.13,2.13,0,0,1,1.41-1.69c1-.38,2.1.06,3.22,1.32A12.14,12.14,0,0,1,43.18,178.26Z" transform="translate(-11.56 -9.37)" fill="#000"/><path d="M48.82,193.27l-6.57,3.48-.37.21c-.22.12-.29.26-.21.4a2.36,2.36,0,0,0,.83.41,7.61,7.61,0,0,1,4,3.36,6.73,6.73,0,0,1,.67,5.05A8.3,8.3,0,0,1,43,211.53a11,11,0,0,1-15.3-4.06,11.52,11.52,0,0,1-1.33-3.35,14.22,14.22,0,0,1-.23-3.88,1.12,1.12,0,0,0-.08-.48,5,5,0,0,0-.9-.85,3.07,3.07,0,0,1-.75-.92c-.39-.68-.36-1.15.08-1.4a2,2,0,0,1,.54-.2,13.86,13.86,0,0,0,2.92-1.08q1.66-.8,5.1-2.76l4.57-2.61a10.57,10.57,0,0,0,2.06-1.36,1.34,1.34,0,0,0,.26-1.13,4.06,4.06,0,0,1,0-1.6,1.45,1.45,0,0,1,.72-.85c.74-.42,1.91-.05,3.52,1.13A20.12,20.12,0,0,1,47,188.78a19,19,0,0,1,2.31,3.07C49.66,192.43,49.49,192.91,48.82,193.27Zm-9.28,7.2a1.65,1.65,0,0,0-1.35-.94,4.38,4.38,0,0,0-2.07.76,40.21,40.21,0,0,0-5.1,3.27,1.54,1.54,0,0,0-.45,2.13,2.35,2.35,0,0,0,2.08,1.25A6.58,6.58,0,0,0,36,205.86a7.72,7.72,0,0,0,3.6-3.46A2.24,2.24,0,0,0,39.54,200.47Z" transform="translate(-11.56 -9.37)" fill="#000"/><path d="M56.67,214.94c.44.51.64.88.59,1.11a5,5,0,0,1-1.12,1.5c-.38.42-.46.75-.24,1a.93.93,0,0,0,.89.18,4.59,4.59,0,0,1,4.42,1.43,3.81,3.81,0,0,1,1,2.88,4.14,4.14,0,0,1-.49,1.6,4.65,4.65,0,0,1-1,1.36,4.48,4.48,0,0,1-1.66.89,4.83,4.83,0,0,1-1.89.21,4.18,4.18,0,0,1-2.84-1.49,3.55,3.55,0,0,1-.82-1.46,8.8,8.8,0,0,1-.09-2.21,1.12,1.12,0,0,0-.18-.83.69.69,0,0,0-.91-.12,11.18,11.18,0,0,0-2,1.54,22.63,22.63,0,0,0-2.82,2.74,1.49,1.49,0,0,0-.35.8,2.65,2.65,0,0,0,.33,1.06c.49,1.09.42,1.91-.22,2.48a1.94,1.94,0,0,1-1.39.48,2.76,2.76,0,0,1-1.55-.6,28.77,28.77,0,0,1-3.83-3.8,17.1,17.1,0,0,1-2.93-4.25,2,2,0,0,1,.37-2.4,2.2,2.2,0,0,1,2.09-.3,2.67,2.67,0,0,0,1,.14,1.79,1.79,0,0,0,.8-.32,43.29,43.29,0,0,0,5-4,2.78,2.78,0,0,0,.8-.95,1.38,1.38,0,0,0,0-1,1.76,1.76,0,0,1,.27-2,1.91,1.91,0,0,1,1.8-.33,11.34,11.34,0,0,1,3.05,1.5A18.83,18.83,0,0,1,56.67,214.94Z" transform="translate(-11.56 -9.37)" fill="#000"/><path d="M72.74,230.08a9.3,9.3,0,0,1,3.37,4.8,5,5,0,0,1,.07,2.67,8.51,8.51,0,0,1-1.59,2.79l-1.79,2.21a10.69,10.69,0,0,0-2,3.27,1.36,1.36,0,0,0,0,.66,2.76,2.76,0,0,0,.5.66.7.7,0,0,1,0,1,3.22,3.22,0,0,1-1.76,1,6.07,6.07,0,0,1-2.52.13,5.77,5.77,0,0,1-2.87-1.2,3.92,3.92,0,0,1-1.63-3,1.07,1.07,0,0,0-.28-.85,1.87,1.87,0,0,0-1.09-.25,7.12,7.12,0,0,1-4.26-1.6A7,7,0,0,1,54.3,239a5.28,5.28,0,0,1,.89-4.67,4.77,4.77,0,0,1,3.44-1.76q3.45-.33,7.36,2.74a2.66,2.66,0,0,0,1.23.69c.24,0,.53-.21.86-.62a7.5,7.5,0,0,0,1.49-2.56,1.42,1.42,0,0,0-.52-1.56,1.65,1.65,0,0,0-1-.37,6.87,6.87,0,0,0-1.66.3c-1.89.56-3.32.47-4.28-.3a2.16,2.16,0,0,1-.86-1.38,1.9,1.9,0,0,1,.44-1.5,2.84,2.84,0,0,1,1.71-1,6.38,6.38,0,0,1,2.55,0A15.15,15.15,0,0,1,72.74,230.08ZM64.89,238a1.91,1.91,0,0,0-1.57-.37,2.42,2.42,0,0,0-1.51.91,2.33,2.33,0,0,0-.57,1.43,1.42,1.42,0,0,0,.57,1.16c.79.63,1.72.27,2.79-1.07a3,3,0,0,0,.7-1.25A.91.91,0,0,0,64.89,238Z" transform="translate(-11.56 -9.37)" fill="#000"/><path d="M99.82,245.1a1,1,0,0,1,.49.86,2.25,2.25,0,0,1-.25,1.3,4.15,4.15,0,0,1-1.24,1.35,5.05,5.05,0,0,1-1.77.88c-.37.09-.6.2-.67.34l-.17.42a5.61,5.61,0,0,1-.28.68,5.25,5.25,0,0,1-3.1,2.7,9.29,9.29,0,0,1-4.12.28,14,14,0,0,1-4.58-1.49,9.39,9.39,0,0,1-1.07-.63c-.28-.18-.5-.32-.65-.4a.89.89,0,0,0-1.36.44,1.13,1.13,0,0,0,.12,1.21,3.58,3.58,0,0,0,1.41,1.14,19.47,19.47,0,0,0,2.1.84A37.25,37.25,0,0,1,89,256.73,6.84,6.84,0,0,1,91.76,259a4.19,4.19,0,0,1,.67,2.14,4.48,4.48,0,0,1-.49,2.24,6.1,6.1,0,0,1-3,2.68,9.82,9.82,0,0,1-5.84.56,19.74,19.74,0,0,1-5.63-2A15.55,15.55,0,0,1,72,260.35,5.35,5.35,0,0,1,71,258a3.49,3.49,0,0,1,.29-2.17,2.46,2.46,0,0,1,1-1,2.35,2.35,0,0,1,1.34-.33c.41,0,.65,0,.73-.18s0-.38-.14-.76a3.52,3.52,0,0,1-.15-3,3.16,3.16,0,0,1,1.51-1.35,5.13,5.13,0,0,1,2.31-.51c.34,0,.55-.06.62-.2s0-.48-.15-1a5.65,5.65,0,0,1,.18-4.67A4.74,4.74,0,0,1,80.26,241a6.13,6.13,0,0,1,2.62-.88,12.16,12.16,0,0,1,7,1.32,16.93,16.93,0,0,1,2.78,1.85,14.22,14.22,0,0,0,2,1.39,6.62,6.62,0,0,0,4.43.43A1.31,1.31,0,0,1,99.82,245.1ZM77.19,257.44c-.29-.15-.51-.05-.68.27a2.06,2.06,0,0,0,.26,2.18,6.3,6.3,0,0,0,2.5,2.06,7.07,7.07,0,0,0,2.83.9,1.56,1.56,0,0,0,1.58-.76,1,1,0,0,0,0-.9,1.52,1.52,0,0,0-.73-.75,4.86,4.86,0,0,0-.82-.33,16.28,16.28,0,0,1-2.2-.94,18.08,18.08,0,0,1-1.62-.94,6.76,6.76,0,0,1-.9-.63A2,2,0,0,0,77.19,257.44ZM88.8,243.89a1.89,1.89,0,0,0-1.7-.06,3,3,0,0,0-1.39,1.45,7.39,7.39,0,0,0-.95,3.23,1.9,1.9,0,0,0,.91,1.86,1.93,1.93,0,0,0,1.78,0,3.28,3.28,0,0,0,1.47-1.57,6.76,6.76,0,0,0,.9-3.11A2,2,0,0,0,88.8,243.89Z" transform="translate(-11.56 -9.37)" fill="#000"/><path d="M257.22,141.65l-.84-14,5.26-.32.85,14Z" transform="translate(-11.56 -9.37)" fill="#000"/><path d="M21.22,134l1.69-14,5.24.63-1.7,14Z" transform="translate(-11.56 -9.37)" fill="#000"/><path d="M26.72,95.42l-2.38-.9a.15.15,0,0,0-.15,0l0,0-.08.11-2.7,7.16,0,0,0,0h0l4.19,1.58h0l.05,0,2.75-7.28a5.79,5.79,0,0,1,1.12-1.83A6.16,6.16,0,0,1,31.3,93l0,0,.23-.14a6.4,6.4,0,0,1,2.28-.5,6,6,0,0,1,2.27.37l4.23,1.6a5.84,5.84,0,0,1,3.29,3.08,6.07,6.07,0,0,1,.17,4.56l-2.7,7.16A5.77,5.77,0,0,1,39.88,111,6.33,6.33,0,0,1,38,112.4l-.07.07v0a6,6,0,0,1-2.32.53,6.18,6.18,0,0,1-2.33-.4l-2.37-.89L33,106.23l2.38.9s.07,0,.15,0l.05,0a0,0,0,0,0,.06,0l2.7-7.16v0l0,0,0,0L34,98.18v0l-.08,0,0,0-2.74,7.28a5.65,5.65,0,0,1-2.92,3.22l-.18.12a5.89,5.89,0,0,1-4.55.12l-4.18-1.57a5.87,5.87,0,0,1-3.46-7.65l2.69-7.16a6.24,6.24,0,0,1,1.21-2,6,6,0,0,1,1.85-1.37l.05,0h.1a5.93,5.93,0,0,1,4.6-.15l2.38.9Z" transform="translate(-11.56 -9.37)" fill="#000"/><path d="M40.67,72.23l-2.92-1.9a.16.16,0,0,0-.24,0l-4.19,6.46a.16.16,0,0,0,0,.24l12.38,8a.15.15,0,0,0,.23,0l4.19-6.46c.07-.1,0-.17-.05-.24l-2.95-1.92,3.18-4.9,3.43,2.22a5.06,5.06,0,0,1,1.53,1.59,5.36,5.36,0,0,1,.75,2.15,5.82,5.82,0,0,1-1,4l-4.31,6.64a5.84,5.84,0,0,1-3.34,2.55h-.06a5.11,5.11,0,0,1-2.27.22A5,5,0,0,1,43,90.16l-13.2-8.57A4.85,4.85,0,0,1,28.29,80a5.36,5.36,0,0,1-.73-2.19,5.93,5.93,0,0,1,1-4.09L32.9,67A6.08,6.08,0,0,1,36,64.56l.15-.06a5,5,0,0,1,4.25.55l3.5,2.27Z" transform="translate(-11.56 -9.37)" fill="#000"/><path d="M58.9,46.57,68.29,56a6.72,6.72,0,0,1,1.47,2.17,6.64,6.64,0,0,1,.56,2.54l0,.15a7.1,7.1,0,0,1-.55,2.62,6.59,6.59,0,0,1-1.49,2.21l-4.13,4.14a6.59,6.59,0,0,1-4.81,2l0,0-.09,0a6.88,6.88,0,0,1-2.62-.52,6.51,6.51,0,0,1-2.24-1.49l-9.21-9.22a6.47,6.47,0,0,1-2-3.83,5.64,5.64,0,0,1-.12-1.21l0,0v-.12a6.6,6.6,0,0,1,2-4.68l4.23-4.22a6.59,6.59,0,0,1,2.11-1.42,6.87,6.87,0,0,1,2.45-.53c.29,0,.71,0,1.28.13A6.59,6.59,0,0,1,58.9,46.57Zm-.29,19.19h.13a.07.07,0,0,0,.12,0,1.16,1.16,0,0,0,.91-.36l4.14-4.14a1.36,1.36,0,0,0,.36-.85v-.12l0-.09-9.48-9.49a1,1,0,0,0-.58-.28l-.09,0a1,1,0,0,0-.55.25l-4.22,4.22a1,1,0,0,0-.31.73l0,0,0,0a1,1,0,0,0,.31.73Z" transform="translate(-11.56 -9.37)" fill="#000"/><path d="M77.6,25.43,88.24,42.1a6.6,6.6,0,0,1,.91,5,6.46,6.46,0,0,1-1,2.37,6.75,6.75,0,0,1-1.87,1.78l-4.93,3.15a6.52,6.52,0,0,1-2.46,1,6.91,6.91,0,0,1-2.6-.07,6.79,6.79,0,0,1-2.4-1.05,6.49,6.49,0,0,1-1.81-1.88L61.43,35.75,66,32.83,76.62,49.47a1.23,1.23,0,0,0,.79.56,1.2,1.2,0,0,0,1-.17l4.93-3.15a1.12,1.12,0,0,0,.51-.76,1.18,1.18,0,0,0-.17-.93L73,28.34Z" transform="translate(-11.56 -9.37)" fill="#000"/><path d="M102.78,14.74l2.07,5.47L99,22.43l7.43,19.67-5.47,2.07L93.51,24.5l-5.83,2.2-2.07-5.47Z" transform="translate(-11.56 -9.37)" fill="#000"/><path d="M115.35,12.18l5.58,25.93-5.64,1.22-5.58-25.94Z" transform="translate(-11.56 -9.37)" fill="#000"/><path d="M142.71,9.37,144,35.44l-5.24.26-8.46-13.91.73,14.3-5.37.28L124.37,10.3l5.28-.27,8.45,13.91-.72-14.3Z" transform="translate(-11.56 -9.37)" fill="#000"/><path d="M164.86,21.36l.58-3.52,0-.09-7.68-1.26c-.06,0-.09,0-.1.07l-2.34,14.26a.08.08,0,0,0,.07.1L163,32.18l.06-.08.5-3.06-4-.66,1-6.11,9.84,1.62-1.62,9.88a4.93,4.93,0,0,1-.83,2,5.15,5.15,0,0,1-1.72,1.55,5.81,5.81,0,0,1-4.13.76l-7.72-1.26a6.06,6.06,0,0,1-3.72-2l-.07-.1a5,5,0,0,1-1.19-4.2L152,14.76a5,5,0,0,1,2.56-3.67,5.81,5.81,0,0,1,2-.74,6.14,6.14,0,0,1,2.18,0l7.85,1.28A6,6,0,0,1,170,13.35h0l.22.25a5.29,5.29,0,0,1,1,2,5.64,5.64,0,0,1,.11,2.35l-.71,4.33Z" transform="translate(-11.56 -9.37)" fill="#000"/><path d="M189.59,28.88l1.31-3.32v-.09l-7.24-2.86a.08.08,0,0,0-.11.05L178.25,36.1c0,.06,0,.09,0,.12l7.25,2.85.07-.07,1.13-2.88-3.8-1.49,2.27-5.76,9.28,3.65-3.67,9.32a4.83,4.83,0,0,1-1.25,1.82,5.1,5.1,0,0,1-2,1.15,5.81,5.81,0,0,1-4.2-.12l-7.28-2.87a6,6,0,0,1-3.2-2.79l0-.11a5,5,0,0,1-.27-4.36l5.84-14.84a5,5,0,0,1,3.29-3,5.91,5.91,0,0,1,2.1-.31,6.66,6.66,0,0,1,2.14.45l7.4,2.92a5.93,5.93,0,0,1,2.93,2.4l0,0,.16.29a5.12,5.12,0,0,1,.6,2.2,5.59,5.59,0,0,1-.39,2.32L195.08,31Z" transform="translate(-11.56 -9.37)" fill="#000"/><path d="M207.69,58.69l-5.22-3.5.68-9.8-2.36-1.58-4.74,7.07-4.54-3.05,14.75-21.95L216,32.42a7.52,7.52,0,0,1,3.17,7.7,7.28,7.28,0,0,1-1.1,2.65l-1.59,2.35A7.52,7.52,0,0,1,212.92,48a7.29,7.29,0,0,1-4.54.32ZM210.59,43a2,2,0,0,0,1.4-.93l1.58-2.35a1.91,1.91,0,0,0,.3-1.53,2,2,0,0,0-.89-1.3l-5.21-3.5-4,5.89,5.11,3.43A2.16,2.16,0,0,0,210.59,43Z" transform="translate(-11.56 -9.37)" fill="#000"/><path d="M238.38,60.64l-9.57,9.22a7,7,0,0,1-4.75,2l-.15,0a7.09,7.09,0,0,1-2.61-.59,6.88,6.88,0,0,1-2.19-1.53l-4.05-4.21a6.53,6.53,0,0,1-1.92-4.84l0,0,0-.1a7,7,0,0,1,.57-2.6,6.59,6.59,0,0,1,1.53-2.22l9.38-9a7.54,7.54,0,0,1,5.09-2l0,0h.12a6.58,6.58,0,0,1,4.64,2.09l4.15,4.3A6.53,6.53,0,0,1,240,53.2a6.66,6.66,0,0,1,.49,2.46,11.18,11.18,0,0,1-.14,1.28A6.62,6.62,0,0,1,238.38,60.64ZM219.2,60v.12a.08.08,0,0,0,0,.12,1.13,1.13,0,0,0,.35.92l4,4.21a1.32,1.32,0,0,0,.85.38h.12l.09,0,9.66-9.31a1,1,0,0,0,.29-.57l0-.1a1.12,1.12,0,0,0-.23-.55l-4.15-4.3a1,1,0,0,0-.73-.32l0,0,0,0a1,1,0,0,0-.73.29Z" transform="translate(-11.56 -9.37)" fill="#000"/><path d="M246.65,71.25l-3.52,2.23,5.4,8.54-5,3.15-5.4-8.54-3.52,2.23,6.27,9.92-5.7,3.61-9.43-14.9,23.44-14.83,9.43,14.9-5.71,3.61Z" transform="translate(-11.56 -9.37)" fill="#000"/><path d="M264.2,104.59a7.36,7.36,0,0,1-2.51,1.56l-2.66,1a7.82,7.82,0,0,1-7.75-1.28,7.69,7.69,0,0,1-2.38-3.33L246.82,97l-8,3-2-5.48L262,85.07l4.19,11.19a7.79,7.79,0,0,1,.49,3,8.17,8.17,0,0,1-.67,2.93A8,8,0,0,1,264.2,104.59Zm-11.9-9.66,2.08,5.56a1.82,1.82,0,0,0,1.1,1.1,1.71,1.71,0,0,0,1.5.08l2.66-1a1.84,1.84,0,0,0,1-2.37l-2.14-5.72Z" transform="translate(-11.56 -9.37)" fill="#000"/></g></svg>
