<?xml version="1.0" encoding="utf-8"?>
<!-- Generator: Adobe Illustrator 18.1.1, SVG Export Plug-In . SVG Version: 6.00 Build 0)  -->
<!DOCTYPE svg PUBLIC "-//W3C//DTD SVG 1.1//EN" "http://www.w3.org/Graphics/SVG/1.1/DTD/svg11.dtd">
<svg version="1.1" id="Layer_1" xmlns="http://www.w3.org/2000/svg" xmlns:xlink="http://www.w3.org/1999/xlink" x="0px" y="0px"
	 width="367.46px" height="80px" viewBox="0 0 367.46 80" enable-background="new 0 0 367.46 80" xml:space="preserve">
<path id="path5056" fill="#706D6E" d="M367.01,36.01v-6.44h-8V19.56l-0.27,0.08l-7.51,2.3l-0.15,0.05v7.59h-11.86v-4.23
	c0-1.97,0.44-3.47,1.31-4.48c0.86-0.99,2.09-1.5,3.66-1.5c1.13,0,2.3,0.27,3.48,0.79l0.29,0.13v-6.78l-0.14-0.05
	c-1.1-0.39-2.59-0.59-4.44-0.59c-2.33,0-4.45,0.51-6.3,1.51c-1.85,1.01-3.3,2.45-4.32,4.27c-1.02,1.83-1.53,3.94-1.53,6.27v4.65
	h-5.57v6.44h5.57v27.13h7.99V36.01h11.86v17.24c0,7.1,3.35,10.7,9.95,10.7c1.09,0,2.23-0.13,3.39-0.38c1.19-0.26,2-0.51,2.47-0.78
	l0.11-0.06v-6.5l-0.33,0.22c-0.43,0.29-0.97,0.53-1.61,0.7c-0.64,0.18-1.17,0.27-1.58,0.27c-1.55,0-2.69-0.42-3.4-1.24
	c-0.72-0.83-1.08-2.28-1.08-4.31V36.01L367.01,36.01L367.01,36.01z M307.81,57.42c-2.9,0-5.19-0.96-6.8-2.86
	c-1.62-1.9-2.44-4.62-2.44-8.07c0-3.56,0.82-6.35,2.44-8.28c1.61-1.93,3.88-2.9,6.74-2.9c2.77,0,4.98,0.93,6.56,2.78
	c1.59,1.85,2.39,4.62,2.39,8.22c0,3.65-0.76,6.45-2.25,8.32C312.96,56.47,310.73,57.42,307.81,57.42 M308.16,28.76
	c-5.54,0-9.93,1.62-13.07,4.82c-3.13,3.2-4.72,7.63-4.72,13.16c0,5.26,1.55,9.48,4.61,12.56c3.06,3.08,7.22,4.64,12.37,4.64
	c5.37,0,9.68-1.64,12.81-4.89c3.13-3.24,4.72-7.63,4.72-13.03c0-5.34-1.49-9.6-4.43-12.66C317.52,30.32,313.38,28.76,308.16,28.76
	 M277.48,28.76c-3.77,0-6.88,0.96-9.26,2.86c-2.39,1.91-3.61,4.42-3.61,7.45c0,1.58,0.26,2.98,0.78,4.16
	c0.52,1.19,1.32,2.24,2.39,3.12c1.06,0.87,2.69,1.79,4.86,2.72c1.82,0.75,3.18,1.38,4.04,1.88c0.84,0.49,1.44,0.98,1.78,1.46
	c0.33,0.47,0.5,1.11,0.5,1.9c0,2.26-1.69,3.35-5.16,3.35c-1.29,0-2.76-0.27-4.37-0.8c-1.61-0.53-3.12-1.29-4.48-2.27l-0.33-0.24v7.7
	l0.12,0.06c1.13,0.52,2.56,0.96,4.24,1.31c1.68,0.35,3.2,0.52,4.53,0.52c4.09,0,7.38-0.97,9.78-2.88c2.42-1.92,3.64-4.49,3.64-7.63
	c0-2.26-0.66-4.2-1.96-5.77c-1.29-1.55-3.53-2.98-6.65-4.24c-2.49-1-4.08-1.83-4.74-2.46c-0.63-0.62-0.96-1.48-0.96-2.59
	c0-0.98,0.4-1.76,1.21-2.39c0.82-0.64,1.97-0.96,3.4-0.96c1.33,0,2.69,0.21,4.05,0.62c1.35,0.41,2.54,0.96,3.54,1.64l0.33,0.22v-7.3
	l-0.13-0.05c-0.92-0.39-2.12-0.73-3.59-1C279.96,28.9,278.64,28.76,277.48,28.76 M243.77,57.42c-2.9,0-5.19-0.96-6.8-2.86
	c-1.62-1.91-2.44-4.62-2.44-8.07c0-3.56,0.82-6.35,2.44-8.28c1.61-1.93,3.88-2.9,6.74-2.9c2.77,0,4.98,0.93,6.56,2.78
	c1.59,1.85,2.39,4.62,2.39,8.22c0,3.65-0.76,6.45-2.25,8.32C248.93,56.47,246.69,57.42,243.77,57.42 M244.13,28.76
	c-5.54,0-9.93,1.62-13.07,4.82c-3.13,3.2-4.72,7.63-4.72,13.16c0,5.26,1.55,9.48,4.61,12.56c3.06,3.08,7.22,4.64,12.37,4.64
	c5.37,0,9.68-1.64,12.81-4.89c3.13-3.24,4.72-7.63,4.72-13.03c0-5.34-1.49-9.6-4.43-12.66C253.48,30.32,249.35,28.76,244.13,28.76
	 M214.21,35.39v-5.81h-7.9v33.57h7.9V45.97c0-2.92,0.66-5.32,1.97-7.13c1.29-1.79,3.01-2.7,5.11-2.7c0.71,0,1.51,0.12,2.37,0.35
	c0.86,0.23,1.48,0.48,1.84,0.74l0.33,0.24v-7.96l-0.13-0.05c-0.74-0.31-1.78-0.47-3.09-0.47c-1.98,0-3.76,0.64-5.28,1.89
	c-1.34,1.1-2.3,2.62-3.04,4.5C214.29,35.39,214.21,35.39,214.21,35.39z M192.17,28.76c-3.62,0-6.85,0.78-9.6,2.31
	c-2.75,1.53-4.88,3.73-6.33,6.51c-1.44,2.78-2.18,6.03-2.18,9.65c0,3.17,0.71,6.08,2.11,8.65c1.4,2.57,3.39,4.58,5.91,5.97
	c2.51,1.39,5.42,2.1,8.63,2.1c3.75,0,6.96-0.75,9.53-2.23l0.1-0.06v-7.23l-0.33,0.24c-1.16,0.85-2.46,1.52-3.86,2.01
	c-1.4,0.49-2.67,0.73-3.78,0.73c-3.1,0-5.59-0.97-7.39-2.88c-1.81-1.91-2.73-4.6-2.73-7.98c0-3.4,0.96-6.16,2.84-8.19
	c1.88-2.03,4.37-3.06,7.41-3.06c2.6,0,5.13,0.88,7.52,2.61l0.33,0.24v-7.62l-0.11-0.06c-0.9-0.5-2.13-0.92-3.65-1.24
	C195.06,28.92,193.58,28.76,192.17,28.76 M168.62,29.57h-7.9v33.57h7.9V29.57z M164.75,15.27c-1.3,0-2.43,0.44-3.36,1.32
	c-0.94,0.88-1.41,1.99-1.41,3.29c0,1.29,0.47,2.37,1.39,3.23c0.92,0.85,2.06,1.29,3.38,1.29c1.32,0,2.46-0.43,3.39-1.28
	c0.94-0.86,1.41-1.94,1.41-3.23c0-1.26-0.46-2.36-1.37-3.26C167.27,15.73,166.11,15.27,164.75,15.27 M145.04,27.1v36.05h8.06V16.3
	h-11.15l-14.18,34.79L114.01,16.3H102.4v46.84h7.57V27.09h0.26l14.53,36.05h5.72l14.3-36.05L145.04,27.1L145.04,27.1z"/>
<path id="path5058" fill="#F1511B" d="M37.95,37.79H0.8V0.65h37.15V37.79z"/>
<path id="path5060" fill="#80CC28" d="M78.97,37.79H41.82V0.65h37.15V37.79z"/>
<path id="path5062" fill="#00ADEF" d="M37.95,78.83H0.8V41.68h37.15V78.83z"/>
<path id="path5064" fill="#FBBC09" d="M78.97,78.83H41.82V41.68h37.15V78.83z"/>
</svg>
