<?xml version="1.0" encoding="utf-8"?>
<!-- Generator: Adobe Illustrator 18.1.1, SVG Export Plug-In . SVG Version: 6.00 Build 0)  -->
<!DOCTYPE svg PUBLIC "-//W3C//DTD SVG 1.1//EN" "http://www.w3.org/Graphics/SVG/1.1/DTD/svg11.dtd">
<svg version="1.1" id="Layer_1" xmlns="http://www.w3.org/2000/svg" xmlns:xlink="http://www.w3.org/1999/xlink" x="0px" y="0px"
	 width="179.66px" height="80px" viewBox="0 0 179.66 80" enable-background="new 0 0 179.66 80" xml:space="preserve">
<g>
	<polygon opacity="0.2" fill="#BCBEC0" stroke="#636466" stroke-width="0.75" enable-background="new    " points="1,0.64 
		178.47,0.7 178.47,60.9 14.06,78.49 	"/>
	
		<linearGradient id="SVGID_1_" gradientUnits="userSpaceOnUse" x1="84.6466" y1="108.4583" x2="97.8211" y2="31.0576" gradientTransform="matrix(1 0 0 -1 0 82)">
		<stop  offset="0" style="stop-color:#545757"/>
		<stop  offset="1" style="stop-color:#1F2323"/>
	</linearGradient>
	<polygon fill="url(#SVGID_1_)" points="173.58,56.5 18.12,73.13 6.79,5.55 173.58,5.6 	"/>
	<polygon opacity="0.3" fill="#FFFFFF" enable-background="new    " points="9.3,47.96 1.31,0.9 64.53,0.97 1,0.64 	"/>
	<g>
		<g>
			<g>
				<g>
					
						<linearGradient id="SVGID_2_" gradientUnits="userSpaceOnUse" x1="30.0942" y1="59.5984" x2="30.0942" y2="38.3228" gradientTransform="matrix(1 0 0 -1 0 82)">
						<stop  offset="0" style="stop-color:#FFFFFF"/>
						<stop  offset="1" style="stop-color:#DCDDDE"/>
					</linearGradient>
					<path fill="url(#SVGID_2_)" d="M30.11,44.58c-3.3,0-6.11-1.2-8.35-3.58c-2.12-2.25-3.2-5.06-3.2-8.36
						c0-3.12,1.18-5.93,3.42-8.13c2.24-2.2,5-3.32,8.2-3.32c4.85,0,8.97,2.93,10.79,7.66h-6.2c-1.39-1.49-2.89-2.2-4.65-2.2
						c-3.31,0-6,2.7-6,6.03c0,3.49,2.75,6.44,6,6.44c2.17,0,4.05-1.13,5.16-3.09l0.06-0.11h-6.52v-4.38h12.76
						c0.03,0.5,0.06,0.98,0.06,1.42c0,2.53-0.63,4.68-1.93,6.58C37.54,42.7,33.95,44.58,30.11,44.58z"/>
					<path fill="#FFFFFF" d="M30.17,21.26c4.78,0,8.86,2.87,10.68,7.51h-6.03c-1.45-1.5-2.95-2.2-4.71-2.2
						c-3.35,0-6.07,2.74-6.07,6.1c0,3.53,2.78,6.52,6.07,6.52c2.2,0,4.1-1.14,5.23-3.13l0.12-0.22h-0.25h-6.32v-4.23H41.5
						c0.03,0.45,0.05,0.92,0.05,1.35c0,2.51-0.63,4.65-1.92,6.54c-2.15,3.13-5.71,5-9.53,5c-3.28,0-6.07-1.2-8.3-3.55
						c-2.11-2.23-3.18-5.03-3.18-8.31c0-3.1,1.17-5.89,3.4-8.08C24.25,22.37,26.99,21.26,30.17,21.26 M30.17,21.11
						c-3.22,0-6.02,1.15-8.25,3.34c-2.23,2.2-3.44,5.06-3.44,8.19c0,3.34,1.08,6.15,3.22,8.41c2.23,2.36,5.06,3.6,8.41,3.6
						c3.85,0,7.48-1.91,9.65-5.06c1.31-1.91,1.94-4.08,1.94-6.63c0-0.48-0.03-0.99-0.06-1.5h-12.9v4.52h6.47
						c-1.12,1.97-2.99,3.06-5.1,3.06c-3.12,0-5.92-2.77-5.92-6.37c0-3.25,2.61-5.95,5.92-5.95c1.78,0,3.25,0.73,4.65,2.2h6.31
						C39.25,24.07,35.02,21.11,30.17,21.11L30.17,21.11z"/>
				</g>
				<g>
					
						<linearGradient id="SVGID_3_" gradientUnits="userSpaceOnUse" x1="51.4327" y1="59.5964" x2="51.4327" y2="38.3257" gradientTransform="matrix(1 0 0 -1 0 82)">
						<stop  offset="0" style="stop-color:#FFFFFF"/>
						<stop  offset="1" style="stop-color:#DCDDDE"/>
					</linearGradient>
					<path fill="url(#SVGID_3_)" d="M53.02,44.13l-4.45-7.49v7.49h-5.39v-22.5h7.44c2.5,0,4.24,0.2,5.69,1.23
						c2.01,1.4,3.03,3.51,3.03,6.28c0,3.64-1.9,6.34-5.07,7.22l-0.1,0.03l5.52,7.74L53.02,44.13L53.02,44.13z M48.57,32.08h1.16
						c2.95,0,4.15-0.81,4.15-2.81c0-1.88-1.14-2.72-3.7-2.72h-1.6L48.57,32.08L48.57,32.08z"/>
					<path fill="#FFFFFF" d="M50.62,21.71c2.49,0,4.21,0.2,5.65,1.22c1.99,1.39,3,3.48,3,6.22c0,3.61-1.88,6.28-5.02,7.15l-0.2,0.06
						l0.12,0.17l5.38,7.54h-6.48l-4.29-7.22l-0.28-0.46v0.54v7.15h-5.25V21.71H50.62 M48.5,32.15h0.15h1.08
						c2.96,0,4.23-0.86,4.23-2.89c0-1.93-1.17-2.79-3.78-2.79h-1.53H48.5v0.15v5.38L48.5,32.15 M50.62,21.56h-7.52v22.65h5.54v-7.29
						l4.33,7.29h6.85l-5.54-7.77c3.22-0.89,5.13-3.63,5.13-7.29c0-2.8-1.05-4.94-3.06-6.34C54.83,21.72,53.01,21.56,50.62,21.56
						L50.62,21.56z M48.65,32.01v-5.38h1.53c2.45,0,3.63,0.76,3.63,2.64c0,2.04-1.34,2.74-4.08,2.74H48.65L48.65,32.01z"/>
				</g>
				<g>
					
						<linearGradient id="SVGID_4_" gradientUnits="userSpaceOnUse" x1="71.9161" y1="59.5984" x2="71.9161" y2="38.3237" gradientTransform="matrix(1 0 0 -1 0 82)">
						<stop  offset="0" style="stop-color:#FFFFFF"/>
						<stop  offset="1" style="stop-color:#DCDDDE"/>
					</linearGradient>
					<path fill="url(#SVGID_4_)" d="M71.93,44.54c-3.34,0-6.16-1.19-8.39-3.54c-2.12-2.25-3.2-5.06-3.2-8.36
						c0-3.12,1.18-5.93,3.42-8.13c2.22-2.18,4.97-3.29,8.2-3.29c3.01,0,5.86,1.18,8.04,3.32c2.25,2.21,3.48,5.13,3.48,8.2
						c0,3.23-1.13,6.1-3.26,8.29C78.05,43.3,75.11,44.54,71.93,44.54z M71.99,26.68c-3.42,0-6.09,2.65-6.09,6.03
						c0,3.46,2.76,6.38,6.03,6.38c3.4,0,5.97-2.74,5.97-6.38C77.9,29.38,75.25,26.68,71.99,26.68z"/>
					<path fill="#FFFFFF" d="M71.96,21.29c2.99,0,5.82,1.17,7.99,3.3c2.23,2.2,3.46,5.09,3.46,8.14c0,3.21-1.12,6.06-3.24,8.24
						c-2.16,2.25-5.08,3.49-8.24,3.49c-3.32,0-6.12-1.18-8.33-3.52c-2.11-2.23-3.18-5.03-3.18-8.31c0-3.1,1.17-5.89,3.4-8.08
						C66.02,22.39,68.76,21.29,71.96,21.29 M71.93,39.16c3.44,0,6.04-2.77,6.04-6.45c0-3.37-2.68-6.1-5.98-6.1
						c-3.46,0-6.17,2.68-6.17,6.1C65.83,36.21,68.62,39.16,71.93,39.16 M71.96,21.14c-3.22,0-6.02,1.11-8.25,3.31
						c-2.23,2.2-3.44,5.06-3.44,8.19c0,3.34,1.08,6.15,3.22,8.41c2.23,2.36,5.1,3.57,8.44,3.57c3.15,0,6.15-1.24,8.35-3.54
						c2.13-2.2,3.28-5.1,3.28-8.34c0-3.09-1.21-5.99-3.5-8.25C77.86,22.32,74.99,21.14,71.96,21.14L71.96,21.14z M71.93,39.01
						c-3.12,0-5.96-2.74-5.96-6.31c0-3.31,2.64-5.96,6.02-5.96c3.19,0,5.83,2.64,5.83,5.96C77.82,36.4,75.18,39.01,71.93,39.01
						L71.93,39.01z"/>
				</g>
				<g>
					
						<linearGradient id="SVGID_5_" gradientUnits="userSpaceOnUse" x1="93.3198" y1="59.5961" x2="93.3198" y2="38.324" gradientTransform="matrix(1 0 0 -1 0 82)">
						<stop  offset="0" style="stop-color:#FFFFFF"/>
						<stop  offset="1" style="stop-color:#DCDDDE"/>
					</linearGradient>
					<path fill="url(#SVGID_5_)" d="M93.21,44.48c-5.18,0-8.14-3.19-8.14-8.75v-14.1h5.43v13.88c0,2.68,0.87,3.93,2.75,3.93
						c1.98,0,2.94-1.28,2.94-3.93V21.63h5.39v14.1C101.57,41.13,98.37,44.48,93.21,44.48z"/>
					<path fill="#FFFFFF" d="M101.5,21.71v14.03c0,5.35-3.18,8.67-8.29,8.67c-5.13,0-8.07-3.16-8.07-8.67V21.71h5.28v13.8
						c0,2.69,0.92,4,2.82,4c2.03,0,3.01-1.31,3.01-4v-13.8H101.5 M101.65,21.56h-5.54v13.95c0,2.58-0.92,3.85-2.87,3.85
						c-1.88,0-2.68-1.31-2.68-3.85V21.56h-5.57v14.17c0,5.67,3.09,8.82,8.22,8.82c5.06,0,8.44-3.28,8.44-8.82L101.65,21.56
						L101.65,21.56z"/>
				</g>
				<g>
					
						<linearGradient id="SVGID_6_" gradientUnits="userSpaceOnUse" x1="111.4005" y1="59.5964" x2="111.4005" y2="38.3257" gradientTransform="matrix(1 0 0 -1 0 82)">
						<stop  offset="0" style="stop-color:#FFFFFF"/>
						<stop  offset="1" style="stop-color:#DCDDDE"/>
					</linearGradient>
					<path fill="url(#SVGID_6_)" d="M103.32,44.13v-22.5h7.44c2.5,0,4.24,0.2,5.69,1.23c2.01,1.4,3.03,3.52,3.03,6.31
						c0,2.86-1.3,5.29-3.56,6.66c-1.4,0.84-3.16,1.01-5.54,1.01h-1.67v7.29C108.72,44.13,103.32,44.13,103.32,44.13z M108.78,32.08
						h1.09c2.95,0,4.15-0.81,4.15-2.81c0-1.88-1.14-2.72-3.71-2.72h-1.54V32.08z"/>
					<path fill="#FFFFFF" d="M110.76,21.71c2.49,0,4.21,0.2,5.65,1.22c1.99,1.39,3,3.49,3,6.25c0,2.83-1.29,5.24-3.53,6.59
						c-1.39,0.83-3.13,1-5.5,1h-1.59h-0.15v0.15v7.15h-5.25V21.71H110.76 M108.7,32.15h0.15h1.02c2.96,0,4.23-0.86,4.23-2.89
						c0-1.93-1.17-2.79-3.78-2.79h-1.47h-0.15v0.15v5.38V32.15 M110.76,21.56h-7.52v22.65h5.54v-7.29h1.59
						c2.36,0,4.14-0.16,5.57-1.02c2.26-1.37,3.6-3.79,3.6-6.72c0-2.84-1.05-4.97-3.06-6.37C114.97,21.72,113.15,21.56,110.76,21.56
						L110.76,21.56z M108.85,32.01v-5.38h1.47c2.45,0,3.63,0.76,3.63,2.64c0,2.04-1.34,2.74-4.08,2.74H108.85L108.85,32.01z"/>
				</g>
				<g>
					
						<linearGradient id="SVGID_7_" gradientUnits="userSpaceOnUse" x1="131.9286" y1="59.5984" x2="131.9286" y2="38.3237" gradientTransform="matrix(1 0 0 -1 0 82)">
						<stop  offset="0" style="stop-color:#FFFFFF"/>
						<stop  offset="1" style="stop-color:#DCDDDE"/>
					</linearGradient>
					<path fill="url(#SVGID_7_)" d="M131.94,44.54c-3.34,0-6.16-1.19-8.39-3.54c-2.12-2.25-3.2-5.06-3.2-8.36
						c0-3.12,1.18-5.93,3.42-8.13c2.22-2.18,4.97-3.29,8.2-3.29c3.01,0,5.86,1.18,8.04,3.32c2.25,2.21,3.48,5.13,3.48,8.2
						c0,3.23-1.13,6.1-3.26,8.29C138.07,43.3,135.12,44.54,131.94,44.54z M132.01,26.68c-3.42,0-6.09,2.65-6.09,6.03
						c0,3.46,2.76,6.38,6.03,6.38c3.4,0,5.97-2.74,5.97-6.38C137.91,29.38,135.26,26.68,132.01,26.68z"/>
					<path fill="#FFFFFF" d="M131.98,21.29c2.99,0,5.82,1.17,7.99,3.3c2.26,2.23,3.46,5.05,3.46,8.14c0,3.21-1.12,6.06-3.24,8.24
						c-2.16,2.25-5.08,3.49-8.24,3.49c-3.32,0-6.12-1.18-8.33-3.52c-2.11-2.23-3.18-5.03-3.18-8.31c0-3.1,1.17-5.89,3.4-8.08
						C126.03,22.39,128.77,21.29,131.98,21.29 M131.94,39.16c3.44,0,6.04-2.77,6.04-6.45c0-3.37-2.68-6.1-5.98-6.1
						c-3.46,0-6.17,2.68-6.17,6.1C125.84,36.21,128.64,39.16,131.94,39.16 M131.98,21.14c-3.22,0-6.02,1.11-8.25,3.31
						c-2.23,2.2-3.44,5.06-3.44,8.19c0,3.34,1.08,6.15,3.22,8.41c2.23,2.36,5.1,3.57,8.44,3.57c3.15,0,6.15-1.24,8.34-3.54
						c2.13-2.2,3.28-5.1,3.28-8.34c0-3.09-1.21-5.99-3.5-8.25C137.87,22.32,135,21.14,131.98,21.14L131.98,21.14z M131.94,39.01
						c-3.12,0-5.96-2.74-5.96-6.31c0-3.31,2.64-5.96,6.02-5.96c3.19,0,5.83,2.64,5.83,5.96C137.84,36.4,135.19,39.01,131.94,39.01
						L131.94,39.01z"/>
				</g>
				<g>
					
						<linearGradient id="SVGID_8_" gradientUnits="userSpaceOnUse" x1="154.0832" y1="59.5964" x2="154.0832" y2="38.3257" gradientTransform="matrix(1 0 0 -1 0 82)">
						<stop  offset="0" style="stop-color:#FFFFFF"/>
						<stop  offset="1" style="stop-color:#DCDDDE"/>
					</linearGradient>
					<polygon fill="url(#SVGID_8_)" points="158.68,44.13 150.12,31.35 150.12,44.13 144.73,44.13 144.73,21.63 149.62,21.63 
						158.04,34.39 158.04,21.63 163.44,21.63 163.44,44.13 					"/>
					<path fill="#FFFFFF" d="M163.36,21.71v22.35h-4.65l-8.4-12.55l-0.27-0.4v0.49v12.47h-5.25V21.71h4.77l8.27,12.51l0.27,0.41
						v-0.49V21.71H163.36 M163.51,21.56h-5.54v12.58l-8.31-12.58h-5v22.65h5.54V31.59l8.44,12.61h4.87V21.56L163.51,21.56z"/>
				</g>
			</g>
		</g>
	</g>
</g>
</svg>
