<?xml version="1.0" encoding="UTF-8" standalone="no"?>
<!DOCTYPE svg PUBLIC "-//W3C//DTD SVG 1.0//EN" "http://www.w3.org/TR/2001/REC-SVG-20010904/DTD/svg10.dtd">
<!-- Created with Inkscape (http://www.inkscape.org/) by Steadfast-->
<svg xmlns:svg="http://www.w3.org/2000/svg" xmlns="http://www.w3.org/2000/svg" version="1.0" width="900" height="215" id="svg2678">
  <defs id="defs2680"/>
  <g id="layer1">
    <g transform="matrix(4.1392457,0,0,4.1392457,-833.16617,-546.81735)" id="g2707">
      <path d="M 206.65419,146.26466 L 206.65419,169.88716 L 209.60669,169.88716 L 209.60669,175.79216 L 245.03919,175.79216 L 245.03919,169.88716 L 250.94544,169.88716 L 250.94544,175.79216 L 286.37794,175.79216 L 286.37794,169.88716 L 292.28419,169.88716 L 292.28419,175.79216 L 327.71669,175.79216 L 327.71669,169.88716 L 330.66919,169.88716 L 330.66919,146.26466 L 327.71669,146.26466 L 327.71669,140.35966 L 292.28419,140.35966 L 292.28419,146.26466 L 286.37794,146.26466 L 286.37794,140.35966 L 250.94544,140.35966 L 250.94544,146.26466 L 245.03919,146.26466 L 245.03919,140.35966 L 209.60669,140.35966 L 209.60669,146.26466 L 206.65419,146.26466 z" id="path163" style="fill:#004b88;fill-opacity:1;fill-rule:nonzero;stroke:#004b88;stroke-width:0.45875001;stroke-linecap:butt;stroke-linejoin:miter;stroke-miterlimit:4;stroke-dasharray:none;stroke-opacity:1"/>
      <path d="M 203.70044,140.35966 L 209.60644,140.35966 L 209.60644,134.45453 L 203.70044,134.45453 L 203.70044,140.35966 z" id="path165" style="fill:#a7a9ac;fill-opacity:1;fill-rule:nonzero;stroke:none"/>
      <path d="M 245.03919,140.35966 L 250.94519,140.35966 L 250.94519,134.45453 L 245.03919,134.45453 L 245.03919,140.35966 z" id="path167" style="fill:#a7a9ac;fill-opacity:1;fill-rule:nonzero;stroke:none"/>
      <path d="M 286.37794,140.35966 L 292.28356,140.35966 L 292.28356,134.45453 L 286.37794,134.45453 L 286.37794,140.35966 z" id="path169" style="fill:#a7a9ac;fill-opacity:1;fill-rule:nonzero;stroke:none"/>
      <path d="M 327.71669,140.35966 L 333.62206,140.35966 L 333.62206,134.45453 L 327.71669,134.45453 L 327.71669,140.35966 z" id="path171" style="fill:#a7a9ac;fill-opacity:1;fill-rule:nonzero;stroke:none"/>
      <path d="M 327.71669,181.69841 L 333.62206,181.69841 L 333.62206,175.79216 L 327.71669,175.79216 L 327.71669,181.69841 z" id="path173" style="fill:#a7a9ac;fill-opacity:1;fill-rule:nonzero;stroke:none"/>
      <path d="M 286.37794,181.69841 L 292.28356,181.69841 L 292.28356,175.79216 L 286.37794,175.79216 L 286.37794,181.69841 z" id="path175" style="fill:#a7a9ac;fill-opacity:1;fill-rule:nonzero;stroke:none"/>
      <path d="M 369.05544,140.35966 L 374.96044,140.35966 L 374.96044,134.45453 L 369.05544,134.45453 L 369.05544,140.35966 z" id="path177" style="fill:#a7a9ac;fill-opacity:1;fill-rule:nonzero;stroke:none"/>
      <path d="M 410.39419,140.35966 L 416.29956,140.35966 L 416.29956,134.45453 L 410.39419,134.45453 L 410.39419,140.35966 z" id="path179" style="fill:#a7a9ac;fill-opacity:1;fill-rule:nonzero;stroke:none"/>
      <path d="M 410.39419,181.69841 L 416.29956,181.69841 L 416.29956,175.79216 L 410.39419,175.79216 L 410.39419,181.69841 z" id="path181" style="fill:#a7a9ac;fill-opacity:1;fill-rule:nonzero;stroke:none"/>
      <path d="M 369.05544,181.69841 L 374.96044,181.69841 L 374.96044,175.79216 L 369.05544,175.79216 L 369.05544,181.69841 z" id="path183" style="fill:#a7a9ac;fill-opacity:1;fill-rule:nonzero;stroke:none"/>
      <path d="M 245.03919,181.69841 L 250.94519,181.69841 L 250.94519,175.79216 L 245.03919,175.79216 L 245.03919,181.69841 z" id="path185" style="fill:#a7a9ac;fill-opacity:1;fill-rule:nonzero;stroke:none"/>
      <path d="M 203.70044,181.69841 L 209.60644,181.69841 L 209.60644,175.79216 L 203.70044,175.79216 L 203.70044,181.69841 z" id="path187" style="fill:#a7a9ac;fill-opacity:1;fill-rule:nonzero;stroke:none"/>
      <path d="M 237.31419,165.48216 L 237.31419,150.71841 L 240.32419,150.71841 L 240.32419,152.89341 L 240.36919,152.89341 C 241.30794,151.03466 242.74544,150.37591 244.01169,150.37591 C 245.66669,150.37591 246.87294,151.17216 247.53294,153.02341 C 248.28294,151.21091 249.82419,150.37591 251.30794,150.37591 C 254.30169,150.37591 255.11794,152.85591 255.11794,156.26966 L 255.11794,165.48216 L 251.87669,165.48216 L 251.87669,156.82841 C 251.87669,155.40216 251.79669,153.57091 250.13294,153.57091 C 248.19169,153.57091 247.83669,156.34216 247.83669,158.47341 L 247.83669,165.48216 L 244.59544,165.48216 L 244.59544,156.82841 C 244.59544,155.40216 244.51544,153.57091 242.85294,153.57091 C 240.91169,153.57091 240.55669,156.34216 240.55669,158.47341 L 240.55669,165.48216 L 237.31419,165.48216" id="path189" style="fill:#ffffff;fill-opacity:1;fill-rule:nonzero;stroke:none"/>
      <path d="M 263.78794,146.41841 L 263.78794,150.71841 L 266.53794,150.71841 L 266.53794,153.65591 L 263.78794,153.65591 L 263.78794,160.29466 C 263.78794,161.64466 264.07419,162.77466 265.26419,162.77466 C 265.79044,162.77466 266.30169,162.63591 266.63669,162.40591 L 266.73669,165.49216 C 266.07294,165.70216 265.35169,165.82591 264.41669,165.82591 C 261.80044,165.82591 260.54669,163.93716 260.54669,160.91466 L 260.54669,153.65591 L 258.26544,153.65591 L 258.26544,150.71841 L 260.55794,150.71841 L 260.55794,147.70466 L 263.78794,146.41841" id="path191" style="fill:#ffffff;fill-opacity:1;fill-rule:nonzero;stroke:none"/>
      <path d="M 275.18294,150.37591 C 279.34419,150.37591 280.72544,153.79216 280.84544,158.42966 C 280.85294,158.67716 280.85794,159.08591 280.85794,159.34091 L 272.69544,159.34091 C 272.84794,161.66341 274.16419,162.91716 276.08169,162.91716 C 277.50919,162.91716 278.79044,162.29216 279.94919,161.48716 L 279.94919,164.69091 C 278.79419,165.44466 277.47419,165.82591 275.84544,165.82591 C 271.94794,165.82591 269.56044,163.00841 269.56044,158.15841 C 269.56044,153.78591 271.51294,150.37591 275.18294,150.37591 z M 272.68794,156.66216 L 277.79794,156.66216 C 277.72169,154.82466 277.04294,153.25591 275.33919,153.25591 C 273.66044,153.25591 272.81794,154.72966 272.68794,156.66216" id="path193" style="fill:#ffffff;fill-opacity:1;fill-rule:nonzero;stroke:none"/>
      <path d="M 284.20919,158.04341 C 284.20919,153.66591 286.38669,150.37591 290.11294,150.37591 C 291.34794,150.37591 292.27544,150.56216 293.13669,150.91966 L 292.85919,154.07591 C 292.27544,153.71841 291.65294,153.48591 290.70794,153.48591 C 288.82794,153.48591 287.58794,155.31591 287.58794,158.05841 C 287.58794,160.71966 288.71294,162.71716 290.80294,162.71716 C 291.68419,162.71716 292.64169,162.34091 293.19419,162.02466 L 293.32419,165.31091 C 292.40919,165.66841 291.44044,165.82591 290.20794,165.82591 C 286.32919,165.82591 284.20919,162.60716 284.20919,158.04341" id="path195" style="fill:#ffffff;fill-opacity:1;fill-rule:nonzero;stroke:none"/>
      <path d="M 297.06169,165.48216 L 297.06169,146.23841 L 300.30294,146.23841 L 300.30294,152.75591 L 300.34919,152.75591 C 301.14669,151.30591 302.46919,150.37591 304.10169,150.37591 C 306.97044,150.37591 308.19794,152.90341 308.19794,156.18466 L 308.19794,165.48216 L 304.95669,165.48216 L 304.95669,157.72466 C 304.95669,155.75466 304.80794,153.57091 302.98044,153.57091 C 300.84919,153.57091 300.30294,156.31716 300.30294,158.42466 L 300.30294,165.48216 L 297.06169,165.48216" id="path197" style="fill:#ffffff;fill-opacity:1;fill-rule:nonzero;stroke:none"/>
      <path d="M 229.12669,165.48216 L 232.36806,165.48216 L 232.36806,146.23841 L 229.12669,146.23841 L 229.12669,165.48216 z" id="path199" style="fill:#ffffff;fill-opacity:1;fill-rule:nonzero;stroke:none"/>
    </g>
  </g>
</svg>