<?xml version="1.0" encoding="utf-8"?>
<!-- Generator: Adobe Illustrator 18.1.1, SVG Export Plug-In . SVG Version: 6.00 Build 0)  -->
<!DOCTYPE svg PUBLIC "-//W3C//DTD SVG 1.1//EN" "http://www.w3.org/Graphics/SVG/1.1/DTD/svg11.dtd">
<svg version="1.1" id="Layer_1" xmlns="http://www.w3.org/2000/svg" xmlns:xlink="http://www.w3.org/1999/xlink" x="0px" y="0px"
	 width="83.45px" height="80px" viewBox="0 0 83.45 80" enable-background="new 0 0 83.45 80" xml:space="preserve">
<path fill="#FFFFFF" d="M41.76,6.9c-1.28-3.18-4.39-6.62-10.22-6.14c-7.42,0.8-9.74,7.9-8.61,12.13c-2.96-2-7.98-2.88-12.37,0.87
	c-5.67,5.67-2.64,13.33,0.48,15.16c-3.43-0.32-8.86,2-10.06,8.05c-1.28,7.51,4.47,11.9,10.06,11.9h62c6.47,0,10.05-5.58,9.65-10.84
	c-0.63-6.87-6.93-9.5-10.37-8.94c2.87-1.6,6.71-9.1,0.87-15.01c-4.63-4.39-10.53-2.79-12.6-0.88c1.12-3.67-0.72-11.25-8.22-12.45
	c-0.52-0.06-1.02-0.09-1.49-0.09C45.14,0.67,42.57,4.84,41.76,6.9"/>
<path fill="#F37021" d="M11.59,14.96c-3.27,2.96-4.47,9.65,1.44,13.57l23.54,16.11L25.15,18.55C22.76,12.4,16.22,11.06,11.59,14.96"
	/>
<path fill="#CC004C" d="M31.85,2.28c-3.83,0.08-9.57,4.62-7.02,11.57l11.81,27.78l4.15-29.21C41.75,5.14,36.25,1.79,31.85,2.28"/>
<path fill="#6460AA" d="M42.64,11.29h2.23c0,0,1.19,0,1.35,0.56c-0.88,0.72-3.27,0.81-2.95,4.63l3.75,25.14l11.72-27.85
	c2.4-6.22-2.64-11.41-7.1-11.57c-0.21-0.02-0.42-0.03-0.63-0.03C47,2.17,42.41,5.07,42.64,11.29"/>
<path fill="#0089D0" d="M58.28,18.79L47.19,44.57l23.53-16.2c5.43-3.84,4.55-9.98,1.51-13.01c-1.27-1.43-3.61-2.53-6.09-2.53
	C63.22,12.83,60.09,14.38,58.28,18.79"/>
<path fill="#0DB14B" d="M68.09,32.04l-22.1,15.4H73.2c5.58,0,9.17-5.74,7.58-11.01c-1.07-3.31-4.23-5.91-7.9-5.92
	C71.33,30.51,69.69,30.97,68.09,32.04"/>
<path fill="#FCB711" d="M10.96,47.44h26.81l-22.11-15.4c-5.11-3.27-10.85-1.36-12.92,4.07C0.98,42.33,5.37,47.44,10.96,47.44"/>
<path d="M40.02,66.6h4.81c1.11,0.07,3.07,1.03,3.07,3.32c0,2.39-2.04,3.35-3.14,3.46h-4.74L40.02,66.6 M39.95,55.97h3.96
	c1.35,0.07,2.96,1.07,2.96,2.93c0,1.82-1.21,3.03-2.78,3.25h-4.14V55.97 M34.53,51.55V77.8H47.3c3.03,0,6.63-3.03,6.63-6.99
	c0-4.14-2.71-6.17-4.42-6.99c0,0,3.14-1.82,3-5.74c-0.14-5.28-5.03-6.53-6.71-6.53L34.53,51.55"/>
<polygon points="9.39,77.8 14.95,77.8 14.95,62.68 31.5,78.8 31.5,51.55 25.94,51.55 25.94,66.28 9.39,50.48 "/>
<path d="M54.82,64.39c0.14,8.3,6.12,14.51,13.8,14.51c1.82,0,3.74-0.34,5.7-1.1v-5.35c-1.55,0.95-3.29,1.4-4.98,1.4
	c-4.65,0-9.04-3.43-8.86-9.68c0.31-5.07,4.47-8.56,8.95-8.56c1.64,0,3.33,0.47,4.89,1.5v-5.2c-1.82-0.74-3.63-1.06-5.37-1.06
	C61.3,50.85,54.97,57.3,54.82,64.39"/>
</svg>
