
<svg xmlns="http://www.w3.org/2000/svg" width="1024" height="1024" viewBox="0 0 270.933 270.933">
  <g fill="#cc0000">
    <path d="M18.567 179.876V29.214a2.657 2.657 0 0 1 1.523-2.403 270.464 270.464 0 0 1 230.753 0 2.657 2.657 0 0 1 1.523 2.403v55.56a2.657 2.657 0 0 1-1.328 2.3l-26.568 15.34a2.657 2.657 0 0 1-3.985-2.301V50.349a2.657 2.657 0 0 0-1.73-2.49 238.582 238.582 0 0 0-166.577 0 2.657 2.657 0 0 0-1.73 2.49v114.188a2.657 2.657 0 0 1-1.328 2.301l-26.568 15.34a2.657 2.657 0 0 1-3.985-2.302z"/>
    <path d="M134.138 269.61L22.552 205.186a2.657 2.657 0 0 1 0-4.602l47.823-27.61a2.657 2.657 0 0 0 1.328-2.301V66.367a2.657 2.657 0 0 1 3.985-2.3l32.367 18.686 26.083 15.06a2.657 2.657 0 0 0 2.657 0l58.45-33.747a2.657 2.657 0 0 1 3.985 2.301v49.085a2.657 2.657 0 0 1-1.328 2.301l-26.568 15.34a2.657 2.657 0 0 1-3.986-2.302v-9.203a2.657 2.657 0 0 0-3.985-2.301l-26.568 15.34a2.657 2.657 0 0 1-2.657 0l-26.568-15.34a2.657 2.657 0 0 0-3.985 2.3v67.493a2.657 2.657 0 0 1-1.328 2.3l-15.941 9.204a2.657 2.657 0 0 0 0 4.602l14.317 8.266 33.505 19.344a2.657 2.657 0 0 0 2.657 0l64.663-37.333 17.698-10.218a2.657 2.657 0 0 0 1.329-2.3v-18.408a2.657 2.657 0 0 0-3.986-2.3l-45.165 26.076a2.657 2.657 0 0 1-3.986-2.3v-30.68a2.657 2.657 0 0 1 1.329-2.3l79.704-46.017a2.657 2.657 0 0 1 3.985 2.3v92.035a2.657 2.657 0 0 1-1.328 2.301L136.795 269.61a2.657 2.657 0 0 1-2.657 0z"/>
  </g>
</svg>
