<svg width="1024" height="1024" version="1.1" viewBox="0 0 270.93 270.93" xmlns="http://www.w3.org/2000/svg">
 <g transform="translate(0 -26.067)">
  <g transform="matrix(1.4059 0 0 1.4059 77.017 -1322.6)" fill="#f00">
   <path d="m-41.575 1087.3v-107.16a1.8898 1.8898 0 0 1 1.0836-1.7092 192.38 192.38 0 0 1 164.13 0 1.8898 1.8898 0 0 1 1.0836 1.7092v39.519a1.8898 1.8898 0 0 1-0.94488 1.6365l-18.898 10.911a1.8898 1.8898 0 0 1-2.8346-1.6366v-35.397a1.8898 1.8898 0 0 0-1.23-1.7709 169.7 169.7 0 0 0-118.48 0 1.8898 1.8898 0 0 0-1.23 1.7709v81.221a1.8898 1.8898 0 0 1-0.94488 1.6365l-18.898 10.911a1.8898 1.8898 0 0 1-2.8346-1.6366z"/>
   <path d="m40.63 1151.1-79.37-45.824a1.8898 1.8898 0 0 1 0-3.2731l34.016-19.639a1.8898 1.8898 0 0 0 0.94488-1.6366v-74.192a1.8898 1.8898 0 0 1 2.8346-1.6366l41.575 24.003a1.8898 1.8898 0 0 0 1.8898 0l41.575-24.003a1.8898 1.8898 0 0 1 2.8346 1.6366v34.914a1.8898 1.8898 0 0 1-0.94488 1.6366l-18.898 10.91a1.8898 1.8898 0 0 1-2.8346-1.6366v-6.5463a1.8898 1.8898 0 0 0-2.8346-1.6366l-18.898 10.911a1.8898 1.8898 0 0 1-1.8898 0l-18.898-10.911a1.8898 1.8898 0 0 0-2.8346 1.6366v48.006a1.8898 1.8898 0 0 1-0.94488 1.6366l-11.339 6.5464a1.8898 1.8898 0 0 0 0 3.2731l34.016 19.639a1.8898 1.8898 0 0 0 1.8898 0l58.583-33.823a1.8898 1.8898 0 0 0 0.94489-1.6366v-13.093a1.8898 1.8898 0 0 0-2.8346-1.6366l-32.126 18.548a1.8898 1.8898 0 0 1-2.8346-1.6366v-21.821a1.8898 1.8898 0 0 1 0.94488-1.6366l56.693-32.732a1.8898 1.8898 0 0 1 2.8346 1.6366v65.463a1.8898 1.8898 0 0 1-0.94488 1.6366l-81.26 46.915a1.8898 1.8898 0 0 1-1.8898 0z"/>
  </g>
 </g>
</svg>
