<?xml version="1.0" standalone="no"?>
<!DOCTYPE svg PUBLIC "-//W3C//DTD SVG 20010904//EN"
 "http://www.w3.org/TR/2001/REC-SVG-20010904/DTD/svg10.dtd">
<svg version="1.0" xmlns="http://www.w3.org/2000/svg"
 width="700.000000pt" height="700.000000pt" viewBox="0 0 700.000000 700.000000"
 preserveAspectRatio="xMidYMid meet">
<metadata>
Created by potrace 1.11, written by Peter Selinger 2001-2013
</metadata>
<g transform="translate(0.000000,700.000000) scale(0.100000,-0.100000)"
fill="#000000" stroke="none">
<path d="M3469 6818 c-34 -13 -20 -28 25 -28 48 0 96 14 96 28 0 10 -93 10
-121 0z"/>
<path d="M3547 6764 c-1 -1 -16 -5 -32 -8 -71 -13 -93 -20 -153 -49 -35 -17
-67 -38 -72 -47 -8 -15 -3 -16 43 -12 56 5 77 16 77 39 0 17 24 12 26 -5 1 -7
2 -16 3 -21 0 -6 11 -7 24 -4 12 3 100 9 196 12 147 5 172 8 158 19 -12 10
-14 20 -7 36 8 21 5 24 -38 34 -41 9 -217 14 -225 6z"/>
<path d="M3060 6628 c-27 -16 -40 -38 -23 -38 29 0 133 24 133 30 0 27 -71 32
-110 8z"/>
<path d="M4560 6636 c-36 -6 -79 -21 -95 -32 -32 -22 -113 -46 -127 -38 -4 3
-8 12 -8 20 0 8 -5 14 -11 14 -6 0 -71 -29 -144 -64 -155 -75 -171 -92 -259
-259 -82 -157 -95 -220 -65 -324 8 -31 16 -42 28 -41 10 2 23 -11 35 -37 75
-161 188 -290 304 -349 85 -43 161 -65 187 -56 14 5 38 -3 81 -26 65 -36 106
-46 84 -19 -13 16 -6 35 15 35 8 0 96 -29 195 -65 99 -36 183 -65 187 -65 3 0
-16 20 -42 45 -27 25 -46 48 -42 51 3 4 50 -21 104 -54 153 -94 206 -116 273
-114 20 0 30 -8 45 -36 11 -20 42 -51 70 -69 83 -54 117 -96 193 -230 88 -157
95 -167 86 -132 -11 49 15 41 51 -16 70 -109 124 -248 130 -333 4 -53 -3 -48
-39 23 -60 117 -226 343 -265 360 -16 6 -18 10 54 -80 46 -57 75 -111 75 -137
-1 -8 -7 -5 -15 6 -28 37 -23 10 6 -34 28 -41 33 -62 16 -61 -4 0 -39 40 -78
88 -194 242 -299 329 -459 379 -87 27 -79 13 46 -87 170 -137 252 -222 309
-318 5 -9 -3 -7 -21 6 -16 11 -51 28 -77 37 -50 17 -89 21 -72 8 19 -14 90
-95 78 -88 -28 16 -10 -19 40 -75 179 -203 292 -496 295 -762 2 -109 -8 -96
-40 58 -20 93 -45 172 -52 164 -2 -2 2 -38 10 -80 14 -84 21 -134 30 -224 3
-33 7 -71 10 -85 2 -14 6 -90 10 -170 5 -113 9 -147 21 -153 10 -6 13 -18 9
-35 -6 -23 -5 -25 6 -10 7 9 18 25 24 35 11 17 12 17 33 -2 24 -21 22 -57 -5
-85 -12 -12 -14 -9 -15 25 -2 74 -16 -3 -16 -85 0 -42 -5 -92 -12 -111 -6 -20
-23 -88 -36 -150 -17 -81 -29 -117 -44 -128 -10 -9 -25 -35 -32 -58 -10 -35
-15 -41 -29 -33 -11 6 -17 5 -18 -3 -4 -56 -29 -140 -49 -163 -23 -27 -23 -27
-44 -8 -21 19 -22 19 -38 -5 -9 -13 -36 -61 -59 -105 -137 -255 -142 -262
-203 -308 -23 -17 -39 -38 -43 -58 -9 -45 -43 -90 -69 -90 -31 0 -43 -10 -60
-52 -9 -21 -34 -57 -57 -80 -23 -24 -46 -51 -51 -61 -8 -14 -5 -17 16 -17 17
0 41 14 67 40 40 38 58 49 58 32 0 -4 -22 -34 -48 -67 -58 -72 -72 -96 -72
-127 0 -22 1 -21 18 7 11 17 26 36 35 44 18 14 22 7 18 -27 -7 -48 202 170
341 355 57 76 105 140 108 143 3 3 31 40 63 83 32 42 60 77 63 77 8 0 -21 -45
-61 -95 -18 -22 -40 -56 -50 -75 l-18 -35 21 19 c39 34 41 11 3 -34 -21 -25
-100 -119 -176 -210 -306 -369 -549 -583 -814 -717 -81 -42 -127 -60 -131 -53
-5 8 -36 4 -105 -14 -91 -23 -121 -39 -109 -58 3 -4 -4 -8 -16 -8 -14 0 -20 5
-18 18 2 13 -3 16 -27 14 -16 -2 -104 -5 -195 -7 -207 -5 -200 -5 -168 -16 20
-8 26 -16 25 -36 -2 -24 3 -27 54 -37 75 -16 180 -12 259 9 50 13 660 248 765
294 11 5 57 23 102 41 121 47 133 55 392 278 57 50 112 92 119 92 3 0 -1 -8
-8 -17 -23 -32 44 43 92 103 26 33 59 73 73 89 59 67 71 83 104 129 37 53 13
46 -29 -8 -79 -103 -176 -206 -193 -206 -11 0 -2 14 64 95 131 162 258 385
439 770 56 119 70 126 34 18 -7 -24 -16 -70 -19 -103 -7 -87 -22 -122 -110
-255 -89 -135 -117 -190 -113 -219 2 -17 10 -11 39 29 31 44 102 161 133 220
32 59 131 214 135 210 8 -8 46 58 81 140 61 145 69 120 15 -46 -19 -60 -35
-126 -34 -146 l0 -38 29 61 c30 66 56 95 45 51 -13 -51 14 -35 33 20 11 32 47
137 80 234 33 98 67 190 76 205 l16 29 -5 -35 c-2 -19 -6 -57 -10 -85 -13
-109 -57 -244 -175 -542 -27 -68 -44 -125 -40 -128 12 -7 75 49 98 88 12 20
19 48 18 74 -1 35 2 43 16 43 16 0 25 17 32 63 1 10 8 23 15 30 21 19 6 -45
-30 -133 -17 -41 -33 -100 -35 -130 -5 -59 -3 -58 33 32 9 20 26 47 39 59 23
21 24 21 25 3 0 -10 2 -27 4 -37 4 -20 -14 -77 -44 -142 -26 -56 -39 -106 -34
-134 5 -37 8 -35 33 22 59 135 102 221 120 244 31 39 24 11 -20 -84 -39 -83
-66 -191 -42 -168 6 6 55 123 110 260 78 195 99 257 95 282 -7 44 2 76 31 110
13 16 35 68 49 118 14 50 37 124 52 165 31 88 31 86 54 215 42 224 43 476 6
745 -2 14 -6 48 -9 75 -4 28 -11 73 -16 100 -5 28 -12 66 -16 85 -3 19 -7 40
-8 45 -1 6 -8 37 -15 70 -7 33 -31 127 -52 209 -37 139 -45 197 -18 130 79
-203 104 -282 134 -434 40 -196 43 -220 50 -310 4 -47 9 -98 11 -115 2 -16 6
-61 10 -100 3 -38 8 -81 9 -95 2 -14 4 -36 4 -50 1 -18 4 -21 10 -11 9 13 8
52 -4 311 -11 220 -13 253 -19 295 -3 22 -8 63 -12 90 -42 340 -228 783 -469
1120 -165 230 -408 486 -645 679 -41 33 -86 71 -100 83 -14 13 -28 23 -32 23
-3 0 -11 15 -17 33 -7 19 -24 45 -39 59 -46 43 -611 418 -666 442 -105 46
-222 61 -336 42z m2088 -1868 c14 -18 32 -88 22 -88 -4 0 -13 12 -19 28 -6 15
-15 37 -21 50 -10 24 1 30 18 10z m-1008 -520 c27 -60 27 -94 0 -50 -22 35
-37 92 -26 92 4 0 16 -19 26 -42z m606 -268 c2 -38 0 -60 -6 -60 -23 0 -39 94
-24 135 11 28 24 -6 30 -75z m-527 -1662 c-27 -54 -101 -160 -107 -154 -4 5
30 70 89 167 38 63 52 54 18 -13z m-354 -169 c-15 -21 -29 -39 -31 -39 -8 0
19 60 32 71 8 6 15 19 15 28 1 13 2 12 6 -2 3 -10 -8 -36 -22 -58z"/>
<path d="M2929 6596 c-2 -2 -26 -7 -54 -10 -49 -7 -163 -52 -153 -61 2 -3 56
10 118 28 63 19 109 36 103 40 -6 4 -12 5 -14 3z"/>
<path d="M3517 6594 c-1 -1 -24 -4 -52 -8 -54 -6 -66 -9 -140 -29 l-50 -13 40
-7 c58 -10 75 -9 73 5 -2 6 14 15 35 20 28 6 44 4 62 -8 32 -21 122 -20 191 2
87 27 74 33 -89 38 -37 1 -69 1 -70 0z"/>
<path d="M3335 6503 c-11 -3 -46 -14 -79 -24 -32 -11 -77 -19 -100 -19 -42 0
-253 -64 -271 -83 -7 -6 -2 -8 15 -4 382 94 487 121 495 128 10 10 -25 10 -60
2z"/>
<path d="M3300 6412 c-47 -7 -46 -23 0 -18 25 3 55 5 68 5 12 1 22 5 22 9 0 8
-45 10 -90 4z"/>
<path d="M2039 6221 c-62 -31 -152 -83 -214 -125 -52 -35 -211 -152 -225 -166
-3 -3 -34 -30 -70 -60 -89 -74 -198 -184 -248 -248 -44 -56 -56 -88 -22 -57
21 19 28 7 8 -13 -6 -6 -8 -15 -5 -19 4 -4 27 15 50 43 121 141 362 369 492
465 33 24 62 46 65 49 3 3 46 32 97 65 50 33 100 65 110 72 28 18 2 14 -38 -6z"/>
<path d="M3057 6194 c-1 -1 -20 -5 -42 -7 -22 -3 -69 -14 -105 -25 -66 -20
-771 -295 -867 -338 -46 -20 -139 -77 -153 -93 -15 -18 -229 -200 -252 -215
-15 -10 -32 -15 -37 -11 -11 6 -15 2 -113 -120 -35 -44 -94 -117 -131 -163
-37 -45 -67 -86 -67 -90 1 -8 76 73 128 137 18 22 52 55 75 73 43 33 41 28
-23 -52 -117 -147 -206 -299 -371 -635 -67 -135 -122 -245 -124 -245 -2 0 8
39 21 87 13 49 24 102 24 120 0 58 29 121 120 259 81 124 109 183 98 214 -5
17 -117 -163 -258 -415 -37 -65 -47 -78 -52 -63 -3 7 -23 -25 -45 -72 -23 -47
-51 -105 -63 -130 l-22 -45 6 43 c4 24 11 51 16 60 24 44 51 154 48 194 -3 34
-5 39 -12 23 -4 -11 -20 -45 -34 -75 l-27 -55 -5 35 c-5 32 -7 33 -17 15 -6
-11 -25 -65 -43 -120 -72 -222 -103 -310 -122 -339 l-20 -31 7 59 c4 32 9 69
11 82 7 38 114 343 195 556 16 43 29 80 29 83 0 16 -27 -1 -76 -47 -47 -45
-55 -49 -50 -28 19 85 7 110 -19 42 -13 -35 -34 -75 -46 -88 l-24 -25 -7 28
c-9 34 2 76 45 176 19 43 33 90 31 105 -1 15 -2 33 -3 41 -2 23 -9 9 -64 -115
-55 -123 -96 -198 -104 -190 -3 3 14 45 36 95 23 49 44 111 47 138 l5 48 -18
-30 c-11 -16 -61 -133 -111 -260 -67 -168 -90 -239 -87 -262 6 -45 -10 -92
-41 -124 -18 -19 -28 -42 -31 -69 -2 -23 -24 -98 -47 -168 -100 -292 -121
-542 -80 -952 3 -30 7 -57 9 -60 2 -3 6 -34 10 -70 3 -35 8 -67 10 -70 2 -3 6
-24 9 -46 7 -44 8 -48 31 -154 20 -91 20 -89 40 -170 9 -36 18 -74 20 -85 3
-11 11 -42 19 -69 24 -78 -2 -38 -41 65 -44 117 -86 266 -108 384 -10 50 -19
98 -21 109 -2 10 -6 44 -9 75 -3 31 -8 70 -11 87 -2 17 -7 74 -9 125 -6 123
-20 227 -31 238 -5 5 -6 -18 -4 -255 0 -106 3 -203 5 -215 2 -13 6 -60 10
-104 4 -44 8 -82 10 -85 2 -3 6 -26 10 -50 40 -273 160 -604 318 -875 107
-184 273 -409 391 -530 11 -12 48 -51 82 -86 88 -92 233 -224 355 -323 67 -53
111 -98 120 -117 18 -45 43 -68 139 -128 47 -30 166 -111 265 -181 221 -155
267 -182 375 -214 73 -21 101 -24 193 -21 96 3 113 7 147 29 20 13 60 31 88
40 49 14 51 14 57 -5 4 -10 13 -19 22 -19 33 0 261 120 294 155 30 32 118 181
155 263 20 45 34 123 28 158 -11 74 -27 115 -43 112 -10 -2 -27 20 -52 72 -68
140 -177 257 -294 316 -77 38 -172 67 -180 54 -8 -12 -26 -7 -75 21 -25 15
-56 30 -69 34 -21 6 -23 5 -18 -14 9 -36 -17 -35 -131 4 -59 21 -150 53 -202
71 -84 29 -92 31 -66 11 61 -46 79 -64 75 -74 -2 -6 -51 18 -109 53 -119 73
-194 104 -248 104 -34 0 -39 4 -64 50 -18 32 -35 50 -46 50 -55 0 -135 96
-236 281 -45 85 -93 147 -65 86 18 -39 1 -47 -27 -12 -28 35 -108 196 -128
257 -18 56 -28 140 -15 133 5 -4 21 -30 35 -58 58 -114 158 -252 252 -347 42
-42 43 -43 22 -10 -13 19 -33 46 -45 60 -36 41 -83 113 -91 140 -6 22 -5 23
10 11 29 -25 27 -5 -4 34 -28 36 -35 57 -17 56 4 0 44 -47 89 -103 167 -212
297 -312 466 -362 29 -8 52 -12 50 -7 -2 4 -46 43 -98 87 -125 103 -155 130
-212 187 -44 45 -108 128 -108 141 0 4 18 -5 40 -19 22 -14 40 -22 40 -19 0 4
6 2 13 -3 14 -12 77 -25 77 -17 0 4 -18 25 -40 47 -28 27 -37 43 -29 48 8 5
-1 21 -29 51 -143 153 -267 400 -298 592 -3 21 -8 48 -11 60 -2 11 -7 68 -9
126 -5 113 5 119 25 15 22 -109 43 -190 58 -215 l14 -25 -5 27 c-3 14 -11 60
-16 101 -6 42 -13 85 -15 97 -2 13 -7 57 -11 98 -3 42 -8 84 -10 95 -2 11 -6
83 -9 161 -4 77 -11 143 -16 144 -5 2 -9 17 -9 34 0 26 -2 29 -15 18 -8 -7
-13 -15 -11 -19 3 -4 1 -13 -4 -21 -7 -12 -13 -12 -34 0 -21 11 -25 18 -20 43
2 17 9 37 14 46 8 13 9 11 10 -9 0 -14 5 -32 10 -40 11 -17 10 -24 15 110 1
47 7 98 14 114 6 16 23 81 37 144 22 102 34 131 54 132 3 0 11 21 18 46 9 34
16 44 28 40 16 -6 29 18 37 74 7 49 21 82 45 103 20 18 21 18 32 -3 20 -37 37
-12 161 230 41 79 69 119 116 165 39 38 65 72 69 90 8 44 25 62 77 84 35 15
47 26 47 41 0 12 22 45 49 73 26 29 54 62 60 75 11 20 9 22 -14 22 -17 0 -41
-14 -67 -40 -38 -37 -58 -49 -58 -34 0 3 27 40 60 81 49 62 60 82 59 112 l0
36 -19 -41 c-25 -58 -58 -68 -51 -16 8 55 -199 -157 -334 -343 -11 -16 -64
-87 -119 -159 -54 -72 -101 -136 -103 -143 -3 -7 -9 -13 -14 -13 -10 0 15 43
44 75 24 26 87 121 87 131 0 4 -9 -2 -20 -14 -19 -20 -40 -29 -40 -17 0 7 354
429 409 489 186 199 434 394 629 494 108 56 122 61 101 36 -14 -17 -19 -18
126 18 87 21 109 34 100 55 -3 10 1 13 13 11 9 -2 17 -10 17 -18 0 -12 14 -15
65 -13 36 1 129 3 207 5 138 3 170 9 118 22 -21 5 -23 10 -15 30 8 23 6 25
-38 35 -42 10 -169 21 -175 15z m-1413 -1331 c-11 -15 -22 -35 -26 -43 -6 -13
-7 -13 -7 0 -1 19 38 84 46 76 3 -3 -3 -18 -13 -33z m-268 -28 c-15 -36 -116
-195 -116 -183 0 24 113 218 126 218 2 0 -2 -16 -10 -35z m-673 -103 c5 -36 3
-42 -13 -42 -13 0 -22 -11 -29 -37 -6 -21 -11 -44 -11 -50 0 -7 -5 -13 -11
-13 -15 0 -3 51 30 127 14 34 27 61 28 60 1 -1 4 -21 6 -45z m83 -1706 c1 -37
-1 -64 -6 -61 -13 8 -27 57 -25 90 4 60 4 60 16 48 6 -6 13 -41 15 -77z m577
-200 c9 -12 18 -41 22 -62 l6 -39 -25 50 c-34 67 -36 101 -3 51z m-1013 -516
c24 -47 27 -71 6 -50 -13 14 -39 90 -30 90 2 0 13 -18 24 -40z"/>
<path d="M2480 5950 c-52 -27 -91 -49 -86 -49 12 -1 196 87 196 94 0 10 -16 3
-110 -45z"/>
<path d="M1291 5869 c-57 -62 -68 -69 -73 -43 -3 14 -7 13 -31 -6 -34 -27 -87
-123 -58 -105 11 6 25 -13 26 -35 0 -8 7 -16 16 -18 10 -2 32 25 64 75 27 43
64 102 83 131 19 29 33 55 31 57 -2 2 -28 -23 -58 -56z"/>
<path d="M1832 5880 c-23 -17 -42 -35 -42 -40 0 -21 28 -8 65 30 46 47 35 52
-23 10z"/>
<path d="M1712 5784 c-23 -19 -42 -42 -42 -51 0 -10 11 -5 38 18 38 33 57 57
50 65 -3 2 -23 -12 -46 -32z"/>
<path d="M1414 5511 c-23 -25 -45 -57 -49 -71 -6 -22 -3 -21 35 15 36 35 70
83 70 100 0 13 -18 -1 -56 -44z"/>
<path d="M2345 5394 c-55 -41 -113 -85 -129 -97 -297 -224 -468 -413 -571
-632 -30 -63 -133 -345 -166 -455 -20 -67 -34 -190 -20 -174 4 5 25 59 45 119
20 61 41 119 46 130 5 11 20 52 35 90 55 146 141 334 202 437 l36 61 12 -29
12 -29 28 57 c32 65 87 126 200 223 89 75 139 125 171 170 18 24 24 27 37 17
12 -10 24 -1 73 60 32 39 72 84 88 100 63 57 -1 26 -99 -48z"/>
<path d="M1060 5319 c-43 -49 -70 -97 -70 -124 1 -16 4 -14 17 10 9 17 28 46
43 65 30 39 53 80 48 85 -2 2 -19 -14 -38 -36z"/>
<path d="M927 4911 c-45 -71 -97 -181 -97 -201 0 -8 6 -4 13 10 78 146 127
244 124 247 -2 2 -20 -23 -40 -56z"/>
<path d="M1033 4848 c-29 -32 -55 -86 -51 -106 3 -10 19 11 41 56 21 39 36 72
34 72 -2 0 -13 -10 -24 -22z"/>
<path d="M5160 4816 c0 -17 20 -41 53 -61 40 -25 33 -6 -13 36 -22 20 -40 31
-40 25z"/>
<path d="M5361 4483 c13 -21 28 -46 33 -55 6 -10 14 -18 19 -18 10 0 -20 70
-40 92 -28 31 -35 19 -12 -19z"/>
<path d="M5506 2902 c-89 -270 -235 -608 -310 -716 l-20 -30 -11 28 -12 28
-28 -57 c-35 -73 -63 -104 -199 -223 -110 -96 -146 -133 -177 -180 -11 -15
-19 -20 -23 -13 -14 21 -33 11 -67 -36 -18 -27 -55 -69 -82 -95 -26 -27 -43
-48 -36 -48 9 0 104 65 169 117 8 6 78 61 155 121 142 111 238 200 304 282 20
25 39 47 42 50 30 24 176 288 194 350 3 14 28 86 55 160 56 157 78 229 84 286
8 74 -9 63 -38 -24z"/>
<path d="M1586 2610 c7 -37 48 -100 65 -100 6 0 7 6 2 13 -4 6 -22 37 -40 67
-31 51 -33 52 -27 20z"/>
<path d="M6097 2192 c-38 -75 -59 -126 -48 -112 29 35 124 225 120 238 -2 6
-35 -51 -72 -126z"/>
<path d="M5980 2238 c-26 -53 -28 -59 -10 -43 12 11 26 27 30 36 10 17 21 69
15 69 -1 0 -17 -28 -35 -62z"/>
<path d="M1760 2282 c0 -5 16 -23 35 -41 19 -17 35 -36 35 -41 0 -6 5 -10 10
-10 21 0 9 27 -28 63 -38 37 -52 45 -52 29z"/>
<path d="M5989 1808 c-6 -12 -15 -25 -19 -28 -12 -8 -60 -82 -60 -92 0 -14 68
69 86 105 9 16 13 31 11 34 -3 2 -11 -6 -18 -19z"/>
<path d="M5582 1549 c-53 -62 -67 -91 -33 -67 28 20 69 72 80 102 6 14 9 26 7
26 -1 0 -26 -27 -54 -61z"/>
<path d="M5673 1437 c-177 -209 -401 -409 -632 -564 -100 -66 -108 -74 -45
-45 208 95 618 429 734 597 l34 50 -27 -18 -28 -18 16 30 c24 48 5 36 -52 -32z"/>
<path d="M5808 1353 c-20 -25 -148 -229 -148 -237 0 -4 24 19 54 51 44 46 56
54 61 41 13 -32 48 -4 87 69 17 31 17 32 -3 38 -11 4 -19 12 -18 18 5 40 -9
48 -33 20z"/>
<path d="M5282 1268 c-37 -30 -54 -59 -34 -58 12 1 87 79 81 85 -4 3 -25 -9
-47 -27z"/>
<path d="M5145 1158 c-21 -21 -36 -38 -32 -38 15 0 87 45 91 57 11 27 -22 16
-59 -19z"/>
<path d="M4520 1090 c-30 -16 -60 -29 -66 -30 -6 0 -17 -7 -24 -15 -11 -13
155 57 169 71 14 13 -32 -2 -79 -26z"/>
<path d="M4060 645 c-25 -7 -139 -37 -255 -67 -115 -29 -200 -54 -188 -56 12
-2 54 6 94 18 40 12 95 24 123 27 28 2 83 15 121 28 39 13 89 28 113 34 23 7
42 16 42 21 0 6 -1 10 -2 9 -2 -1 -23 -7 -48 -14z"/>
<path d="M3693 633 c-24 -2 -43 -8 -43 -13 0 -12 71 -3 84 10 6 6 8 9 6 8 -3
-1 -24 -3 -47 -5z"/>
<path d="M3620 487 c0 -14 -51 -32 -80 -27 -8 1 -22 8 -31 16 -21 19 -151 11
-204 -12 l-40 -17 30 -9 c40 -12 243 -2 329 17 94 20 100 27 34 39 -29 5 -38
4 -38 -7z"/>
<path d="M4172 475 c-75 -27 -69 -25 -87 -25 -8 0 -15 -4 -15 -9 0 -12 97 7
148 29 41 19 54 31 30 29 -7 -1 -41 -11 -76 -24z"/>
<path d="M3863 419 c-38 -11 -44 -28 -10 -31 12 0 29 -2 37 -3 18 -2 66 21 75
35 8 13 -58 12 -102 -1z"/>
<path d="M3620 370 c-14 -3 -25 -12 -25 -20 0 -22 -26 -24 -32 -1 -5 20 -9 21
-102 14 -53 -3 -139 -7 -193 -7 -92 0 -96 -1 -83 -19 7 -10 11 -26 8 -36 -3
-14 3 -20 24 -26 138 -37 348 -5 462 70 22 15 41 29 41 31 0 6 -71 1 -100 -6z"/>
<path d="M3480 232 c-89 -10 -97 -32 -9 -27 63 5 79 10 79 25 0 9 -9 9 -70 2z"/>
</g>
</svg>
