<?xml version="1.0" standalone="no"?>
<!DOCTYPE svg PUBLIC "-//W3C//DTD SVG 20010904//EN"
 "http://www.w3.org/TR/2001/REC-SVG-20010904/DTD/svg10.dtd">
<svg version="1.0" xmlns="http://www.w3.org/2000/svg"
 width="700.000000pt" height="700.000000pt" viewBox="0 0 700.000000 700.000000"
 preserveAspectRatio="xMidYMid meet">
<metadata>
Created by potrace 1.11, written by Peter Selinger 2001-2013
</metadata>
<g transform="translate(0.000000,700.000000) scale(0.100000,-0.100000)"
fill="#000000" stroke="none">
<path d="M3357 6974 c-1 -1 -76 -5 -167 -8 -175 -7 -222 -10 -329 -21 -168
-17 -215 -22 -263 -29 -21 -3 -53 -8 -70 -11 -112 -15 -192 -28 -258 -40 -41
-8 -86 -16 -100 -19 -141 -24 -437 -97 -674 -166 -179 -52 -553 -185 -663
-235 -17 -8 -33 -15 -36 -15 -5 0 -77 -32 -205 -91 -34 -16 -66 -29 -71 -29
-5 0 -16 -11 -25 -25 -15 -22 -16 -197 -16 -1989 l0 -1965 22 -21 c41 -38 50
-35 281 99 111 64 209 120 217 124 8 4 24 13 35 20 11 7 47 28 80 47 33 19 74
43 90 53 17 9 37 20 45 23 8 3 24 17 35 32 19 26 19 53 20 1517 0 1177 3 1495
13 1513 7 12 14 22 16 22 2 0 63 21 137 46 264 91 619 188 839 228 14 3 35 7
47 10 11 2 43 8 70 12 26 3 57 8 68 10 59 11 208 33 265 39 36 4 79 9 95 10
224 25 319 29 635 30 296 0 449 -6 615 -25 44 -5 107 -12 140 -15 33 -4 98
-13 145 -21 47 -7 103 -16 125 -19 103 -13 364 -69 555 -119 228 -59 557 -168
601 -197 l24 -16 1 -673 0 -672 25 -19 c13 -10 34 -19 47 -19 13 0 84 35 158
78 74 42 142 82 152 87 252 143 416 243 428 259 12 17 14 133 14 756 0 573 -3
740 -12 753 -19 25 -276 140 -539 241 -305 117 -888 283 -1136 322 -19 3 -43
7 -52 9 -66 13 -194 34 -232 40 -25 3 -57 8 -70 10 -13 2 -46 6 -74 10 -27 3
-63 8 -80 10 -16 2 -57 7 -90 10 -33 3 -78 8 -100 11 -46 5 -140 11 -305 20
-104 5 -469 12 -473 8z"/>
<path d="M1875 5326 l-23 -24 0 -1367 c0 -1284 -1 -1368 -18 -1386 -15 -17
-59 -44 -204 -127 -42 -24 -353 -204 -575 -332 -88 -51 -178 -103 -200 -115
-223 -127 -281 -165 -293 -188 -16 -33 -7 -69 21 -87 24 -15 169 -99 232 -135
22 -13 209 -121 415 -240 206 -120 393 -228 415 -240 22 -13 96 -56 165 -95
69 -40 141 -81 160 -92 19 -11 91 -53 160 -93 69 -40 141 -82 160 -92 19 -11
136 -79 260 -150 124 -72 239 -138 255 -147 17 -9 44 -25 61 -36 18 -10 110
-63 205 -118 96 -55 225 -129 287 -166 68 -40 125 -66 142 -66 17 0 84 33 177
86 81 48 168 98 193 112 25 14 152 87 283 164 131 76 240 138 243 138 3 0 17
8 32 19 23 16 109 66 482 280 180 103 267 153 280 162 50 30 363 209 368 209
3 0 13 6 21 14 9 7 41 27 71 43 30 17 116 65 190 108 74 43 248 143 385 222
138 79 260 155 273 169 l22 25 0 1209 0 1209 -26 20 c-15 12 -36 21 -47 21
-18 0 -166 -82 -537 -298 -80 -47 -163 -94 -185 -107 -22 -12 -56 -31 -75 -43
-19 -11 -46 -27 -60 -35 -39 -21 -710 -409 -840 -485 -19 -12 -46 -27 -60 -35
-147 -81 -331 -192 -346 -208 -18 -20 -19 -44 -19 -441 l0 -420 24 -19 c27
-22 69 -25 96 -5 11 7 37 23 58 35 108 61 675 388 752 434 39 23 79 47 90 53
11 6 76 43 145 82 131 75 145 78 186 41 20 -19 20 -28 20 -279 l-1 -260 -25
-24 c-14 -13 -45 -35 -70 -49 -25 -13 -292 -167 -595 -342 -302 -175 -563
-326 -580 -335 -90 -52 -172 -99 -380 -220 -126 -73 -288 -166 -360 -207 -71
-41 -134 -79 -139 -84 -29 -27 -77 -6 -366 161 -161 94 -295 170 -297 170 -1
0 -31 17 -65 38 -35 21 -88 53 -118 69 -307 173 -486 283 -494 306 -17 46 7
78 97 128 183 102 333 191 352 210 20 19 20 33 21 915 l0 895 21 21 c39 38 51
35 235 -72 61 -36 132 -77 157 -91 26 -14 91 -52 146 -84 55 -32 131 -76 168
-98 38 -22 80 -40 95 -40 16 -1 70 24 132 60 58 33 121 70 140 80 19 11 129
75 245 142 127 75 220 123 238 123 16 1 37 -8 49 -20 19 -19 21 -33 22 -161 1
-126 3 -143 21 -160 38 -36 56 -34 150 20 50 29 104 60 120 69 361 207 494
285 510 301 20 19 20 33 21 676 l1 657 -23 23 c-13 13 -34 23 -46 23 -13 0
-118 -54 -233 -121 -116 -67 -228 -131 -250 -144 -22 -12 -141 -81 -265 -152
-124 -72 -292 -169 -374 -217 -82 -47 -151 -86 -154 -86 -3 0 -13 -6 -21 -14
-9 -8 -40 -27 -69 -42 -57 -31 -61 -33 -136 -78 -27 -16 -61 -29 -76 -28 -14
0 -139 66 -281 147 -139 81 -270 156 -289 167 -177 101 -703 406 -732 424 -21
13 -40 24 -42 24 -2 0 -50 27 -106 60 -56 33 -113 60 -126 60 -14 0 -36 -11
-49 -24z"/>
</g>
</svg>
