<?xml version="1.0" standalone="no"?>
<!DOCTYPE svg PUBLIC "-//W3C//DTD SVG 20010904//EN"
 "http://www.w3.org/TR/2001/REC-SVG-20010904/DTD/svg10.dtd">
<svg version="1.0" xmlns="http://www.w3.org/2000/svg"
 width="700.000000pt" height="700.000000pt" viewBox="0 0 700.000000 700.000000"
 preserveAspectRatio="xMidYMid meet">
<metadata>
Created by potrace 1.11, written by Peter Selinger 2001-2013
</metadata>
<g transform="translate(0.000000,700.000000) scale(0.100000,-0.100000)"
fill="#000000" stroke="none">
<path d="M3280 6880 c-107 -62 -354 -204 -548 -317 -194 -112 -367 -212 -385
-222 -18 -10 -189 -110 -382 -221 -192 -111 -366 -211 -385 -222 -19 -11 -109
-63 -200 -116 -91 -52 -201 -116 -245 -141 -44 -25 -87 -50 -96 -56 -9 -5 -43
-25 -75 -43 -32 -17 -66 -37 -74 -42 -27 -18 -215 -126 -230 -133 -46 -20
-156 -96 -174 -120 l-21 -28 0 -1704 c0 -937 3 -1718 8 -1734 10 -39 48 -75
122 -115 33 -18 116 -66 185 -106 68 -40 138 -81 155 -90 28 -16 760 -439 835
-483 19 -11 55 -31 80 -45 25 -13 50 -27 55 -32 6 -4 30 -19 55 -32 64 -36
107 -60 170 -98 30 -18 75 -44 100 -58 41 -23 440 -253 930 -537 315 -182 306
-178 359 -173 42 5 95 32 271 138 13 8 654 377 745 430 17 9 73 42 125 72 52
30 115 66 140 80 25 14 113 65 195 113 83 48 168 97 190 110 22 12 272 156
555 320 283 163 533 307 555 320 248 140 251 143 158 200 -56 35 -941 547
-1013 586 -19 11 -42 24 -50 29 -32 21 -222 130 -226 130 -3 0 -30 16 -60 35
-30 19 -56 35 -58 35 -2 0 -93 52 -202 116 -110 64 -223 129 -252 146 -30 16
-106 60 -170 97 -418 243 -841 486 -867 496 -53 22 -93 8 -289 -103 -105 -60
-285 -162 -400 -227 -115 -65 -220 -128 -233 -139 -41 -36 -39 -37 367 -268
149 -85 624 -358 750 -431 85 -49 175 -101 200 -115 92 -52 588 -336 655 -377
101 -60 99 -72 -35 -152 -58 -34 -116 -68 -130 -75 -14 -7 -41 -23 -60 -35
-19 -12 -58 -34 -85 -50 -52 -29 -251 -143 -308 -177 -398 -232 -431 -250
-482 -250 -53 0 -41 -6 -385 197 -47 27 -105 61 -130 75 -93 52 -757 436 -792
459 -21 12 -40 23 -43 23 -2 0 -33 17 -67 38 -35 21 -70 42 -78 46 -8 4 -24
12 -35 19 -11 7 -141 82 -288 167 -208 120 -273 162 -288 187 -21 33 -21 43
-22 1216 0 1275 -3 1213 49 1258 15 13 309 185 514 302 78 44 441 253 525 302
50 29 106 62 125 73 67 37 685 395 765 441 44 26 94 52 112 58 32 12 92 4 116
-15 7 -5 37 -23 67 -39 30 -17 93 -53 140 -80 47 -27 234 -135 415 -240 182
-105 474 -273 650 -375 176 -102 334 -193 350 -202 17 -9 44 -25 60 -35 17
-10 50 -29 75 -43 25 -14 70 -40 100 -58 30 -18 75 -44 100 -58 25 -14 173
-99 330 -190 157 -91 299 -173 315 -182 17 -9 93 -54 171 -98 77 -45 148 -82
157 -82 9 0 21 9 27 20 7 13 10 177 10 487 -1 455 -1 468 -22 504 -17 30 -48
53 -162 119 -77 45 -148 85 -156 90 -30 19 -189 110 -235 134 -11 6 -31 18
-45 27 -14 9 -104 61 -200 116 -96 56 -332 192 -525 303 -192 112 -366 212
-385 222 -19 11 -165 96 -325 188 -159 92 -348 201 -420 242 -71 41 -217 125
-324 187 -130 75 -207 114 -235 117 -38 5 -55 -2 -236 -106z"/>
<path d="M3524 5216 c-17 -13 -18 -41 -18 -494 0 -576 -17 -512 164 -616 47
-26 184 -106 305 -176 121 -70 351 -203 510 -295 160 -92 364 -210 455 -263
91 -52 179 -103 195 -112 17 -10 165 -95 330 -190 165 -95 314 -181 330 -190
17 -10 170 -98 341 -198 306 -177 368 -212 378 -212 2 0 12 7 20 16 15 14 16
70 16 490 -1 569 12 516 -152 609 -38 21 -315 181 -828 478 -294 170 -551 318
-570 329 -19 11 -91 53 -160 93 -69 39 -145 83 -170 97 -25 14 -155 89 -288
167 -134 77 -245 141 -247 141 -1 0 -55 32 -119 70 -65 39 -119 70 -121 70 -1
0 -65 36 -140 80 -201 118 -209 122 -231 106z"/>
</g>
</svg>
